<?xml version="1.0" standalone="no"?>
<!DOCTYPE svg PUBLIC "-//W3C//DTD SVG 1.1//EN" "http://www.w3.org/Graphics/SVG/1.1/DTD/svg11.dtd" >
<svg>
<metadata>
Created by FontForge 20090914 at Thu Jun 13 09:38:06 2013
 By www-data
2005 Hans Reichel, published by FontShop International for the FontFont library.
</metadata>
<defs>
<font id="DaxlineCyrTF-Light" horiz-adv-x="573" >
  <font-face 
    font-family="DaxlineCyrTF-Light"
    font-weight="400"
    font-stretch="normal"
    units-per-em="1000"
    panose-1="2 0 5 3 6 0 0 2 0 4"
    ascent="800"
    descent="-200"
    x-height="539"
    cap-height="724"
    bbox="-297.998 -225.001 1214 955"
    underline-thickness="48"
    underline-position="-95"
    unicode-range="U+0020-U+22C5"
  />
<missing-glyph horiz-adv-x="500" 
d="M0 700h500v-700h-500v700zM420 650h-340l170 -255zM450 95v510l-170 -255zM420 50l-170 255l-170 -255h340zM50 95l170 255l-170 255v-510z" />
    <glyph glyph-name=".notdef" horiz-adv-x="500" 
d="M0 700h500v-700h-500v700zM420 650h-340l170 -255zM450 95v510l-170 -255zM420 50l-170 255l-170 -255h340zM50 95l170 255l-170 255v-510z" />
    <glyph glyph-name="space" unicode=" " horiz-adv-x="282" 
 />
    <glyph glyph-name="exclam" unicode="!" horiz-adv-x="266" 
d="M159 224h-51l-9 500h69zM178 39c0 -12.667 -4.33301 -23.334 -13 -32.001s-19.334 -13 -32.001 -13s-23.334 4.33301 -32.001 13s-13 19.334 -13 32.001s4.33301 23.334 13 32.001s19.334 13 32.001 13s23.334 -4.33301 32.001 -13s13 -19.334 13 -32.001z" />
    <glyph glyph-name="quotedbl" unicode="&#x22;" horiz-adv-x="430" 
d="M335 415h-39.999l-12 299c7.33301 11.333 18 17 32 17c13.333 0 23.666 -5.66699 30.999 -17zM136.001 415h-40l-12 299c7.33301 11.333 18 17 32 17s24.667 -5.66699 32 -17z" />
    <glyph glyph-name="numbersign" unicode="#" horiz-adv-x="767" 
d="M547 469l-29 -206h133v-44h-140l-31 -219h-50l31 219h-199l-31 -219h-50l31 219h-134v44h141l29 206h-134v44h141l30 211h50l-30 -211h199l30 211h50l-30 -211h133v-44h-140zM298 469l-29 -206h199l29 206h-199z" />
    <glyph glyph-name="dollar" unicode="$" horiz-adv-x="589" 
d="M508 188c0 -29.333 -5.49805 -55.4941 -16.498 -78.4941s-26.333 -42.833 -46 -59.5s-43 -29.834 -70 -39.501s-56.833 -15.834 -89.5 -18.501l2 -151h-56l12 149c-27.333 1.33301 -56.833 5.16602 -88.5 11.499s-58.834 14.833 -81.501 25.5l24 52
c9.33301 -4.66699 20.5 -9 33.5 -13s26.5 -7.66699 40.5 -11s28.167 -6 42.5 -8s27.166 -3 38.499 -3c59.333 0 106.166 12 140.499 36s51.5 59.333 51.5 106c0 22 -4.5 40.833 -13.5 56.5s-21 29.5 -36 41.5s-32 22.5 -51 31.5s-38.5 17.5 -58.5 25.5
c-25.333 10 -50 21.167 -74 33.5s-45.667 26.666 -65 42.999s-34.833 35.166 -46.5 56.499s-17.5 46.333 -17.5 75c0 26.667 4.83301 50.834 14.5 72.501s23.334 40.167 41.001 55.5s38.5 27.666 62.5 36.999s50.333 15.333 79 18l-2 144h55l-12 -142
c30 -0.666992 58.833 -4.66699 86.5 -12s50.167 -15.666 67.5 -24.999l-22 -50c-15.333 8.66699 -35.666 16.5 -60.999 23.5s-51.666 10.5 -78.999 10.5c-52 0 -93.167 -11.167 -123.5 -33.5s-45.5 -54.5 -45.5 -96.5c0 -21.333 5 -40 15 -56s23 -30.167 39 -42.5
s34.167 -23.333 54.5 -33s40.5 -18.5 60.5 -26.5c23.333 -9.33301 46.666 -19.833 69.999 -31.5s44.166 -25.334 62.499 -41.001s33.333 -34.334 45 -56.001s17.5 -47.167 17.5 -76.5z" />
    <glyph glyph-name="percent" unicode="%" horiz-adv-x="957" 
d="M882 215c0 -33.333 -3.16699 -63.833 -9.5 -91.5s-16 -51.334 -29 -71.001s-29 -35 -48 -46s-40.833 -16.5 -65.5 -16.5c-25.333 0 -47.333 5.5 -66 16.5s-34.334 26.333 -47.001 46s-22.167 43.334 -28.5 71.001s-9.5 58.167 -9.5 91.5s3.16699 63.833 9.5 91.5
s15.833 51.334 28.5 71.001s28.334 35 47.001 46s40.667 16.5 66 16.5c24.667 0 46.5 -5.5 65.5 -16.5s35 -26.333 48 -46s22.667 -43.334 29 -71.001s9.5 -58.167 9.5 -91.5zM367 -8l-45 15l268 725l45 -15zM378 509c0 -33.333 -3.16699 -63.833 -9.5 -91.5
s-16 -51.334 -29 -71.001s-29 -35 -48 -46s-40.833 -16.5 -65.5 -16.5c-25.333 0 -47.333 5.5 -66 16.5s-34.5 26.333 -47.5 46s-22.667 43.334 -29 71.001s-9.5 58.167 -9.5 91.5s3.16699 63.833 9.5 91.5s16 51.334 29 71.001s28.833 35 47.5 46s40.667 16.5 66 16.5
c24.667 0 46.5 -5.5 65.5 -16.5s35 -26.333 48 -46s22.667 -43.334 29 -71.001s9.5 -58.167 9.5 -91.5zM830 215c0 54 -8.33301 97.5 -25 130.5s-41.667 49.5 -75 49.5s-58.166 -16.5 -74.499 -49.5s-24.5 -76.5 -24.5 -130.5s8.16699 -97.333 24.5 -130
s41.166 -49 74.499 -49s58.333 16.333 75 49s25 76 25 130zM326 509c0 54 -8.33301 97.5 -25 130.5s-41.667 49.5 -75 49.5s-58.166 -16.5 -74.499 -49.5s-24.5 -76.5 -24.5 -130.5s8.16699 -97.333 24.5 -130s41.166 -49 74.499 -49s58.333 16.333 75 49s25 76 25 130z" />
    <glyph glyph-name="ampersand" unicode="&#x26;" horiz-adv-x="716" 
d="M540 402v-375.002c-21.333 -9.33301 -50.5 -17.833 -87.5 -25.5s-75.5 -11.5 -115.5 -11.5c-42 0 -80.167 3.66699 -114.5 11s-63.5 19 -87.5 35s-42.5 36.333 -55.5 61s-19.5 54.334 -19.5 89.001c0 54 16 97.333 48 130s73.667 56.334 125 71.001v2
c-24.667 6 -45.667 14.333 -63 25s-31.666 23.167 -42.999 37.5s-19.666 30 -24.999 47s-8 35.167 -8 54.5c0 56.667 19.5 101 58.5 133s92.833 48 161.5 48c29.333 0 58.166 -3.5 86.499 -10.5s52.5 -15.833 72.5 -26.5l-21 -48
c-16.667 9.33301 -37.334 17.166 -62.001 23.499s-48.667 9.5 -72 9.5c-50.667 0 -90.834 -10.833 -120.501 -32.5s-44.5 -54.5 -44.5 -98.5c0 -20 3.83301 -38.333 11.5 -55s18.167 -30.667 31.5 -42s29 -20.166 47 -26.499s37.667 -9.5 59 -9.5
c10.667 0 23.334 0.333008 38.001 1s31.667 2.66699 51 6l277 48l8 -49zM481 390.998l-164 -26c-131.333 -20.667 -197 -79.334 -197 -176.001c0 -27.333 5.16699 -50.333 15.5 -69s25 -34 44 -46s41.833 -20.667 68.5 -26s56.667 -8 90 -8c12.667 0 26 0.666992 40 2
s27.333 3 40 5s24.5 4.33301 35.5 7s20.167 5.33398 27.5 8.00098v329z" />
    <glyph glyph-name="quotesingle" unicode="'" horiz-adv-x="232" 
d="M136 415h-40l-12 299c7.33301 11.333 18 17 32 17s24.667 -5.66699 32 -17z" />
    <glyph glyph-name="parenleft" unicode="(" horiz-adv-x="360" 
d="M273 -214c-27.333 34.667 -53.166 71 -77.499 109s-45.5 78 -63.5 120s-32.333 86.167 -43 132.5s-16 95.833 -16 148.5s5.33301 102.167 16 148.5s25 90.5 43 132.5s39.167 81.833 63.5 119.5s50.166 74.167 77.499 109.5l45 -30c-24 -32 -47 -65.667 -69 -101
s-41.333 -73 -58 -113s-30 -82.167 -40 -126.5s-15 -90.833 -15 -139.5c0 -49.333 5 -96 15 -140s23.333 -86 40 -126s36 -77.667 58 -113s45 -69 69 -101z" />
    <glyph glyph-name="parenright" unicode=")" horiz-adv-x="360" 
d="M287 296c0 -52.667 -5.33301 -102.167 -16 -148.5s-25 -90.5 -43 -132.5s-39.167 -82 -63.5 -120s-50.166 -74.333 -77.499 -109l-45 30c24 32 47 65.667 69 101s41.333 73 58 113s30 82 40 126s15 90.667 15 140c0 48.667 -5 95.167 -15 139.5s-23.333 86.5 -40 126.5
s-36 77.667 -58 113s-45 69 -69 101l45 30c27.333 -35.333 53.166 -71.833 77.499 -109.5s45.5 -77.5 63.5 -119.5s32.333 -86.167 43 -132.5s16 -95.833 16 -148.5z" />
    <glyph glyph-name="asterisk" unicode="*" horiz-adv-x="596" 
d="M530 620c0 -7.33301 -1.66602 -13.998 -4.99902 -19.998l-190 -53l121 -153c-0.666992 -9.33301 -4.5 -17.5 -11.5 -24.5s-15.167 -10.5 -24.5 -10.5c-4.66699 0 -8.33398 0.333008 -11.001 1l-106 162l-107 -162c-2.66699 -0.666992 -6 -1 -10 -1
c-9.33301 0 -17.5 3.5 -24.5 10.5s-10.833 15.167 -11.5 24.5l121 153l-190 53c-4 6.66699 -6 13.334 -6 20.001c0 7.33301 2.16699 13.666 6.5 18.999s9.83301 9.66602 16.5 12.999l183 -67l-7 197c8 9.33301 17.667 14 29 14s21 -4.66699 29 -14l-7 -197l183 67
c14.667 -6.66699 22 -17.334 22 -32.001z" />
    <glyph glyph-name="plus" unicode="+" 
d="M314 300v-189h-54v189h-184v50h184v189h54v-189h183v-50h-183z" />
    <glyph glyph-name="comma" unicode="," horiz-adv-x="244" 
d="M62 -169h-46.001l84 231c4.66699 6.66699 10.334 12 17.001 16s14.667 6 24 6s16.333 -2.16699 21 -6.5s7.66699 -9.5 9 -15.5z" />
    <glyph glyph-name="hyphen" unicode="-" horiz-adv-x="416" 
d="M75 297v56h266v-56h-266z" />
    <glyph glyph-name="period" unicode="." horiz-adv-x="244" 
d="M167 39c0 -12.667 -4.33301 -23.334 -13 -32.001s-19.334 -13 -32.001 -13s-23.334 4.33301 -32.001 13s-13 19.334 -13 32.001s4.33301 23.334 13 32.001s19.334 13 32.001 13s23.334 -4.33301 32.001 -13s13 -19.334 13 -32.001z" />
    <glyph glyph-name="slash" unicode="/" horiz-adv-x="449" 
d="M65 -193l-56 19l339 969l55 -19z" />
    <glyph glyph-name="zero" unicode="0" horiz-adv-x="584" 
d="M519 362c0 -49.333 -4.16699 -96.5 -12.5 -141.5s-21.666 -84.5 -39.999 -118.5s-41.833 -61.167 -70.5 -81.5s-63.334 -30.5 -104.001 -30.5s-75.334 10.167 -104.001 30.5s-52.167 47.5 -70.5 81.5s-31.666 73.5 -39.999 118.5s-12.5 92.167 -12.5 141.5
s4.16699 96.5 12.5 141.5s21.666 84.5 39.999 118.5s41.833 61.167 70.5 81.5s63.334 30.5 104.001 30.5s75.334 -10.167 104.001 -30.5s52.167 -47.5 70.5 -81.5s31.666 -73.5 39.999 -118.5s12.5 -92.167 12.5 -141.5zM459 362c0 42.667 -3 83.334 -9 122.001
s-15.667 72.834 -29 102.501s-30.666 53.334 -51.999 71.001s-47 26.5 -77 26.5s-55.667 -8.83301 -77 -26.5s-38.666 -41.334 -51.999 -71.001s-23 -63.834 -29 -102.501s-9 -79.334 -9 -122.001s3 -83.334 9 -122.001s15.667 -72.834 29 -102.501
s30.666 -53.167 51.999 -70.5s47 -26 77 -26s55.667 8.66699 77 26s38.666 40.833 51.999 70.5s23 63.834 29 102.501s9 79.334 9 122.001z" />
    <glyph glyph-name="one" unicode="1" horiz-adv-x="584" 
d="M330 0l-0.00195312 646.997c-12 -9.33301 -26.5 -18.166 -43.5 -26.499s-35.167 -16.166 -54.5 -23.499s-39.666 -14 -60.999 -20s-42.333 -11 -63 -15l-10 49c22.667 4 45.5 9.33301 68.5 16s45.333 14.834 67 24.501s41.834 20.5 60.501 32.5s35 25.333 49 40h48v-724
h-61z" />
    <glyph glyph-name="two" unicode="2" horiz-adv-x="584" 
d="M26 0l308.001 352.997l33.5 40.5c11 13.667 20.667 28 29 43s15.166 30.5 20.499 46.5s8 32.667 8 50c0 46.667 -16.167 83.334 -48.5 110.001s-78.5 40 -138.5 40c-25.333 0 -51.833 -3.16699 -79.5 -9.5s-52.167 -14.166 -73.5 -23.499l-23 47
c25.333 11.333 53.333 20.333 84 27s62 10 94 10c77.333 0 137.833 -17.833 181.5 -53.5s65.5 -84.167 65.5 -145.5c0 -21.333 -3.16699 -41.666 -9.5 -60.999s-14.666 -37.833 -24.999 -55.5s-21.833 -34.667 -34.5 -51s-25.334 -31.5 -38.001 -45.5l-243 -270h368v-52
h-479z" />
    <glyph glyph-name="three" unicode="3" horiz-adv-x="584" 
d="M495 202c0 -32 -5.99902 -61.002 -17.999 -87.002s-29.167 -48.167 -51.5 -66.5s-49.333 -32.666 -81 -42.999s-67.5 -15.5 -107.5 -15.5c-33.333 0 -66.333 3.33301 -99 10s-61.667 15.667 -87 27l21 49c20.667 -9.33301 45.667 -17.333 75 -24s59 -10 89 -10
s57.167 3.66699 81.5 11s45.166 18 62.499 32s30.833 30.833 40.5 50.5s14.5 41.834 14.5 66.501c0 26.667 -6.16699 50.167 -18.5 70.5s-29 37 -50 50s-45.667 22.833 -74 29.5s-58.833 10 -91.5 10h-23v46c30 2 58.667 7 86 15s51.333 18.667 72 32s37 29 49 47
s18 38 18 60c0 40 -14.5 70.167 -43.5 90.5s-67.5 30.5 -115.5 30.5c-25.333 0 -51.666 -3 -78.999 -9s-52 -14 -74 -24l-22 47c24 11.333 51.5 20.333 82.5 27s63.167 10 96.5 10c66.667 0 119.167 -15.167 157.5 -45.5s57.5 -71.833 57.5 -124.5
c0 -22.667 -4.83301 -43.167 -14.5 -61.5s-22 -34.666 -37 -48.999s-31.833 -26.333 -50.5 -36s-37 -16.834 -55 -21.501v-2c19.333 -3.33301 40.166 -9.16602 62.499 -17.499s42.833 -20 61.5 -35s34.167 -33.833 46.5 -56.5s18.5 -50.334 18.5 -83.001z" />
    <glyph glyph-name="four" unicode="4" horiz-adv-x="584" 
d="M447 192v-192h-56v192h-341v46l331 486h66v-487h83v-45h-83zM393 669c-4 -8.66699 -8.66797 -17.666 -14.001 -26.999l-16 -26.5l-19 -29.5l-237 -349h285v371c0 11.333 0.333008 21.666 1 30.999c0.666992 10.667 1.33398 20.667 2.00098 30h-2z" />
    <glyph glyph-name="five" unicode="5" horiz-adv-x="584" 
d="M499 209c0 -33.333 -6.33301 -63.334 -19 -90.001s-30.5 -49.667 -53.5 -69s-50.5 -34.166 -82.5 -44.499s-67.333 -15.5 -106 -15.5c-32.667 0 -65.167 3.33301 -97.5 10s-60.833 15.667 -85.5 27l21 49c21.333 -10 46.5 -18.167 75.5 -24.5s57.5 -9.5 85.5 -9.5
c30 0 57.333 3.83301 82 11.5s46 18.667 64 33s31.833 31.833 41.5 52.5s14.5 43.667 14.5 69c0 26.667 -4.5 50.667 -13.5 72s-23 39.5 -42 54.5s-43.167 26.5 -72.5 34.5s-64.666 12 -105.999 12c-16 0 -33 -0.666992 -51 -2s-37 -3.33301 -57 -6l39 351h351v-52h-299
l-28 -246c22.667 2 44.667 3 66 3c87.333 0 154.666 -19 201.999 -57s71 -92.333 71 -163z" />
    <glyph glyph-name="six" unicode="6" horiz-adv-x="584" 
d="M523 211c0 -29.333 -5.5 -57.1689 -16.5 -83.502s-26.333 -49.833 -46 -70.5s-43.334 -37 -71.001 -49s-58.5 -18 -92.5 -18c-38.667 0 -72.5 7.16699 -101.5 21.5s-53.167 33.666 -72.5 57.999s-33.833 52.833 -43.5 85.5s-14.5 67.334 -14.5 104.001
c0 48.667 8.16699 97.5 24.5 146.5s40.5 95 72.5 138s71.333 81.167 118 114.5s100.334 58.666 161.001 75.999l18 -50c-41.333 -12 -78.833 -27.833 -112.5 -47.5s-63.5 -42.167 -89.5 -67.5s-48.167 -52.666 -66.5 -81.999s-32.833 -59.666 -43.5 -90.999
c18 8.66699 39.833 15.834 65.5 21.501s50.167 8.5 73.5 8.5c34.667 0 66.5 -4.66699 95.5 -14s54 -23.166 75 -41.499s37.333 -40.833 49 -67.5s17.5 -57.334 17.5 -92.001zM463 209.997c0 28 -4.50781 52.502 -13.5078 73.502s-21.667 38.667 -38 53
s-35.666 25 -57.999 32s-46.5 10.5 -72.5 10.5c-11.333 0 -23.666 -1 -36.999 -3s-26.666 -4.5 -39.999 -7.5s-26.166 -6.5 -38.499 -10.5s-23.166 -8.33301 -32.499 -13c-3.33301 -14.667 -5.83301 -29.167 -7.5 -43.5s-2.5 -28.5 -2.5 -42.5
c0 -30.667 3.66699 -59.334 11 -86.001s18.333 -49.834 33 -69.501s32.834 -35.167 54.501 -46.5s46.834 -17 75.501 -17c24.667 0 47.334 4.66699 68.001 14s38.167 21.833 52.5 37.5s25.5 33.667 33.5 54s12 41.833 12 64.5z" />
    <glyph glyph-name="seven" unicode="7" horiz-adv-x="584" 
d="M187 0h-68l327 672h-393v52h479z" />
    <glyph glyph-name="eight" unicode="8" horiz-adv-x="584" 
d="M521 172c0 -28 -5.66797 -53.167 -17.001 -75.5s-27.333 -41.333 -48 -57s-45 -27.834 -73 -36.501s-58.333 -13 -91 -13c-33.333 0 -63.833 4.16699 -91.5 12.5s-51.834 20.5 -72.501 36.5s-36.667 35.167 -48 57.5s-17 47.5 -17 75.5s5 52.5 15 73.5
s23.167 39.5 39.5 55.5s35 30 56 42s42.5 23 64.5 33c-20 8.66699 -39.333 18.667 -58 30s-35.167 24.5 -49.5 39.5s-25.666 32 -33.999 51s-12.5 40.5 -12.5 64.5c0 25.333 5 48.5 15 69.5s24 39.167 42 54.5s39.833 27.333 65.5 36s54.167 13 85.5 13
s59.833 -4.33301 85.5 -13s47.5 -20.667 65.5 -36s32 -33.666 42 -54.999s15 -44.333 15 -69c0 -24 -4.16699 -45.5 -12.5 -64.5s-19.666 -36 -33.999 -51s-30.833 -28.167 -49.5 -39.5s-38 -21.333 -58 -30c22 -10 43.5 -21 64.5 -33s39.667 -26 56 -42
s29.5 -34.5 39.5 -55.5s15 -45.5 15 -73.5zM441.999 561c0 36 -13.1689 66 -39.502 90s-63.166 36 -110.499 36s-84.166 -12 -110.499 -36s-39.5 -54 -39.5 -90c0 -20.667 4.16699 -39 12.5 -55s19.333 -30.333 33 -43s29.5 -24 47.5 -34s37 -19.333 57 -28
c20 8.66699 39 18 57 28s33.833 21.333 47.5 34s24.667 27 33 43s12.5 34.333 12.5 55zM461.997 173c0 24 -4.66504 45 -13.998 63s-21.833 34 -37.5 48s-33.834 26.333 -54.501 37s-42 20.667 -64 30c-22 -9.33301 -43.333 -19.333 -64 -30s-38.834 -23 -54.501 -37
s-28.167 -30 -37.5 -48s-14 -39 -14 -63c0 -20.667 4.16699 -39.334 12.5 -56.001s20 -30.834 35 -42.501s32.833 -20.667 53.5 -27s43.667 -9.5 69 -9.5c24.667 0 47.5 3.16699 68.5 9.5s39 15.333 54 27s26.667 25.834 35 42.501s12.5 35.334 12.5 56.001z" />
    <glyph glyph-name="nine" unicode="9" horiz-adv-x="584" 
d="M519 465c0 -48.667 -8.16699 -97.5 -24.5 -146.5s-40.5 -95 -72.5 -138s-71.333 -81.167 -118 -114.5s-100.334 -58.666 -161.001 -75.999l-18 50c41.333 12 78.833 27.833 112.5 47.5s63.5 42.167 89.5 67.5s48.167 52.666 66.5 81.999s32.833 59.666 43.5 90.999
c-18 -8.66699 -39.833 -15.834 -65.5 -21.501s-50.167 -8.5 -73.5 -8.5c-34.667 0 -66.5 4.66699 -95.5 14s-54 23.166 -75 41.499s-37.333 40.833 -49 67.5s-17.5 57.334 -17.5 92.001c0 28.667 5.5 56.334 16.5 83.001s26.333 50.334 46 71.001s43.334 37 71.001 49
s58.5 18 92.5 18c38.667 0 72.5 -7.16699 101.5 -21.5s53.167 -33.666 72.5 -57.999s33.833 -52.833 43.5 -85.5s14.5 -67.334 14.5 -104.001zM461 465c0 30.667 -3.66211 59.332 -10.9951 85.999s-18.333 49.834 -33 69.501s-32.834 35.167 -54.501 46.5
s-46.834 17 -75.501 17c-25.333 0 -48.166 -4.66699 -68.499 -14s-37.666 -21.833 -51.999 -37.5s-25.5 -33.667 -33.5 -54s-12 -41.833 -12 -64.5c0 -28 4.5 -52.5 13.5 -73.5s21.667 -38.5 38 -52.5s35.666 -24.5 57.999 -31.5s46.5 -10.5 72.5 -10.5
c11.333 0 23.666 0.833008 36.999 2.5s26.666 4 39.999 7s26.166 6.5 38.499 10.5s23.166 8.33301 32.499 13c3.33301 14.667 5.83301 29.167 7.5 43.5s2.5 28.5 2.5 42.5z" />
    <glyph glyph-name="colon" unicode=":" horiz-adv-x="272" 
d="M181 361c0 -12.667 -4.33301 -23.334 -13 -32.001s-19.334 -13 -32.001 -13s-23.334 4.33301 -32.001 13s-13 19.334 -13 32.001s4.33301 23.334 13 32.001s19.334 13 32.001 13s23.334 -4.33301 32.001 -13s13 -19.334 13 -32.001zM181 39
c0 -12.667 -4.33301 -23.334 -13 -32.001s-19.334 -13 -32.001 -13s-23.334 4.33301 -32.001 13s-13 19.334 -13 32.001s4.33301 23.334 13 32.001s19.334 13 32.001 13s23.334 -4.33301 32.001 -13s13 -19.334 13 -32.001z" />
    <glyph glyph-name="semicolon" unicode=";" horiz-adv-x="272" 
d="M182 361c0 -12.667 -4.33301 -23.334 -13 -32.001s-19.334 -13 -32.001 -13s-23.334 4.33301 -32.001 13s-13 19.334 -13 32.001s4.33301 23.334 13 32.001s19.334 13 32.001 13s23.334 -4.33301 32.001 -13s13 -19.334 13 -32.001zM74 -169h-46.001l84 231
c4.66699 6.66699 10.334 12 17.001 16s14.667 6 24 6s16.5 -2.16699 21.5 -6.5s8.16699 -9.5 9.5 -15.5z" />
    <glyph glyph-name="less" unicode="&#x3c;" 
d="M76 304v42l421 207v-59l-361 -169l361 -169v-59z" />
    <glyph glyph-name="equal" unicode="=" 
d="M76 397v51h421v-51h-421zM76 202v51h421v-51h-421z" />
    <glyph glyph-name="greater" unicode="&#x3e;" 
d="M76 97v59l362 169l-362 169v59l421 -207v-42z" />
    <glyph glyph-name="question" unicode="?" horiz-adv-x="467" 
d="M415 556c0 -25.333 -5.50098 -48.332 -16.501 -68.999s-25 -39 -42 -55s-35.667 -29.667 -56 -41s-39.833 -20 -58.5 -26l-4 -141h-50l-5 174c20.667 5.33301 41.167 12.666 61.5 21.999s38.5 20.5 54.5 33.5s28.833 28 38.5 45s14.5 35.5 14.5 55.5
c0 40 -12.833 71.333 -38.5 94s-63.834 34 -114.501 34c-25.333 0 -51.166 -3 -77.499 -9s-48.166 -13.667 -65.499 -23l-22 47c20 10.667 45.333 19.5 76 26.5s61.667 10.5 93 10.5c68.667 0 121.167 -16.167 157.5 -48.5s54.5 -75.5 54.5 -129.5zM257.999 39.001
c0 -12.667 -4.33301 -23.334 -13 -32.001s-19.334 -13 -32.001 -13s-23.334 4.33301 -32.001 13s-13 19.334 -13 32.001s4.33301 23.334 13 32.001s19.334 13 32.001 13s23.334 -4.33301 32.001 -13s13 -19.334 13 -32.001z" />
    <glyph glyph-name="at" unicode="@" horiz-adv-x="1035" 
d="M969 335c0 -59.333 -9.00293 -110.667 -27.0029 -154s-42.833 -79.166 -74.5 -107.499s-68.834 -49.333 -111.501 -63s-88.667 -20.5 -138 -20.5c-96.667 0 -171.667 23.167 -225 69.5s-80 114.166 -80 203.499c0 40 5.5 76 16.5 108s26.833 59.333 47.5 82
s45.5 40.167 74.5 52.5s61.167 18.5 96.5 18.5c36 0 66.167 -5 90.5 -15s43.833 -21 58.5 -33v-431c68.667 14.667 122 45.667 160 93s57 113 57 197c0 46 -7 90.167 -21 132.5s-36 79.666 -66 111.999s-68.333 58.166 -115 77.499s-103 29 -169 29
c-66.667 0 -126.167 -11.333 -178.5 -34s-96.5 -53.667 -132.5 -93s-63.5 -85.166 -82.5 -137.499s-28.5 -108.5 -28.5 -168.5c0 -59.333 9.66699 -115.166 29 -167.499s48.666 -98 87.999 -137s88.833 -69.667 148.5 -92s129.834 -33.5 210.501 -33.5
c66.667 0 126.334 8.83301 179.001 26.5s97 39.167 133 64.5l27 -41c-38.667 -28 -85.834 -51.333 -141.501 -70s-121.5 -28 -197.5 -28c-88 0 -165.167 12.5 -231.5 37.5s-121.666 59 -165.999 102s-77.666 93.667 -99.999 152s-33.5 120.5 -33.5 186.5
s10.833 128.167 32.5 186.5s53 109.333 94 153s91 78.167 150 103.5s125.833 38 200.5 38c74 0 137.833 -11 191.5 -33s97.834 -51.5 132.501 -88.5s60.334 -79.5 77.001 -127.5s25 -98 25 -150zM642.997 452.999c-8.66699 5.33301 -21.833 10.668 -39.5 16.001
s-36.5 8 -56.5 8c-54.667 0 -98.167 -18.833 -130.5 -56.5s-48.5 -90.167 -48.5 -157.5c0 -76.667 22.167 -133.334 66.5 -170.001s104.833 -55 181.5 -55h18c2.66699 0 5.66699 0.333008 9 1v414z" />
    <glyph glyph-name="A" unicode="A" horiz-adv-x="653" 
d="M562 0l-83 231h-305l-83 -231h-64l265 724h69l265 -724h-64zM351 592c-3.33301 9.33301 -6.5 18.833 -9.5 28.5s-5.5 18.5 -7.5 26.5c-2.66699 9.33301 -5 18.333 -7 27h-2c-2 -8.66699 -4.33301 -17.667 -7 -27c-2 -8 -4.33301 -16.833 -7 -26.5
s-5.66699 -19.167 -9 -28.5l-112 -313h273z" />
    <glyph glyph-name="B" unicode="B" horiz-adv-x="603" 
d="M546 190c0 -62.667 -23.335 -111.666 -70.002 -146.999s-112 -53 -196 -53c-16.667 0 -34 1 -52 3s-35.667 4.66699 -53 8s-33.666 7.16602 -48.999 11.499s-28.333 9.16602 -39 14.499v670c22.667 10.667 50.667 19.5 84 26.5s68.333 10.5 105 10.5
c78.667 0 138.834 -16.833 180.501 -50.5s62.5 -78.167 62.5 -133.5c0 -25.333 -4 -47.666 -12 -66.999s-18.167 -36 -30.5 -50s-26 -25.5 -41 -34.5s-29.5 -15.167 -43.5 -18.5v-2c16 -3.33301 33 -9.33301 51 -18s34.667 -20.5 50 -35.5s28 -33.5 38 -55.5
s15 -48.333 15 -79zM459.998 547.001c0 43.333 -16.333 77 -49 101s-77.667 36 -135 36c-25.333 0 -49.666 -2 -72.999 -6s-42.333 -9 -57 -15v-265h113c19.333 0 36 0.5 50 1.5s26.5 2.66699 37.5 5s21.167 5.5 30.5 9.5s18.666 9.33301 27.999 16
c16.667 11.333 30 27.5 40 48.5s15 43.833 15 68.5zM484.998 192.001c0 62 -25.667 106 -77 132c-10 4.66699 -19.667 8.66699 -29 12s-19.5 6 -30.5 8s-23.333 3.5 -37 4.5s-29.5 1.5 -47.5 1.5h-118v-289c16 -6 36.5 -11 61.5 -15s49.167 -6 72.5 -6
c65.333 0 115.833 13.333 151.5 40s53.5 64 53.5 112z" />
    <glyph glyph-name="C" unicode="C" horiz-adv-x="548" 
d="M496 27c-16 -11.333 -37.333 -20.3359 -64 -27.0029s-56.334 -10 -89.001 -10c-38 0 -74 7.5 -108 22.5s-63.833 37.833 -89.5 68.5s-46 69.334 -61 116.001s-22.5 101.667 -22.5 165s7.5 118.333 22.5 165s35.333 85.334 61 116.001s55.5 53.5 89.5 68.5
s70 22.5 108 22.5c32.667 0 62.334 -3.33301 89.001 -10s48 -15.667 64 -27l-21 -50c-12.667 8.66699 -30.167 16.334 -52.5 23.001s-47.5 10 -75.5 10c-30 0 -58.5 -6.33301 -85.5 -19s-50.5 -32 -70.5 -58s-36 -59 -48 -99s-18 -87.333 -18 -142
c0 -55.333 6 -102.833 18 -142.5s28 -72.5 48 -98.5s43.5 -45.167 70.5 -57.5s55.5 -18.5 85.5 -18.5c28 0 53.167 3.16699 75.5 9.5s39.833 13.833 52.5 22.5z" />
    <glyph glyph-name="D" unicode="D" horiz-adv-x="638" 
d="M577 362c0 -63.333 -8 -118.166 -24 -164.499s-38 -85 -66 -116s-60.833 -54 -98.5 -69s-77.834 -22.5 -120.501 -22.5c-38 0 -73.333 3.66699 -106 11s-58.334 16 -77.001 26v670c22 11.333 48.833 20.333 80.5 27s65.834 10 102.501 10
c42.667 0 82.834 -7.5 120.501 -22.5s70.5 -38 98.5 -69s50 -69.833 66 -116.5s24 -101.334 24 -164.001zM515 362c0 55.333 -6.50098 103.168 -19.501 143.501s-30.667 73.5 -53 99.5s-48.5 45.167 -78.5 57.5s-61.667 18.5 -95 18.5c-24 0 -47.167 -1.83301 -69.5 -5.5
s-40.166 -8.5 -53.499 -14.5v-598c11.333 -5.33301 28 -10 50 -14s46.333 -6 73 -6c33.333 0 65 6.16699 95 18.5s56.167 31.5 78.5 57.5s40 59.167 53 99.5s19.5 88.166 19.5 143.499z" />
    <glyph glyph-name="E" unicode="E" horiz-adv-x="507" 
d="M85 0v724h370v-53h-310v-270h287v-53h-287v-295h310v-53h-370z" />
    <glyph glyph-name="F" unicode="F" horiz-adv-x="492" 
d="M145 671v-270h279v-53h-279v-348h-60v724h361v-53h-301z" />
    <glyph glyph-name="G" unicode="G" horiz-adv-x="647" 
d="M566 27c-17.333 -10 -42.1621 -18.665 -74.4951 -25.998s-70.5 -11 -114.5 -11c-43.333 0 -84 7.66699 -122 23s-71.333 38.5 -100 69.5s-51.334 69.833 -68.001 116.5s-25 101 -25 163s8.5 116.333 25.5 163s40 85.5 69 116.5s62.667 54.167 101 69.5
s79.166 23 122.499 23c36 0 69.167 -3.33301 99.5 -10s54.166 -15.667 71.499 -27l-22 -49c-14.667 9.33301 -35 17.166 -61 23.499s-55 9.5 -87 9.5c-34 0 -66.5 -6.33301 -97.5 -19s-58.5 -32 -82.5 -58s-43 -59.167 -57 -99.5s-21 -87.833 -21 -142.5
c0 -55.333 7 -103 21 -143s32.5 -73 55.5 -99s49.667 -45.333 80 -58s62.166 -19 95.499 -19c30 0 57.167 2.16699 81.5 6.5s41.166 9.16602 50.499 14.499v286h-174v51h233v-374z" />
    <glyph glyph-name="H" unicode="H" horiz-adv-x="639" 
d="M493 0v348h-347v-348h-61v724h61v-323h347v323h61v-724h-61z" />
    <glyph glyph-name="I" unicode="I" horiz-adv-x="235" 
d="M87 0v724h61v-724h-61z" />
    <glyph glyph-name="J" unicode="J" horiz-adv-x="235" 
d="M148 80c0 -44 -5 -82.834 -15 -116.501s-24.5 -62.5 -43.5 -86.5s-42 -43.833 -69 -59.5s-57.5 -27.5 -91.5 -35.5v55c24.667 8 46.667 18.5 66 31.5s35.833 29.333 49.5 49s24.167 42.834 31.5 69.501s11 57.667 11 93v644h61v-644z" />
    <glyph glyph-name="K" unicode="K" horiz-adv-x="561" 
d="M468 0l-318 376h-2v-376h-61v724h61v-338h2l311 338h74l-316 -343l323 -381h-74z" />
    <glyph glyph-name="L" unicode="L" horiz-adv-x="478" 
d="M87 0v724h61v-671h294v-53h-355z" />
    <glyph glyph-name="M" unicode="M" horiz-adv-x="867" 
d="M749 0l-76.999 580.001c-1.33301 9.33301 -2.5 19.166 -3.5 29.499s-1.83301 19.5 -2.5 27.5l-2 27h-2c-2 -8.66699 -4.33301 -17.667 -7 -27l-6.5 -27c-2.33301 -10 -5.16602 -19.667 -8.49902 -29l-180 -581h-53l-180 581c-6.66699 20 -12 38.667 -16 56
c-2.66699 9.33301 -4.66699 18.333 -6 27h-2l-2 -28c-0.666992 -8 -1.5 -17 -2.5 -27s-2.16699 -19.667 -3.5 -29l-76 -580h-59l99 724h77l176 -563c3.33301 -10 6.16602 -20 8.49902 -30l6.5 -27c2.66699 -9.33301 4.66699 -18.666 6 -27.999h2
c1.33301 9.33301 3.33301 18.666 6 27.999l6.5 27c2.33301 10 5.16602 20 8.49902 30l175 563h77l99 -724h-58z" />
    <glyph glyph-name="N" unicode="N" horiz-adv-x="696" 
d="M546 0l-364.001 577l-16 27c-5.33301 9.33301 -9.66602 17.666 -12.999 24.999c-4.66699 8.66699 -8.66699 17 -12 25h-2c0 -9.33301 0.333008 -18.666 1 -27.999c0 -8.66699 0.166992 -18 0.5 -28s0.5 -20 0.5 -30v-568h-56v724h68l359 -568l15.5 -27l13.5 -24l13 -25h2
c-0.666992 8.66699 -1 18 -1 28v616h56v-724h-65z" />
    <glyph glyph-name="O" unicode="O" horiz-adv-x="676" 
d="M614 362c0 -51.333 -5.83301 -99.5 -17.5 -144.5s-29 -84.333 -52 -118s-51.833 -60.334 -86.5 -80.001s-74.667 -29.5 -120 -29.5s-85.333 9.83301 -120 29.5s-63.5 46.334 -86.5 80.001s-40.333 73 -52 118s-17.5 93.167 -17.5 144.5c0 50.667 5.83301 98.667 17.5 144
s29 84.833 52 118.5s51.833 60.334 86.5 80.001s74.667 29.5 120 29.5s85.333 -9.83301 120 -29.5s63.5 -46.334 86.5 -80.001s40.333 -73.167 52 -118.5s17.5 -93.333 17.5 -144zM553 362c0 44 -4.66699 85.167 -14 123.5s-23 72 -41 101s-40.333 51.833 -67 68.5
s-57.667 25 -93 25s-66.333 -8.33301 -93 -25s-49 -39.5 -67 -68.5s-31.667 -62.667 -41 -101s-14 -79.5 -14 -123.5s4.66699 -85.167 14 -123.5s23 -72 41 -101s40.333 -51.833 67 -68.5s57.667 -25 93 -25s66.333 8.33301 93 25s49 39.5 67 68.5s31.667 62.667 41 101
s14 79.5 14 123.5z" />
    <glyph glyph-name="P" unicode="P" horiz-adv-x="560" 
d="M515 519c0 -31.333 -5.99902 -60 -17.999 -86s-29.833 -48.5 -53.5 -67.5s-52.667 -33.833 -87 -44.5s-73.5 -16 -117.5 -16c-16.667 0 -33.5 0.666992 -50.5 2s-31.167 3 -42.5 5v-312h-61v697c23.333 11.333 50.666 20.333 81.999 27s64.333 10 99 10
c80 0 141.5 -19.167 184.5 -57.5s64.5 -90.833 64.5 -157.5zM454.001 519c0 53.333 -16.1689 94 -48.502 122s-78.833 42 -139.5 42c-24 0 -46.667 -1.83301 -68 -5.5s-38.666 -8.5 -51.999 -14.5v-300c11.333 -2 25.333 -3.66699 42 -5s33.334 -2 50.001 -2
c70 0 123.5 14.833 160.5 44.5s55.5 69.167 55.5 118.5z" />
    <glyph glyph-name="Q" unicode="Q" horiz-adv-x="676" 
d="M567 -183l-135 193c-28.667 -13.333 -60.667 -20 -96 -20c-45.333 0 -85.166 9.83301 -119.499 29.5s-63 46.334 -86 80.001s-40.167 73 -51.5 118s-17 93.167 -17 144.5c0 50.667 5.66699 98.667 17 144s28.5 84.833 51.5 118.5s51.667 60.334 86 80.001
s74.166 29.5 119.499 29.5s85.333 -9.83301 120 -29.5s63.667 -46.334 87 -80.001s41 -73.167 53 -118.5s18 -93.333 18 -144c0 -70.667 -11.167 -134.834 -33.5 -192.501s-55.5 -102.5 -99.5 -134.5l133 -181zM553 362c0 44 -4.66699 85.167 -14 123.5
s-23.166 72 -41.499 101s-41 51.833 -68 68.5s-58.167 25 -93.5 25s-66.333 -8.33301 -93 -25s-48.834 -39.5 -66.501 -68.5s-31 -62.667 -40 -101s-13.5 -79.5 -13.5 -123.5s4.5 -85.167 13.5 -123.5s22.333 -72 40 -101s39.834 -51.833 66.501 -68.5s57.667 -25 93 -25
s66.5 8.33301 93.5 25s49.667 39.5 68 68.5s32.166 62.667 41.499 101s14 79.5 14 123.5z" />
    <glyph glyph-name="R" unicode="R" horiz-adv-x="595" 
d="M487 0l-124.001 241.999c-14.667 28.667 -32.167 50.334 -52.5 65.001s-47.166 22 -80.499 22h-83v-329h-60v696c24 11.333 52.333 20.5 85 27.5s66 10.5 100 10.5c40.667 0 76.5 -5 107.5 -15s56.833 -23.833 77.5 -41.5s36.167 -38.5 46.5 -62.5s15.5 -50.333 15.5 -79
c0 -30 -4.33301 -56 -13 -78s-21 -40.667 -37 -56s-35 -27.5 -57 -36.5s-46 -15.5 -72 -19.5v-2c18 -8 33.833 -20.167 47.5 -36.5s26.167 -35.5 37.5 -57.5l129 -250h-67zM458.999 533.999c0 44.667 -15.332 80.834 -45.999 108.501s-77.334 41.5 -140.001 41.5
c-23.333 0 -46.5 -2 -69.5 -6s-41.833 -9 -56.5 -15v-285h103c32 0 60.833 2.66699 86.5 8s47.667 14.166 66 26.499s32.333 28.333 42 48s14.5 44.167 14.5 73.5z" />
    <glyph glyph-name="S" unicode="S" horiz-adv-x="522" 
d="M461 190c0 -31.333 -5.99609 -59.3301 -17.9961 -83.9971s-28.5 -45.667 -49.5 -63s-46.167 -30.5 -75.5 -39.5s-61.333 -13.5 -96 -13.5c-32.667 0 -63.834 3.33301 -93.501 10s-54.834 15.667 -75.501 27l23 53c16.667 -9.33301 38 -17.5 64 -24.5s53 -10.5 81 -10.5
c26 0 49.833 3.16699 71.5 9.5s40.334 15.666 56.001 27.999s28 27.333 37 45s13.5 38.167 13.5 61.5c0 20.667 -4.16699 38.667 -12.5 54s-19.5 28.833 -33.5 40.5s-29.833 22.167 -47.5 31.5s-35.834 18 -54.501 26c-24 10 -47.333 21 -70 33s-43 26 -61 42
s-32.5 34.5 -43.5 55.5s-16.5 45.833 -16.5 74.5c0 29.333 5.5 55.666 16.5 78.999s26.167 43 45.5 59s42.166 28.333 68.499 37s55.166 13 86.499 13c32 0 61.667 -3.5 89 -10.5s49 -15.833 65 -26.5l-23 -51c-14 8.66699 -32.833 16.5 -56.5 23.5s-48.167 10.5 -73.5 10.5
c-22.667 0 -43.667 -3 -63 -9s-36 -14.5 -50 -25.5s-24.833 -24.833 -32.5 -41.5s-11.5 -35.334 -11.5 -56.001s4.66699 -38.834 14 -54.501s21.5 -29.5 36.5 -41.5s31.833 -22.667 50.5 -32s37.667 -18 57 -26c22 -10 43.833 -20.667 65.5 -32s41.167 -24.833 58.5 -40.5
s31.333 -34.167 42 -55.5s16 -46.666 16 -75.999z" />
    <glyph glyph-name="T" unicode="T" horiz-adv-x="512" 
d="M287 671v-671h-61v671h-193v53h446v-53h-192z" />
    <glyph glyph-name="U" unicode="U" horiz-adv-x="628" 
d="M543 204c0 -33.333 -5.99609 -63.166 -17.9961 -89.499s-28.167 -48.833 -48.5 -67.5s-44.5 -32.834 -72.5 -42.501s-58 -14.5 -90 -14.5s-62 4.83301 -90 14.5s-52.167 23.834 -72.5 42.501s-36.5 41.167 -48.5 67.5s-18 56.166 -18 89.499v520h61v-520
c0 -25.333 4.33301 -47.833 13 -67.5s20.667 -36.334 36 -50.001s33.166 -24.167 53.499 -31.5s42.166 -11 65.499 -11s45.166 3.66699 65.499 11s38.166 17.833 53.499 31.5s27.333 30.334 36 50.001s13 42.167 13 67.5v520h61v-520z" />
    <glyph glyph-name="V" unicode="V" horiz-adv-x="610" 
d="M338 0h-66l-239 724h66l179 -566l9.5 -33.5l8.5 -30.5l8 -31h2l8 31l8.5 30.5l9.5 33.5l179 566h66z" />
    <glyph glyph-name="W" unicode="W" horiz-adv-x="906" 
d="M676 0h-64l-140 555c-3.33301 11.333 -6 22.5 -8 33.5s-3.66699 21.167 -5 30.5c-2 10.667 -3.66699 21 -5 31h-2c-1.33301 -10 -3 -20.333 -5 -31c-1.33301 -9.33301 -3.16602 -19.5 -5.49902 -30.5s-4.83301 -22.167 -7.5 -33.5l-140 -555h-64l-185 724h62l137 -560
l8 -33.5c2.66699 -11 4.66699 -21.167 6 -30.5c2 -11.333 3.66699 -22 5 -32h2c1.33301 10 3 20.667 5 32c3.33301 20 8 41.333 14 64l140 560h58l140 -560l8 -33.5c2.66699 -11 4.66699 -21.167 6 -30.5c2 -11.333 3.66699 -22 5 -32h2c1.33301 10 3.33301 20.667 6 32
c1.33301 9.33301 3.16602 19.5 5.49902 30.5s4.83301 22.167 7.5 33.5l137 560h62z" />
    <glyph glyph-name="X" unicode="X" horiz-adv-x="579" 
d="M479 0l-189 325h-2l-189 -325h-67l221 374l-207 350h67l175 -300h2l175 300h67l-207 -350l222 -374h-68z" />
    <glyph glyph-name="Y" unicode="Y" horiz-adv-x="597" 
d="M329 293v-293h-61v293l-238 431h67l200 -369h2l200 369h68z" />
    <glyph glyph-name="Z" unicode="Z" horiz-adv-x="515" 
d="M33 0l341 671h-324v53h413l-340 -671h344v-53h-434z" />
    <glyph glyph-name="bracketleft" unicode="[" horiz-adv-x="357" 
d="M95 -195v980h205v-49h-147v-882h147v-49h-205z" />
    <glyph glyph-name="backslash" unicode="\" horiz-adv-x="449" 
d="M384 -193l-338 969l56 19l338 -969z" />
    <glyph glyph-name="bracketright" unicode="]" horiz-adv-x="357" 
d="M57 -195v49h147v882h-147v49h205v-980h-205z" />
    <glyph glyph-name="asciicircum" unicode="^" 
d="M440 451l-154.001 185l-153 -185l-39 33l161 193c4 5.33301 8.33301 9.33301 13 12s10.667 4 18 4s13.333 -1.33301 18 -4s9.33398 -6.66699 14.001 -12l161 -193z" />
    <glyph glyph-name="underscore" unicode="_" horiz-adv-x="583" 
d="M-4 -191v48h591v-48h-591z" />
    <glyph glyph-name="grave" unicode="`" horiz-adv-x="294" 
d="M144 603l-95.999 131c4 12.667 13.667 19 29 19c6.66699 0 13.667 -1.5 21 -4.5s13.666 -7.83301 18.999 -14.5l75 -131h-48z" />
    <glyph glyph-name="a" unicode="a" horiz-adv-x="523" 
d="M444 27c-9.33301 -5.33301 -20.6689 -10.166 -34.002 -14.499s-28 -8.16602 -44 -11.499s-32.667 -6 -50 -8s-34.333 -3 -51 -3c-70.667 0 -123.834 14.5 -159.501 43.5s-53.5 68.167 -53.5 117.5c0 39.333 9.83301 70.666 29.5 93.999s45.334 41.5 77.001 54.5
s67.5 22 107.5 27s80.333 8.5 121 10.5v47c0 22.667 -3.66699 41.667 -11 57s-17.166 27.5 -29.499 36.5s-27.166 15.333 -44.499 19s-36 5.5 -56 5.5c-25.333 0 -51.333 -3.33301 -78 -10s-48.667 -14.667 -66 -24l-18 44c10 4.66699 21.333 9.16699 34 13.5
s26.167 8.33301 40.5 12s29.333 6.5 45 8.5s31.167 3 46.5 3c28 0 54 -3 78 -9s44.5 -15.667 61.5 -29s30.333 -30.833 40 -52.5s14.5 -47.834 14.5 -78.501v-353zM386.997 292c-32 -2 -64.5 -4.5 -97.5 -7.5s-62.833 -9 -89.5 -18s-48.5 -22.5 -65.5 -40.5
s-25.5 -42.667 -25.5 -74c0 -34.667 12.667 -62.5 38 -83.5s64.333 -31.5 117 -31.5c23.333 0 46.833 2 70.5 6s41.167 8.66699 52.5 14v235z" />
    <glyph glyph-name="b" unicode="b" horiz-adv-x="549" 
d="M492 278c0 -51.333 -6.49805 -95.1699 -19.498 -131.503s-30.833 -66 -53.5 -89s-49.334 -40 -80.001 -51s-63.667 -16.5 -99 -16.5c-30.667 0 -60.167 3.5 -88.5 10.5s-52.5 15.833 -72.5 26.5v758h59v-263c15.333 7.33301 33.666 13.333 54.999 18s43.333 7 66 7
c34.667 0 66.334 -6.16699 95.001 -18.5s53.167 -30.166 73.5 -53.499s36.166 -51.666 47.499 -84.999s17 -70.666 17 -111.999zM433.002 274.996c0 34.667 -4.33301 65.8311 -13 93.498s-21 51 -37 70s-35 33.667 -57 44s-46.333 15.5 -73 15.5
c-20.667 0 -41.5 -2.16699 -62.5 -6.5s-38.5 -10.166 -52.5 -17.499v-414c10.667 -5.33301 25.334 -10.166 44.001 -14.499s38.667 -6.5 60 -6.5c26 0 50.667 4.16699 74 12.5s43.666 22 60.999 41s31 43.333 41 73s15 66.167 15 109.5z" />
    <glyph glyph-name="c" unicode="c" horiz-adv-x="461" 
d="M413 27c-16.667 -11.333 -35.8301 -20.3301 -57.4971 -26.9971s-45.167 -10 -70.5 -10c-27.333 0 -54.5 5.16699 -81.5 15.5s-51.333 26.666 -73 48.999s-39.167 51.333 -52.5 87s-20 78.5 -20 128.5s6.66699 92.667 20 128s30.833 64.166 52.5 86.499
s46 38.666 73 48.999s54.167 15.5 81.5 15.5c25.333 0 49.166 -3.5 71.499 -10.5s41.166 -15.833 56.499 -26.5l-21 -44c-13.333 9.33301 -29 16.833 -47 22.5s-36.667 8.5 -56 8.5c-20.667 0 -41.167 -4 -61.5 -12s-38.666 -21 -54.999 -39s-29.5 -41.667 -39.5 -71
s-15 -65 -15 -107s5.16699 -77.667 15.5 -107s23.666 -53 39.999 -71s34.666 -31 54.999 -39s40.5 -12 60.5 -12c19.333 0 38 2.83301 56 8.5s33.667 13.167 47 22.5z" />
    <glyph glyph-name="d" unicode="d" horiz-adv-x="549" 
d="M470 27c-14.667 -9.33301 -37.167 -17.834 -67.5 -25.501s-61.833 -11.5 -94.5 -11.5c-40 0 -75.5 6.5 -106.5 19.5s-57.167 31.333 -78.5 55s-37.5 52.167 -48.5 85.5s-16.5 70.333 -16.5 111s5.5 78.334 16.5 113.001s27 64.667 48 90s46.833 45 77.5 59s66 21 106 21
c21.333 0 41.5 -1.66699 60.5 -5s33.833 -7 44.5 -11v257h59v-758zM411 479.999c-9.33301 3.33301 -24.002 6.66992 -44.002 10.0029s-39.333 5 -58 5c-31.333 0 -59 -5.83301 -83 -17.5s-44 -27.834 -60 -48.501s-28.167 -45.334 -36.5 -74.001s-12.5 -59.667 -12.5 -93
s4.16699 -63.666 12.5 -90.999s20.5 -50.833 36.5 -70.5s35.833 -34.834 59.5 -45.501s50.834 -16 81.501 -16c19.333 0 39.333 2.16699 60 6.5s35.334 9.16602 44.001 14.499v420z" />
    <glyph glyph-name="e" unicode="e" horiz-adv-x="552" 
d="M494 326l0.000976562 -15.998c0 -4.66699 -0.333008 -10 -1 -16l-378 -56c4 -66.667 23.333 -116.5 58 -149.5s80.667 -49.5 138 -49.5c27.333 0 54.166 3.16699 80.499 9.5s48.166 14.5 65.499 24.5l20 -46c-18 -10.667 -42 -19.5 -72 -26.5s-62 -10.5 -96 -10.5
c-77.333 0 -138.5 23.667 -183.5 71s-67.5 117 -67.5 209c0 41.333 5.33301 79.166 16 113.499s25.834 63.666 45.501 87.999s43.5 43.333 71.5 57s59.667 20.5 95 20.5c62.667 0 113 -19.333 151 -58s57 -93.667 57 -165zM437.001 330.002
c-0.666992 58.667 -14.668 101.999 -42.001 129.999s-63.666 42 -108.999 42c-26.667 0 -50.5 -5.16699 -71.5 -15.5s-39 -25.166 -54 -44.499s-26.667 -42.5 -35 -69.5s-12.833 -56.833 -13.5 -89.5z" />
    <glyph glyph-name="f" unicode="f" horiz-adv-x="340" 
d="M303 736c-36 0 -66.334 -9.5 -91.001 -28.5s-37 -49.167 -37 -90.5v-78h126v-45h-126v-494h-57v494h-80v45h80v78c0 28 4.66699 52.667 14 74s22 39 38 53s34.833 24.5 56.5 31.5s44.834 10.5 69.501 10.5c3.33301 0 6.33301 -0.166992 9 -0.5s4.66699 -0.5 6 -0.5v-49
h-8z" />
    <glyph glyph-name="g" unicode="g" horiz-adv-x="549" 
d="M470 -6c0 -69.333 -18.498 -123.167 -55.498 -161.5s-89.833 -57.5 -158.5 -57.5c-32 0 -63.5 4 -94.5 12s-56.167 17 -75.5 27l21 47c17.333 -9.33301 39.166 -17.5 65.499 -24.5s53.166 -10.5 80.499 -10.5c52.667 0 92.334 14.5 119.001 43.5s40 70.5 40 124.5v52
c-15.333 -7.33301 -34 -13.5 -56 -18.5s-44.333 -7.5 -67 -7.5c-34 0 -65 5.66699 -93 17s-52.333 27.833 -73 49.5s-36.667 48.5 -48 80.5s-17 68.667 -17 110c0 48 6.5 89.167 19.5 123.5s30.833 62.5 53.5 84.5s49.167 38.167 79.5 48.5s63.166 15.5 98.499 15.5
c31.333 0 61 -3.33301 89 -10s52 -15.667 72 -27v-518zM412.002 479.999c-10.667 5.33301 -25.5 10.002 -44.5 14.002s-39.167 6 -60.5 6c-26 0 -50.5 -4 -73.5 -12s-43.167 -20.833 -60.5 -38.5s-31 -40.667 -41 -69s-15 -62.5 -15 -102.5c0 -34.667 4.5 -65 13.5 -91
s21.5 -47.833 37.5 -65.5s34.833 -30.834 56.5 -39.501s45.5 -13 71.5 -13c20.667 0 41.667 2.16699 63 6.5s39 10.166 53 17.499v387z" />
    <glyph glyph-name="h" unicode="h" horiz-adv-x="554" 
d="M416 0v368c0 44 -13.5 76.667 -40.5 98s-63.5 32 -109.5 32c-22 0 -44.5 -3.16699 -67.5 -9.5s-43.167 -14.833 -60.5 -25.5v-463h-59v785h59v-272c18.667 10 40 18.333 64 25s48 10 72 10c62 0 111 -15 147 -45s54 -74 54 -132v-371h-59z" />
    <glyph glyph-name="i" unicode="i" horiz-adv-x="227" 
d="M155 700c0 -11.333 -4 -21 -12 -29s-17.667 -12 -29 -12s-21.166 4 -29.499 12s-12.5 17.667 -12.5 29s4.16699 21 12.5 29s18.166 12 29.499 12s21 -4 29 -12s12 -17.667 12 -29zM84 0v539h59v-539h-59z" />
    <glyph glyph-name="j" unicode="j" horiz-adv-x="227" 
d="M143 51c0 -42 -5.33496 -78.667 -16.002 -110s-25.167 -58 -43.5 -80s-39.333 -39.667 -63 -53s-48.5 -23 -74.5 -29v53c18.667 6 36.334 14.833 53.001 26.5s31.334 26.5 44.001 44.5s22.667 39.167 30 63.5s11 52.5 11 84.5v488h59v-488zM154.998 700
c0 -11.333 -4 -21 -12 -29s-17.667 -12 -29 -12s-21.166 4 -29.499 12s-12.5 17.667 -12.5 29s4.16699 21 12.5 29s18.166 12 29.499 12s21 -4 29 -12s12 -17.667 12 -29z" />
    <glyph glyph-name="k" unicode="k" horiz-adv-x="505" 
d="M414 0l-272 279h-2v-279h-57v785h57v-498h2l259 252h74l-264 -257l277 -282h-74z" />
    <glyph glyph-name="l" unicode="l" horiz-adv-x="227" 
d="M84 0v785h59v-785h-59z" />
    <glyph glyph-name="m" unicode="m" horiz-adv-x="860" 
d="M722 0l-0.000976562 376.999c0 39.333 -12.167 69.666 -36.5 90.999s-55.166 32 -92.499 32c-29.333 0 -55.166 -4.66699 -77.499 -14s-40.833 -22.666 -55.5 -39.999v-446h-59v393c0 33.333 -13.167 59.5 -39.5 78.5s-60.5 28.5 -102.5 28.5c-24 0 -46.333 -2 -67 -6
s-38.667 -9.33301 -54 -16v-478h-59v512c25.333 11.333 53.166 20.333 83.499 27s62.166 10 95.499 10c41.333 0 76.333 -6.5 105 -19.5s50 -28.5 64 -46.5c16.667 16.667 39.834 31.834 69.501 45.501s64.5 20.5 104.5 20.5c26.667 0 51 -4 73 -12s41 -19.167 57 -33.5
s28.333 -32 37 -53s13 -44.5 13 -70.5v-380h-59z" />
    <glyph glyph-name="n" unicode="n" horiz-adv-x="554" 
d="M416 0l-0.00195312 368c0 40 -12.167 72 -36.5 96s-61.166 36 -110.499 36c-27.333 0 -52.166 -2.16699 -74.499 -6.5s-41.166 -9.5 -56.499 -15.5v-478h-59v512c24.667 11.333 53.167 20.333 85.5 27s67.166 10 104.499 10c67.333 0 118.5 -15.667 153.5 -47
s52.5 -75 52.5 -131v-371h-59z" />
    <glyph glyph-name="o" unicode="o" horiz-adv-x="560" 
d="M502 270c0 -40 -4.66699 -77 -14 -111s-23.333 -63.5 -42 -88.5s-41.834 -44.667 -69.501 -59s-59.834 -21.5 -96.501 -21.5s-68.834 7.16699 -96.501 21.5s-50.834 34 -69.501 59s-32.667 54.5 -42 88.5s-14 71 -14 111s4.66699 77 14 111s23.333 63.5 42 88.5
s41.834 44.5 69.501 58.5s59.834 21 96.501 21s68.834 -7 96.501 -21s50.834 -33.5 69.501 -58.5s32.667 -54.5 42 -88.5s14 -71 14 -111zM443 270c0 32.667 -3.33301 63.167 -10 91.5s-16.667 52.666 -30 72.999s-30.166 36.333 -50.499 48s-44.5 17.5 -72.5 17.5
s-52.167 -5.83301 -72.5 -17.5s-37.166 -27.667 -50.499 -48s-23.333 -44.666 -30 -72.999s-10 -58.833 -10 -91.5c0 -33.333 3.33301 -64 10 -92s16.667 -52.167 30 -72.5s30.166 -36.333 50.499 -48s44.5 -17.5 72.5 -17.5s52.167 5.83301 72.5 17.5
s37.166 27.667 50.499 48s23.333 44.5 30 72.5s10 58.667 10 92z" />
    <glyph glyph-name="p" unicode="p" horiz-adv-x="549" 
d="M492 277c0 -41.333 -5.49902 -79.333 -16.499 -114s-27.167 -64.5 -48.5 -89.5s-47.333 -44.667 -78 -59s-66 -21.5 -106 -21.5c-21.333 0 -41.5 1.66699 -60.5 5s-33.833 7 -44.5 11v-224h-59v727c16.667 9.33301 40 17.833 70 25.5s60.667 11.5 92 11.5
c40 0 75.5 -6.5 106.5 -19.5s57.167 -31.5 78.5 -55.5s37.666 -52.667 48.999 -86s17 -70.333 17 -111zM433.001 277c0 33.333 -4.16504 63.666 -12.498 90.999s-20.666 50.833 -36.999 70.5s-36.333 34.834 -60 45.501s-50.834 16 -81.501 16
c-20.667 0 -40.834 -2 -60.501 -6s-34.167 -8.66699 -43.5 -14v-422c9.33301 -3.33301 24 -6.83301 44 -10.5s39.333 -5.5 58 -5.5c31.333 0 59 6 83 18s44.167 28.5 60.5 49.5s28.666 45.833 36.999 74.5s12.5 59.667 12.5 93z" />
    <glyph glyph-name="q" unicode="q" horiz-adv-x="549" 
d="M411 -215l-0.00195312 232.002c-15.333 -7.33301 -33.666 -13.333 -54.999 -18s-43.333 -7 -66 -7c-34.667 0 -66.334 6.16699 -95.001 18.5s-53.167 30.166 -73.5 53.499s-36 51.666 -47 84.999s-16.5 70.666 -16.5 111.999c0 50.667 6.33301 94.334 19 131.001
s30.334 66.5 53.001 89.5s49.334 40 80.001 51s63.667 16.5 99 16.5c30.667 0 60.167 -3.5 88.5 -10.5s52.5 -15.833 72.5 -26.5v-727h-59zM410.998 480.002c-10.667 5.33301 -25.333 10 -44 14s-38.667 6 -60 6c-26 0 -50.667 -4.16699 -74 -12.5s-43.5 -22 -60.5 -41
s-30.5 -43.5 -40.5 -73.5s-15 -66.333 -15 -109c0 -70 16.333 -124.667 49 -164s76 -59 130 -59c20.667 0 41.5 2.33301 62.5 7s38.5 10.667 52.5 18v414z" />
    <glyph glyph-name="r" unicode="r" horiz-adv-x="344" 
d="M298 496c-12 2 -25.334 3.00098 -40.001 3.00098c-21.333 0 -43.166 -1.83301 -65.499 -5.5s-40.5 -8.83398 -54.5 -15.501v-478h-59v512c22.667 11.333 50.834 20.333 84.501 27s67.5 10 101.5 10c11.333 0 21.166 -0.166992 29.499 -0.5s13.833 -0.833008 16.5 -1.5z
" />
    <glyph glyph-name="s" unicode="s" horiz-adv-x="448" 
d="M393 138c0 -44.667 -16.9961 -80.5039 -50.9961 -107.504s-81 -40.5 -141 -40.5c-27.333 0 -55 3.33301 -83 10s-51.667 15.667 -71 27l23 46c7.33301 -4.66699 16.166 -9 26.499 -13s21.333 -7.5 33 -10.5s23.5 -5.5 35.5 -7.5s23.667 -3 35 -3c40 0 72 9 96 27
s36 42.333 36 73c0 16 -3 29.833 -9 41.5s-14.5 21.834 -25.5 30.501s-24 16.334 -39 23.001s-31.167 13.334 -48.5 20.001c-20 7.33301 -39 15.333 -57 24s-33.833 18.834 -47.5 30.501s-24.5 25.667 -32.5 42s-12 36.166 -12 59.499c0 19.333 3.83301 37.5 11.5 54.5
s18.667 31.667 33 44s32.166 22.166 53.499 29.499s45.666 11 72.999 11c28.667 0 55.167 -3.5 79.5 -10.5s45.166 -15.833 62.499 -26.5l-23 -44c-12.667 8.66699 -29.5 16.334 -50.5 23.001s-42.5 10 -64.5 10c-36.667 0 -65 -8.83301 -85 -26.5s-30 -39.167 -30 -64.5
c0 -16 2.83301 -29.667 8.5 -41s13.667 -21.166 24 -29.499s22.5 -15.666 36.5 -21.999s29.333 -12.5 46 -18.5c20.667 -8 40.5 -16.333 59.5 -25s35.833 -19 50.5 -31s26.167 -26.333 34.5 -43s12.5 -37.334 12.5 -62.001z" />
    <glyph glyph-name="t" unicode="t" horiz-adv-x="338" 
d="M297 1c-9.33301 -4 -23.333 -6 -42 -6c-40 0 -72.833 11 -98.5 33s-38.5 56 -38.5 102v364h-84v45h84v134l57 22v-156h122v-45h-122v-362c0 -30 8.83301 -51.667 26.5 -65s38.5 -20 62.5 -20c13.333 0 24.333 1.66699 33 5v-51z" />
    <glyph glyph-name="u" unicode="u" horiz-adv-x="545" 
d="M466 27c-19.333 -10 -45.832 -18.667 -79.499 -26s-69.834 -11 -108.501 -11c-64 0 -113.167 15 -147.5 45s-51.5 76.333 -51.5 139v365h59v-366c0 -88.667 46.667 -133 140 -133c28 0 53.5 2.33301 76.5 7s40.5 9.66699 52.5 15v477h59v-512z" />
    <glyph glyph-name="v" unicode="v" horiz-adv-x="537" 
d="M302 0l-67 0.00292969l-199 539h64l144 -405c6 -18.667 11.333 -36.334 16 -53.001c2.66699 -8.66699 5 -17 7 -25h2c2 8 4.33301 16.333 7 25c2 7.33301 4.5 15.666 7.5 24.999s6.16699 18.666 9.5 27.999l144 405h64z" />
    <glyph glyph-name="w" unicode="w" horiz-adv-x="820" 
d="M610 0l-59.998 -0.00292969l-122 407c-2.66699 8 -5 16.167 -7 24.5s-3.66699 16.166 -5 23.499c-2 8 -3.66699 16 -5 24h-2c-1.33301 -8 -3 -16 -5 -24c-1.33301 -7.33301 -3 -15.166 -5 -23.499s-4.33301 -16.5 -7 -24.5l-122 -407h-60l-167 539h59l120 -405
c2.66699 -8.66699 5 -17.667 7 -27s3.66699 -17.666 5 -24.999c2 -8.66699 3.66699 -17.334 5 -26.001h2c1.33301 8.66699 3.33301 17.334 6 26.001c3.33301 16 7.66602 33.333 12.999 52l120 405h60l120 -405c2.66699 -8.66699 5 -17.667 7 -27s4 -17.666 6 -24.999l6 -26
h2c1.33301 8.66699 3 17.334 5 26.001c3.33301 16 7.66602 33.333 12.999 52l119 405h59z" />
    <glyph glyph-name="x" unicode="x" horiz-adv-x="503" 
d="M406 0l-154 237h-2l-153 -237h-67l186 280l-172 259h67l139 -217h2l140 217h67l-172 -259l186 -280h-67z" />
    <glyph glyph-name="y" unicode="y" horiz-adv-x="537" 
d="M219 -215h-61.001l81 215l-203 539h64l148 -417c6 -18 10.667 -34 14 -48c2 -8 3.66699 -16 5 -24h2c0.666992 8 2.33398 16 5.00098 24c1.33301 7.33301 3.33301 15 6 23s5.66699 16.333 9 25l148 417h64z" />
    <glyph glyph-name="z" unicode="z" horiz-adv-x="458" 
d="M35 0l279 489h-264v50h353l-278 -489h287v-50h-377z" />
    <glyph glyph-name="braceleft" unicode="{" horiz-adv-x="358" 
d="M262 -195c-47.333 0 -84.166 13.498 -110.499 40.498s-39.5 64.833 -39.5 113.5c0 23.333 1 42.666 3 57.999s4.16699 29.666 6.5 42.999s4.5 27.166 6.5 41.499s3 32.166 3 53.499c0 34 -7.66699 60.833 -23 80.5s-36.333 30.834 -63 33.501v52
c26.667 2.66699 47.667 13.834 63 33.501s23 46.5 23 80.5c0 21.333 -1 39.166 -3 53.499s-4.16699 28.166 -6.5 41.499s-4.5 27.666 -6.5 42.999s-3 34.666 -3 57.999c0 48.667 13.167 86.5 39.5 113.5s63.166 40.5 110.499 40.5h28v-49h-24
c-30.667 0 -54.334 -9 -71.001 -27s-25 -44 -25 -78c0 -23.333 1 -42.666 3 -57.999s4.16699 -29.666 6.5 -42.999s4.5 -27.166 6.5 -41.499s3 -32.166 3 -53.499c0 -38 -7.83301 -68.5 -23.5 -91.5s-35.834 -38.833 -60.501 -47.5v-2
c24.667 -8.66699 44.834 -24.5 60.501 -47.5s23.5 -53.5 23.5 -91.5c0 -21.333 -1 -39.166 -3 -53.499s-4.16699 -28.166 -6.5 -41.499s-4.5 -27.666 -6.5 -42.999s-3 -34.666 -3 -57.999c0 -34 8.33301 -60 25 -78s40.334 -27 71.001 -27h24v-49h-28z" />
    <glyph glyph-name="bar" unicode="|" horiz-adv-x="228" 
d="M85 -215v1000h59v-1000h-59z" />
    <glyph glyph-name="braceright" unicode="}" horiz-adv-x="358" 
d="M313 269c-26.667 -2.66699 -47.667 -13.832 -63 -33.499s-23 -46.5 -23 -80.5c0 -21.333 1 -39.166 3 -53.499s4.16699 -28.166 6.5 -41.499s4.5 -27.666 6.5 -42.999s3 -34.666 3 -57.999c0 -48.667 -13.167 -86.5 -39.5 -113.5s-63.166 -40.5 -110.499 -40.5h-28v49h24
c30.667 0 54.334 9 71.001 27s25 44 25 78c0 23.333 -1 42.666 -3 57.999s-4.16699 29.666 -6.5 42.999s-4.5 27.166 -6.5 41.499s-3 32.166 -3 53.499c0 38 7.83301 68.5 23.5 91.5s35.834 38.833 60.501 47.5v2c-24.667 8.66699 -44.834 24.5 -60.501 47.5
s-23.5 53.5 -23.5 91.5c0 21.333 1 39.166 3 53.499s4.16699 28.166 6.5 41.499s4.5 27.666 6.5 42.999s3 34.666 3 57.999c0 34 -8.33301 60 -25 78s-40.334 27 -71.001 27h-24v49h28c47.333 0 84.166 -13.5 110.499 -40.5s39.5 -64.833 39.5 -113.5
c0 -23.333 -1 -42.666 -3 -57.999s-4.16699 -29.666 -6.5 -42.999s-4.5 -27.166 -6.5 -41.499s-3 -32.166 -3 -53.499c0 -34 7.66699 -60.833 23 -80.5s36.333 -30.834 63 -33.501v-52z" />
    <glyph glyph-name="asciitilde" unicode="~" 
d="M488 391c-8.66699 -26 -22.666 -46.833 -41.999 -62.5s-43 -23.5 -71 -23.5c-18 0 -34.333 3.16699 -49 9.5s-28.5 13.333 -41.5 21s-26.167 14.667 -39.5 21s-27.333 9.5 -42 9.5c-20 0 -36.833 -5.66699 -50.5 -17s-24.167 -26 -31.5 -44l-36 27
c8.66699 26 22.667 46.833 42 62.5s43 23.5 71 23.5c18 0 34.167 -3.16699 48.5 -9.5s28.166 -13.5 41.499 -21.5s26.333 -15.167 39 -21.5s26.667 -9.5 42 -9.5c20 0 37 5.66699 51 17s24.667 26 32 44z" />
    <glyph glyph-name="afii10052" horiz-adv-x="480" 
d="M149 671v-671h-60v724h357v-53h-297zM273 788h-47.999l75 131c5.33301 6.66699 11.666 11.5 18.999 14.5s14.333 4.5 21 4.5c15.333 0 25 -6.33301 29 -19z" />
    <glyph glyph-name="afii10052" unicode="&#x403;" horiz-adv-x="480" 
d="M149 671v-671h-60v724h357v-53h-297zM273 788h-47.999l75 131c5.33301 6.66699 11.666 11.5 18.999 14.5s14.333 4.5 21 4.5c15.333 0 25 -6.33301 29 -19z" />
    <glyph glyph-name="afii10061" horiz-adv-x="581" 
d="M287 788h-47.999l75 131c5.33301 6.66699 11.666 11.5 18.999 14.5s14.333 4.5 21 4.5c15.333 0 25 -6.33301 29 -19zM485.001 0l-127.001 225.001c-21.333 37.333 -49.666 68.166 -84.999 92.499s-77 36.5 -125 36.5v-354h-61v724h61v-342h2l314 342h78l-317 -337
c84 -20 148.333 -69.333 193 -148l138 -239h-71z" />
    <glyph glyph-name="afii10061" unicode="&#x40c;" horiz-adv-x="581" 
d="M287 788h-47.999l75 131c5.33301 6.66699 11.666 11.5 18.999 14.5s14.333 4.5 21 4.5c15.333 0 25 -6.33301 29 -19zM485.001 0l-127.001 225.001c-21.333 37.333 -49.666 68.166 -84.999 92.499s-77 36.5 -125 36.5v-354h-61v724h61v-342h2l314 342h78l-317 -337
c84 -20 148.333 -69.333 193 -148l138 -239h-71z" />
    <glyph glyph-name="afii10060" horiz-adv-x="690" 
d="M548 0l0.00292969 276c0 51.333 -14.667 89 -44 113s-68 36 -116 36c-22.667 0 -46.834 -3.16699 -72.501 -9.5s-47.834 -15.166 -66.501 -26.499v-389h-61v671h-152v53h471v-53h-258v-230c20 11.333 43 20 69 26s51.667 9 77 9c65.333 0 117.166 -16.833 155.499 -50.5
s57.5 -82.834 57.5 -147.501v-278h-60z" />
    <glyph glyph-name="afii10060" unicode="&#x40b;" horiz-adv-x="690" 
d="M548 0l0.00292969 276c0 51.333 -14.667 89 -44 113s-68 36 -116 36c-22.667 0 -46.834 -3.16699 -72.501 -9.5s-47.834 -15.166 -66.501 -26.499v-389h-61v671h-152v53h471v-53h-258v-230c20 11.333 43 20 69 26s51.667 9 77 9c65.333 0 117.166 -16.833 155.499 -50.5
s57.5 -82.834 57.5 -147.501v-278h-60z" />
    <glyph glyph-name="afii10145" horiz-adv-x="633" 
d="M345 0l-5 -146h-47l-4 146h-204v724h61v-671h341v671h61v-724h-203z" />
    <glyph glyph-name="afii10145" unicode="&#x40f;" horiz-adv-x="633" 
d="M345 0l-5 -146h-47l-4 146h-204v724h61v-671h341v671h61v-724h-203z" />
    <glyph glyph-name="afii10099" horiz-adv-x="555" 
d="M494 225c0 -45.333 -4.99902 -89.168 -14.999 -131.501s-24.5 -81.5 -43.5 -117.5s-42.167 -68.167 -69.5 -96.5s-58.333 -50.833 -93 -67.5l-29 44c31.333 16 59 36.5 83 61.5s44 53.333 60 85s28 66.334 36 104.001s12 77.167 12 118.5
c0 37.333 -3.33301 72.666 -10 105.999s-17.334 62.333 -32.001 87s-33.667 44.167 -57 58.5s-51.333 21.5 -84 21.5c-19.333 0 -38.833 -2.83301 -58.5 -8.5s-38.167 -14.167 -55.5 -25.5v-464h-59v639h-81v40h81v106h59v-106h178v-40h-178v-125
c17.333 10.667 35.833 19 55.5 25s41.167 9 64.5 9c41.333 0 76.833 -8.33301 106.5 -25s54.167 -39.5 73.5 -68.5s33.5 -63.167 42.5 -102.5s13.5 -81.666 13.5 -126.999z" />
    <glyph glyph-name="afii10099" unicode="&#x452;" horiz-adv-x="555" 
d="M494 225c0 -45.333 -4.99902 -89.168 -14.999 -131.501s-24.5 -81.5 -43.5 -117.5s-42.167 -68.167 -69.5 -96.5s-58.333 -50.833 -93 -67.5l-29 44c31.333 16 59 36.5 83 61.5s44 53.333 60 85s28 66.334 36 104.001s12 77.167 12 118.5
c0 37.333 -3.33301 72.666 -10 105.999s-17.334 62.333 -32.001 87s-33.667 44.167 -57 58.5s-51.333 21.5 -84 21.5c-19.333 0 -38.833 -2.83301 -58.5 -8.5s-38.167 -14.167 -55.5 -25.5v-464h-59v639h-81v40h81v106h59v-106h178v-40h-178v-125
c17.333 10.667 35.833 19 55.5 25s41.167 9 64.5 9c41.333 0 76.833 -8.33301 106.5 -25s54.167 -39.5 73.5 -68.5s33.5 -63.167 42.5 -102.5s13.5 -81.666 13.5 -126.999z" />
    <glyph glyph-name="afii10109" horiz-adv-x="494" 
d="M405 0l-106.001 167.001c-16.667 26 -38.5 48.833 -65.5 68.5s-58.5 29.5 -94.5 29.5v-265h-58v539h58v-250h2l251 250h75l-257 -246c34 -9.33301 62.333 -23.833 85 -43.5s43.334 -43.834 62.001 -72.501l115 -177h-67zM252.999 603.001h-47.999l75 131
c5.33301 6.66699 11.666 11.5 18.999 14.5s14.333 4.5 21 4.5c15.333 0 25 -6.33301 29 -19z" />
    <glyph glyph-name="afii10109" unicode="&#x45c;" horiz-adv-x="494" 
d="M405 0l-106.001 167.001c-16.667 26 -38.5 48.833 -65.5 68.5s-58.5 29.5 -94.5 29.5v-265h-58v539h58v-250h2l251 250h75l-257 -246c34 -9.33301 62.333 -23.833 85 -43.5s43.334 -43.834 62.001 -72.501l115 -177h-67zM252.999 603.001h-47.999l75 131
c5.33301 6.66699 11.666 11.5 18.999 14.5s14.333 4.5 21 4.5c15.333 0 25 -6.33301 29 -19z" />
    <glyph glyph-name="afii10108" horiz-adv-x="549" 
d="M411 0l-0.000976562 368c0 44.667 -13 77.5 -39 98.5s-62 31.5 -108 31.5c-22 0 -44.167 -3.16699 -66.5 -9.5s-42.166 -14.833 -59.499 -25.5v-463h-59v639h-81v40h81v106h59v-106h178v-40h-178v-126c18.667 10.667 39.5 19.167 62.5 25.5s46.5 9.5 70.5 9.5
c62 0 110.667 -15 146 -45s53 -74 53 -132v-371h-59z" />
    <glyph glyph-name="afii10108" unicode="&#x45b;" horiz-adv-x="549" 
d="M411 0l-0.000976562 368c0 44.667 -13 77.5 -39 98.5s-62 31.5 -108 31.5c-22 0 -44.167 -3.16699 -66.5 -9.5s-42.166 -14.833 -59.499 -25.5v-463h-59v639h-81v40h81v106h59v-106h178v-40h-178v-126c18.667 10.667 39.5 19.167 62.5 25.5s46.5 9.5 70.5 9.5
c62 0 110.667 -15 146 -45s53 -74 53 -132v-371h-59z" />
    <glyph glyph-name="uni00A0" unicode="&#xa0;" horiz-adv-x="282" 
 />
    <glyph glyph-name="afii10062" unicode="&#xa1;" horiz-adv-x="594" 
d="M547 724c-14.667 -89.333 -39.499 -175.5 -74.499 -258.5s-74.167 -163.5 -117.5 -241.5l-125 -224h-69l118 207c-26 40 -51.167 81 -75.5 123s-46.666 84.5 -66.999 127.5s-38.333 86.667 -54 131s-27.834 89.5 -36.501 135.5h64c16 -80.667 41.833 -160 77.5 -238
s76.167 -153.333 121.5 -226h2c38.667 72.667 73.667 147.5 105 224.5s53.666 156.833 66.999 239.5h64zM426.001 913c-2.66699 -38.667 -15.333 -69.5 -38 -92.5s-53 -34.5 -91 -34.5s-68.5 11.5 -91.5 34.5s-35.833 53.833 -38.5 92.5l41 6
c5.33301 -29.333 15 -51.333 29 -66s34 -22 60 -22s45.833 7.33301 59.5 22s23.167 36.667 28.5 66z" />
    <glyph glyph-name="afii10062" unicode="&#x40e;" horiz-adv-x="594" 
d="M547 724c-14.667 -89.333 -39.499 -175.5 -74.499 -258.5s-74.167 -163.5 -117.5 -241.5l-125 -224h-69l118 207c-26 40 -51.167 81 -75.5 123s-46.666 84.5 -66.999 127.5s-38.333 86.667 -54 131s-27.834 89.5 -36.501 135.5h64c16 -80.667 41.833 -160 77.5 -238
s76.167 -153.333 121.5 -226h2c38.667 72.667 73.667 147.5 105 224.5s53.666 156.833 66.999 239.5h64zM426.001 913c-2.66699 -38.667 -15.333 -69.5 -38 -92.5s-53 -34.5 -91 -34.5s-68.5 11.5 -91.5 34.5s-35.833 53.833 -38.5 92.5l41 6
c5.33301 -29.333 15 -51.333 29 -66s34 -22 60 -22s45.833 7.33301 59.5 22s23.167 36.667 28.5 66z" />
    <glyph glyph-name="afii10110" unicode="&#xa2;" horiz-adv-x="537" 
d="M492 539c-13.333 -93.333 -35.667 -183.166 -67 -269.499s-67.333 -170.166 -108 -251.499l-116 -233h-63l110 215c-45.333 85.333 -86.5 172.666 -123.5 261.999s-63.5 181.666 -79.5 276.999h61c14 -83.333 36.167 -165 66.5 -245s64.833 -159.333 103.5 -238h2
c36 76.667 67.167 154.5 93.5 233.5s45.833 162.167 58.5 249.5h62zM397.999 728c-2.66699 -38.667 -15.333 -69.5 -38 -92.5s-53 -34.5 -91 -34.5s-68.5 11.5 -91.5 34.5s-35.833 53.833 -38.5 92.5l41 6c5.33301 -29.333 15 -51.333 29 -66s34 -22 60 -22
s45.833 7.33301 59.5 22s23.167 36.667 28.5 66z" />
    <glyph glyph-name="afii10110" unicode="&#x45e;" horiz-adv-x="537" 
d="M492 539c-13.333 -93.333 -35.667 -183.166 -67 -269.499s-67.333 -170.166 -108 -251.499l-116 -233h-63l110 215c-45.333 85.333 -86.5 172.666 -123.5 261.999s-63.5 181.666 -79.5 276.999h61c14 -83.333 36.167 -165 66.5 -245s64.833 -159.333 103.5 -238h2
c36 76.667 67.167 154.5 93.5 233.5s45.833 162.167 58.5 249.5h62zM397.999 728c-2.66699 -38.667 -15.333 -69.5 -38 -92.5s-53 -34.5 -91 -34.5s-68.5 11.5 -91.5 34.5s-35.833 53.833 -38.5 92.5l41 6c5.33301 -29.333 15 -51.333 29 -66s34 -22 60 -22
s45.833 7.33301 59.5 22s23.167 36.667 28.5 66z" />
    <glyph glyph-name="afii10057" unicode="&#xa3;" horiz-adv-x="235" 
d="M148 80c0 -44 -5 -82.834 -15 -116.501s-24.5 -62.5 -43.5 -86.5s-42 -43.833 -69 -59.5s-57.5 -27.5 -91.5 -35.5v55c24.667 8 46.667 18.5 66 31.5s35.833 29.333 49.5 49s24.167 42.834 31.5 69.501s11 57.667 11 93v644h61v-644z" />
    <glyph glyph-name="afii10057" unicode="&#x408;" horiz-adv-x="235" 
d="M148 80c0 -44 -5 -82.834 -15 -116.501s-24.5 -62.5 -43.5 -86.5s-42 -43.833 -69 -59.5s-57.5 -27.5 -91.5 -35.5v55c24.667 8 46.667 18.5 66 31.5s35.833 29.333 49.5 49s24.167 42.834 31.5 69.501s11 57.667 11 93v644h61v-644z" />
    <glyph glyph-name="currency" unicode="&#xa4;" horiz-adv-x="671" 
d="M559 40l-98.001 107c-16 -15.333 -34.667 -27 -56 -35s-44.666 -12 -69.999 -12c-50 0 -91.667 15.667 -125 47l-98 -107l-41 35l102 112c-25.333 38.667 -38 84.667 -38 138s12.667 99.333 38 138l-102 112l41 36l98 -108c33.333 31.333 75 47 125 47
c50.667 0 92.667 -15.667 126 -47l98 108l41 -36l-102 -112c25.333 -38.667 38 -84.667 38 -138s-12.667 -99.333 -38 -138l102 -112zM481.999 325c0 24.667 -3.16699 47.667 -9.5 69s-15.833 40 -28.5 56s-28 28.667 -46 38s-39 14 -63 14s-45 -4.66699 -63 -14
s-33.167 -22 -45.5 -38s-21.666 -34.667 -27.999 -56s-9.5 -44.333 -9.5 -69s3.16699 -47.667 9.5 -69s15.666 -40 27.999 -56s27.5 -28.5 45.5 -37.5s39 -13.5 63 -13.5s45 4.5 63 13.5s33.333 21.5 46 37.5s22.167 34.667 28.5 56s9.5 44.333 9.5 69z" />
    <glyph glyph-name="afii10050" unicode="&#xa5;" horiz-adv-x="487" 
d="M149 671v-671h-60v724h311v130h54v-183h-305z" />
    <glyph glyph-name="afii10050" unicode="&#x490;" horiz-adv-x="487" 
d="M149 671v-671h-60v724h311v130h54v-183h-305z" />
    <glyph glyph-name="brokenbar" unicode="&#xa6;" horiz-adv-x="228" 
d="M85 385v400h59v-400h-59zM85 -215v400h59v-400h-59z" />
    <glyph glyph-name="section" unicode="&#xa7;" horiz-adv-x="588" 
d="M515 224c0 -19.333 -3.66602 -37.6689 -10.999 -55.002s-17 -33.166 -29 -47.499s-25.167 -27 -39.5 -38s-28.5 -20.5 -42.5 -28.5c20 -16 36.167 -34.167 48.5 -54.5s18.5 -44.833 18.5 -73.5c0 -45.333 -16.667 -82 -50 -110s-79 -42 -137 -42
c-27.333 0 -55.5 3.5 -84.5 10.5s-51.833 15.833 -68.5 26.5l22 47c6 -4 14 -8 24 -12s20.833 -7.66699 32.5 -11s23.667 -6 36 -8s24.166 -3 35.499 -3c40.667 0 72.667 9.33301 96 28s35 44 35 76c0 23.333 -6.16699 43.5 -18.5 60.5s-29.833 32.5 -52.5 46.5l-150 93
c-34.667 21.333 -61.167 45.666 -79.5 72.999s-27.5 59 -27.5 95c0 21.333 3.33301 40.833 10 58.5s15.5 33.5 26.5 47.5s23.667 26.5 38 37.5s28.833 20.833 43.5 29.5c-14.667 13.333 -26.667 28.833 -36 46.5s-14 38.834 -14 63.501c0 24 4.5 45.5 13.5 64.5
s21.5 35.167 37.5 48.5s35.167 23.5 57.5 30.5s46.5 10.5 72.5 10.5c28.667 0 55.167 -3.5 79.5 -10.5s45.166 -15.833 62.499 -26.5l-21 -45c-14 8.66699 -31.333 16.167 -52 22.5s-42.667 9.5 -66 9.5c-37.333 0 -67.666 -9 -90.999 -27s-35 -44 -35 -78
c0 -21.333 6 -40 18 -56s26.667 -29.667 44 -41l145 -90c36 -22 63.167 -46.167 81.5 -72.5s27.5 -58.166 27.5 -95.499zM459.001 221.997c0 29.333 -7.33301 53.8301 -22 73.4971s-36 38.167 -64 55.5l-142 89c-13.333 -7.33301 -26 -15.5 -38 -24.5
s-22.833 -19.167 -32.5 -30.5s-17.334 -24.166 -23.001 -38.499s-8.5 -30.166 -8.5 -47.499c0 -28 7.83301 -52.333 23.5 -73s34.834 -38 57.501 -52l142 -89c13.333 6.66699 26.333 14.834 39 24.501s24 20.334 34 32.001s18.167 24.167 24.5 37.5s9.5 27.666 9.5 42.999z
" />
    <glyph glyph-name="afii10023" unicode="&#xa8;" horiz-adv-x="507" 
d="M85 0v724h370v-53h-310v-270h287v-53h-287v-295h310v-53h-370zM396 854c0 -10.667 -3.66699 -19.834 -11 -27.501s-16.666 -11.5 -27.999 -11.5s-20.666 3.83301 -27.999 11.5s-11 16.834 -11 27.501s3.66699 19.667 11 27s16.666 11 27.999 11
s20.666 -3.66699 27.999 -11s11 -16.333 11 -27zM220 854c0 -10.667 -3.66699 -19.834 -11 -27.501s-16.666 -11.5 -27.999 -11.5s-20.666 3.83301 -27.999 11.5s-11 16.834 -11 27.501s3.66699 19.667 11 27s16.666 11 27.999 11s20.666 -3.66699 27.999 -11
s11 -16.333 11 -27z" />
    <glyph glyph-name="afii10023" unicode="&#x401;" horiz-adv-x="507" 
d="M85 0v724h370v-53h-310v-270h287v-53h-287v-295h310v-53h-370zM396 854c0 -10.667 -3.66699 -19.834 -11 -27.501s-16.666 -11.5 -27.999 -11.5s-20.666 3.83301 -27.999 11.5s-11 16.834 -11 27.501s3.66699 19.667 11 27s16.666 11 27.999 11
s20.666 -3.66699 27.999 -11s11 -16.333 11 -27zM220 854c0 -10.667 -3.66699 -19.834 -11 -27.501s-16.666 -11.5 -27.999 -11.5s-20.666 3.83301 -27.999 11.5s-11 16.834 -11 27.501s3.66699 19.667 11 27s16.666 11 27.999 11s20.666 -3.66699 27.999 -11
s11 -16.333 11 -27z" />
    <glyph glyph-name="copyright" unicode="&#xa9;" horiz-adv-x="878" 
d="M812 362c0 -51.333 -9.66699 -99.666 -29 -144.999s-45.833 -84.833 -79.5 -118.5s-73.167 -60.167 -118.5 -79.5s-94 -29 -146 -29s-100.667 9.66699 -146 29s-84.833 45.833 -118.5 79.5s-60.167 73.167 -79.5 118.5s-29 93.666 -29 144.999s9.66699 99.666 29 144.999
s45.833 84.833 79.5 118.5s73.167 60.167 118.5 79.5s94 29 146 29s100.667 -9.66699 146 -29s84.833 -45.833 118.5 -79.5s60.167 -73.167 79.5 -118.5s29 -93.666 29 -144.999zM764 362c0 45.333 -8.33301 88 -25 128s-39.667 74.833 -69 104.5
s-63.833 53.167 -103.5 70.5s-82.167 26 -127.5 26s-87.833 -8.66699 -127.5 -26s-74.167 -40.833 -103.5 -70.5s-52.333 -64.5 -69 -104.5s-25 -82.667 -25 -128s8.33301 -88 25 -128s39.667 -74.833 69 -104.5s63.833 -53.167 103.5 -70.5s82.167 -26 127.5 -26
s87.833 8.66699 127.5 26s74.167 40.833 103.5 70.5s52.333 64.5 69 104.5s25 82.667 25 128zM554 178c-12.667 -8.66699 -28.167 -15.833 -46.5 -21.5s-38.166 -8.5 -59.499 -8.5c-25.333 0 -49.5 4.33301 -72.5 13s-43.167 22 -60.5 40s-31 40.5 -41 67.5
s-15 58.833 -15 95.5s5 68.5 15 95.5s23.667 49.5 41 67.5s37.5 31.333 60.5 40s47.167 13 72.5 13c21.333 0 41.166 -2.66699 59.499 -8s33.833 -12.333 46.5 -21l-20 -37c-9.33301 6 -21.5 11.5 -36.5 16.5s-31.167 7.5 -48.5 7.5c-18 0 -35.5 -3.16699 -52.5 -9.5
s-32 -16.5 -45 -30.5s-23.5 -32 -31.5 -54s-12 -48.667 -12 -80s4 -58 12 -80s18.5 -39.833 31.5 -53.5s28 -23.667 45 -30s34.5 -9.5 52.5 -9.5c17.333 0 33.5 2.33301 48.5 7s27.167 10 36.5 16z" />
    <glyph glyph-name="afii10053" unicode="&#xaa;" horiz-adv-x="600" 
d="M552 27c-18.667 -11.333 -42.833 -20.333 -72.5 -27s-62.834 -10 -99.501 -10c-43.333 0 -84.166 7.5 -122.499 22.5s-72 37.833 -101 68.5s-52 69.334 -69 116.001s-25.5 101.667 -25.5 165s8.5 118.333 25.5 165s40 85.334 69 116.001s62.667 53.5 101 68.5
s79.166 22.5 122.499 22.5c36.667 0 69.834 -3.33301 99.501 -10s53.834 -15.667 72.501 -27l-23 -48c-15.333 9.33301 -36 17 -62 23s-54.667 9 -86 9c-32.667 0 -63.834 -5.33301 -93.501 -16s-56.167 -27.5 -79.5 -50.5s-42.5 -52.167 -57.5 -87.5
s-24.167 -77.333 -27.5 -126h360v-53h-361c0.666992 -53.333 8.33398 -99.333 23.001 -138s33.667 -70.334 57 -95.001s50.5 -42.834 81.5 -54.501s63.5 -17.5 97.5 -17.5c31.333 0 60.166 3 86.499 9s46.833 13.667 61.5 23z" />
    <glyph glyph-name="afii10053" unicode="&#x404;" horiz-adv-x="600" 
d="M552 27c-18.667 -11.333 -42.833 -20.333 -72.5 -27s-62.834 -10 -99.501 -10c-43.333 0 -84.166 7.5 -122.499 22.5s-72 37.833 -101 68.5s-52 69.334 -69 116.001s-25.5 101.667 -25.5 165s8.5 118.333 25.5 165s40 85.334 69 116.001s62.667 53.5 101 68.5
s79.166 22.5 122.499 22.5c36.667 0 69.834 -3.33301 99.501 -10s53.834 -15.667 72.501 -27l-23 -48c-15.333 9.33301 -36 17 -62 23s-54.667 9 -86 9c-32.667 0 -63.834 -5.33301 -93.501 -16s-56.167 -27.5 -79.5 -50.5s-42.5 -52.167 -57.5 -87.5
s-24.167 -77.333 -27.5 -126h360v-53h-361c0.666992 -53.333 8.33398 -99.333 23.001 -138s33.667 -70.334 57 -95.001s50.5 -42.834 81.5 -54.501s63.5 -17.5 97.5 -17.5c31.333 0 60.166 3 86.499 9s46.833 13.667 61.5 23z" />
    <glyph glyph-name="guillemotleft" unicode="&#xab;" horiz-adv-x="578" 
d="M459 68l-181 237l181 237l39 -31l-158 -206l158 -206zM251 68l-182 237l182 237l39 -31l-159 -206l159 -206z" />
    <glyph glyph-name="logicalnot" unicode="&#xac;" 
d="M443 91v209h-367v50h421v-259h-54z" />
    <glyph glyph-name="uni00AD" unicode="&#xad;" horiz-adv-x="416" 
d="M75 297v56h266v-56h-266z" />
    <glyph glyph-name="registered" unicode="&#xae;" horiz-adv-x="682" 
d="M620 459c0 -38.667 -7.16699 -74.834 -21.5 -108.501s-34.166 -63 -59.499 -88s-55 -44.833 -89 -59.5s-70.333 -22 -109 -22c-39.333 0 -75.833 7.33301 -109.5 22s-63.167 34.5 -88.5 59.5s-45.166 54.333 -59.499 88s-21.5 69.834 -21.5 108.501
s7.16699 74.834 21.5 108.501s34.166 63 59.499 88s54.833 44.833 88.5 59.5s70.167 22 109.5 22c38.667 0 75 -7.33301 109 -22s63.667 -34.5 89 -59.5s45.166 -54.333 59.499 -88s21.5 -69.834 21.5 -108.501zM578 459c0 33.333 -6 64.5 -18 93.5s-28.667 54.333 -50 76
s-46.5 38.834 -75.5 51.501s-60.167 19 -93.5 19s-64.5 -6.33301 -93.5 -19s-54.167 -29.834 -75.5 -51.501s-38.166 -47 -50.499 -76s-18.5 -60.167 -18.5 -93.5s6.16699 -64.5 18.5 -93.5s29.166 -54.333 50.499 -76s46.5 -38.834 75.5 -51.501s60.167 -19 93.5 -19
s64.5 6.33301 93.5 19s54.167 29.834 75.5 51.501s38 47 50 76s18 60.167 18 93.5zM427 306l-57.001 108.999c-5.33301 10.667 -12 18.167 -20 22.5s-18.667 6.5 -32 6.5h-34v-138h-39v303c12.667 6 26.834 10.333 42.501 13s31.167 4 46.5 4c38 0 67.5 -7.66699 88.5 -23
s31.5 -37 31.5 -65c0 -23.333 -7 -41.5 -21 -54.5s-31.667 -21.833 -53 -26.5v-2c10 -5.33301 19.333 -15.666 28 -30.999l64 -118h-45zM413.999 536.999c0 17.333 -6.33398 30.833 -19.001 40.5s-32.667 14.5 -60 14.5c-9.33301 0 -18.666 -0.5 -27.999 -1.5
s-17 -2.5 -23 -4.5v-109h42c29.333 0 51.333 4.5 66 13.5s22 24.5 22 46.5z" />
    <glyph glyph-name="afii10056" unicode="&#xaf;" horiz-adv-x="235" 
d="M87 0v724h61v-724h-61zM245 854c0 -10.667 -3.66699 -19.834 -11 -27.501s-16.666 -11.5 -27.999 -11.5s-20.666 3.83301 -27.999 11.5s-11 16.834 -11 27.501s3.66699 19.667 11 27s16.666 11 27.999 11s20.666 -3.66699 27.999 -11s11 -16.333 11 -27zM69 854
c0 -10.667 -3.66699 -19.834 -11 -27.501s-16.666 -11.5 -27.999 -11.5s-20.666 3.83301 -27.999 11.5s-11 16.834 -11 27.501s3.66699 19.667 11 27s16.666 11 27.999 11s20.666 -3.66699 27.999 -11s11 -16.333 11 -27z" />
    <glyph glyph-name="afii10056" unicode="&#x407;" horiz-adv-x="235" 
d="M87 0v724h61v-724h-61zM245 854c0 -10.667 -3.66699 -19.834 -11 -27.501s-16.666 -11.5 -27.999 -11.5s-20.666 3.83301 -27.999 11.5s-11 16.834 -11 27.501s3.66699 19.667 11 27s16.666 11 27.999 11s20.666 -3.66699 27.999 -11s11 -16.333 11 -27zM69 854
c0 -10.667 -3.66699 -19.834 -11 -27.501s-16.666 -11.5 -27.999 -11.5s-20.666 3.83301 -27.999 11.5s-11 16.834 -11 27.501s3.66699 19.667 11 27s16.666 11 27.999 11s20.666 -3.66699 27.999 -11s11 -16.333 11 -27z" />
    <glyph glyph-name="degree" unicode="&#xb0;" horiz-adv-x="458" 
d="M397 569c0 -22.667 -4.33301 -44 -13 -64s-20.5 -37.5 -35.5 -52.5s-32.833 -26.833 -53.5 -35.5s-42.667 -13 -66 -13s-45.166 4.33301 -65.499 13s-38 20.5 -53 35.5s-26.833 32.5 -35.5 52.5s-13 41.333 -13 64s4.33301 44 13 64s20.5 37.5 35.5 52.5
s32.667 26.833 53 35.5s42.166 13 65.499 13s45.333 -4.33301 66 -13s38.5 -20.5 53.5 -35.5s26.833 -32.5 35.5 -52.5s13 -41.333 13 -64zM348 569c0 16.667 -3.16699 32.167 -9.5 46.5s-14.833 26.833 -25.5 37.5s-23.167 19.167 -37.5 25.5s-29.833 9.5 -46.5 9.5
s-32.167 -3.16699 -46.5 -9.5s-26.833 -14.833 -37.5 -25.5s-19.167 -23.167 -25.5 -37.5s-9.5 -29.833 -9.5 -46.5s3.16699 -32.167 9.5 -46.5s14.833 -27 25.5 -38s23.167 -19.667 37.5 -26s29.833 -9.5 46.5 -9.5s32.167 3.16699 46.5 9.5s26.833 15 37.5 26
s19.167 23.667 25.5 38s9.5 29.833 9.5 46.5z" />
    <glyph glyph-name="plusminus" unicode="&#xb1;" 
d="M313 336v-180h-53v180h-184v48h184v180h53v-180h184v-48h-184zM76 0v49h421v-49h-421z" />
    <glyph glyph-name="afii10055" unicode="&#xb2;" horiz-adv-x="235" 
d="M87 0v724h61v-724h-61z" />
    <glyph glyph-name="afii10055" unicode="&#x406;" horiz-adv-x="235" 
d="M87 0v724h61v-724h-61z" />
    <glyph glyph-name="afii10103" unicode="&#xb3;" horiz-adv-x="227" 
d="M84 0v539h59v-539h-59zM155 671c0 -11.333 -4 -21 -12 -29s-17.667 -12 -29 -12s-21 4 -29 12s-12 17.667 -12 29s4 20.833 12 28.5s17.667 11.5 29 11.5s21 -3.83301 29 -11.5s12 -17.167 12 -28.5z" />
    <glyph glyph-name="afii10103" unicode="&#x456;" horiz-adv-x="227" 
d="M84 0v539h59v-539h-59zM155 671c0 -11.333 -4 -21 -12 -29s-17.667 -12 -29 -12s-21 4 -29 12s-12 17.667 -12 29s4 20.833 12 28.5s17.667 11.5 29 11.5s21 -3.83301 29 -11.5s12 -17.167 12 -28.5z" />
    <glyph glyph-name="afii10098" unicode="&#xb4;" horiz-adv-x="419" 
d="M141 490v-490h-58v539h253v123h52v-172h-247z" />
    <glyph glyph-name="afii10098" unicode="&#x491;" horiz-adv-x="419" 
d="M141 490v-490h-58v539h253v123h52v-172h-247z" />
    <glyph glyph-name="mu" unicode="&#xb5;" horiz-adv-x="545" 
d="M466 43c-23.333 -17.333 -50.5 -30.5 -81.5 -39.5s-63.167 -13.5 -96.5 -13.5c-27.333 0 -54.333 3 -81 9s-49.667 14.667 -69 26v-240h-59v754h59v-463c18 -12 40 -21.167 66 -27.5s51.333 -9.5 76 -9.5c24 0 47.333 3.16699 70 9.5s41.667 14.833 57 25.5v465h59v-496z
" />
    <glyph glyph-name="paragraph" unicode="&#xb6;" horiz-adv-x="578" 
d="M441 -215l0.000976562 878c-18 7.33301 -39.833 13 -65.5 17s-48.834 6 -69.501 6c-3.33301 0 -6.5 -0.166992 -9.5 -0.5s-5.5 -0.5 -7.5 -0.5h-7v-900h-50v552c-49.333 8 -89.5 28.5 -120.5 61.5s-46.5 77.5 -46.5 133.5c0 66.667 20.667 117 62 151s97.333 51 168 51
c42 0 79.167 -3.33301 111.5 -10s60.833 -15.667 85.5 -27v-912h-51z" />
    <glyph glyph-name="periodcentered" unicode="&#xb7;" horiz-adv-x="244" 
d="M167 325c0 -12.667 -4.33301 -23.334 -13 -32.001s-19.334 -13 -32.001 -13s-23.334 4.33301 -32.001 13s-13 19.334 -13 32.001s4.33301 23.334 13 32.001s19.334 13 32.001 13s23.334 -4.33301 32.001 -13s13 -19.334 13 -32.001z" />
    <glyph glyph-name="afii10071" unicode="&#xb8;" horiz-adv-x="552" 
d="M407 669c0 -10.667 -3.66699 -19.834 -11 -27.501s-16.666 -11.5 -27.999 -11.5s-20.666 3.83301 -27.999 11.5s-11 16.834 -11 27.501s3.66699 19.667 11 27s16.666 11 27.999 11s20.666 -3.66699 27.999 -11s11 -16.333 11 -27zM231 669
c0 -10.667 -3.66699 -19.834 -11 -27.501s-16.666 -11.5 -27.999 -11.5s-20.666 3.83301 -27.999 11.5s-11 16.834 -11 27.501s3.66699 19.667 11 27s16.666 11 27.999 11s20.666 -3.66699 27.999 -11s11 -16.333 11 -27zM494 326l0.000976562 -15.998
c0 -4.66699 -0.333008 -10 -1 -16l-378 -56c4 -66.667 23.333 -116.5 58 -149.5s80.667 -49.5 138 -49.5c27.333 0 54.166 3.16699 80.499 9.5s48.166 14.5 65.499 24.5l20 -46c-18 -10.667 -42 -19.5 -72 -26.5s-62 -10.5 -96 -10.5c-77.333 0 -138.5 23.667 -183.5 71
s-67.5 117 -67.5 209c0 41.333 5.33301 79.166 16 113.499s25.834 63.666 45.501 87.999s43.5 43.333 71.5 57s59.667 20.5 95 20.5c62.667 0 113 -19.333 151 -58s57 -93.667 57 -165zM437.001 330.002c-0.666992 58.667 -14.668 101.999 -42.001 129.999
s-63.666 42 -108.999 42c-26.667 0 -50.5 -5.16699 -71.5 -15.5s-39 -25.166 -54 -44.499s-26.667 -42.5 -35 -69.5s-12.833 -56.833 -13.5 -89.5z" />
    <glyph glyph-name="afii10071" unicode="&#x451;" horiz-adv-x="552" 
d="M407 669c0 -10.667 -3.66699 -19.834 -11 -27.501s-16.666 -11.5 -27.999 -11.5s-20.666 3.83301 -27.999 11.5s-11 16.834 -11 27.501s3.66699 19.667 11 27s16.666 11 27.999 11s20.666 -3.66699 27.999 -11s11 -16.333 11 -27zM231 669
c0 -10.667 -3.66699 -19.834 -11 -27.501s-16.666 -11.5 -27.999 -11.5s-20.666 3.83301 -27.999 11.5s-11 16.834 -11 27.501s3.66699 19.667 11 27s16.666 11 27.999 11s20.666 -3.66699 27.999 -11s11 -16.333 11 -27zM494 326l0.000976562 -15.998
c0 -4.66699 -0.333008 -10 -1 -16l-378 -56c4 -66.667 23.333 -116.5 58 -149.5s80.667 -49.5 138 -49.5c27.333 0 54.166 3.16699 80.499 9.5s48.166 14.5 65.499 24.5l20 -46c-18 -10.667 -42 -19.5 -72 -26.5s-62 -10.5 -96 -10.5c-77.333 0 -138.5 23.667 -183.5 71
s-67.5 117 -67.5 209c0 41.333 5.33301 79.166 16 113.499s25.834 63.666 45.501 87.999s43.5 43.333 71.5 57s59.667 20.5 95 20.5c62.667 0 113 -19.333 151 -58s57 -93.667 57 -165zM437.001 330.002c-0.666992 58.667 -14.668 101.999 -42.001 129.999
s-63.666 42 -108.999 42c-26.667 0 -50.5 -5.16699 -71.5 -15.5s-39 -25.166 -54 -44.499s-26.667 -42.5 -35 -69.5s-12.833 -56.833 -13.5 -89.5z" />
    <glyph glyph-name="afii61352" unicode="&#xb9;" horiz-adv-x="1086" 
d="M546 0l-364.001 577l-16 27c-5.33301 9.33301 -9.66602 17.666 -12.999 24.999c-4.66699 8.66699 -8.66699 17 -12 25h-2c0 -9.33301 0.333008 -18.666 1 -27.999c0 -8.66699 0.166992 -18 0.5 -28s0.5 -20 0.5 -30v-568h-56v724h68l359 -568l15.5 -27l13.5 -24l13 -25h2
c-0.666992 8.66699 -1 18 -1 28v616h56v-724h-65zM1029 549c0 -26.667 -3.33301 -51.334 -10 -74.001s-16.667 -42.334 -30 -59.001s-29.833 -29.667 -49.5 -39s-42.5 -14 -68.5 -14s-48.833 4.66699 -68.5 14s-36.167 22.333 -49.5 39s-23.333 36.334 -30 59.001
s-10 47.334 -10 74.001s3.33301 51.167 10 73.5s16.667 41.833 30 58.5s29.833 29.667 49.5 39s42.5 14 68.5 14s48.833 -4.66699 68.5 -14s36.167 -22.333 49.5 -39s23.333 -36.167 30 -58.5s10 -46.833 10 -73.5zM978.999 549c0 42 -9 76.333 -27 103s-45 40 -81 40
s-63.167 -13.333 -81.5 -40s-27.5 -61 -27.5 -103s9.16699 -76.5 27.5 -103.5s45.5 -40.5 81.5 -40.5s63 13.5 81 40.5s27 61.5 27 103.5zM722.999 233v43h296v-43h-296z" />
    <glyph glyph-name="afii61352" unicode="&#x2116;" horiz-adv-x="1086" 
d="M546 0l-364.001 577l-16 27c-5.33301 9.33301 -9.66602 17.666 -12.999 24.999c-4.66699 8.66699 -8.66699 17 -12 25h-2c0 -9.33301 0.333008 -18.666 1 -27.999c0 -8.66699 0.166992 -18 0.5 -28s0.5 -20 0.5 -30v-568h-56v724h68l359 -568l15.5 -27l13.5 -24l13 -25h2
c-0.666992 8.66699 -1 18 -1 28v616h56v-724h-65zM1029 549c0 -26.667 -3.33301 -51.334 -10 -74.001s-16.667 -42.334 -30 -59.001s-29.833 -29.667 -49.5 -39s-42.5 -14 -68.5 -14s-48.833 4.66699 -68.5 14s-36.167 22.333 -49.5 39s-23.333 36.334 -30 59.001
s-10 47.334 -10 74.001s3.33301 51.167 10 73.5s16.667 41.833 30 58.5s29.833 29.667 49.5 39s42.5 14 68.5 14s48.833 -4.66699 68.5 -14s36.167 -22.333 49.5 -39s23.333 -36.167 30 -58.5s10 -46.833 10 -73.5zM978.999 549c0 42 -9 76.333 -27 103s-45 40 -81 40
s-63.167 -13.333 -81.5 -40s-27.5 -61 -27.5 -103s9.16699 -76.5 27.5 -103.5s45.5 -40.5 81.5 -40.5s63 13.5 81 40.5s27 61.5 27 103.5zM722.999 233v43h296v-43h-296z" />
    <glyph glyph-name="afii10101" unicode="&#xba;" horiz-adv-x="501" 
d="M455 27c-17.333 -12 -38.666 -21.1689 -63.999 -27.502s-51 -9.5 -77 -9.5c-35.333 0 -68.5 5.66699 -99.5 17s-58 28.5 -81 51.5s-41.333 52 -55 87s-20.5 76.5 -20.5 124.5s6.83301 89.5 20.5 124.5s32 64 55 87s50 40 81 51s64.167 16.5 99.5 16.5
c26 0 51.833 -3.16699 77.5 -9.5s46.834 -15.5 63.501 -27.5l-21 -42c-12.667 9.33301 -30.167 17 -52.5 23s-44.166 9 -65.499 9c-24.667 0 -48.334 -3.83301 -71.001 -11.5s-43 -19.667 -61 -36s-32.833 -37.166 -44.5 -62.499s-18.834 -55.666 -21.501 -90.999h282v-46
h-283c1.33301 -38 7.5 -70.667 18.5 -98s25.5 -50 43.5 -68s38.833 -31.167 62.5 -39.5s48.5 -12.5 74.5 -12.5c21.333 0 43.166 3 65.499 9s39.833 13.667 52.5 23z" />
    <glyph glyph-name="afii10101" unicode="&#x454;" horiz-adv-x="501" 
d="M455 27c-17.333 -12 -38.666 -21.1689 -63.999 -27.502s-51 -9.5 -77 -9.5c-35.333 0 -68.5 5.66699 -99.5 17s-58 28.5 -81 51.5s-41.333 52 -55 87s-20.5 76.5 -20.5 124.5s6.83301 89.5 20.5 124.5s32 64 55 87s50 40 81 51s64.167 16.5 99.5 16.5
c26 0 51.833 -3.16699 77.5 -9.5s46.834 -15.5 63.501 -27.5l-21 -42c-12.667 9.33301 -30.167 17 -52.5 23s-44.166 9 -65.499 9c-24.667 0 -48.334 -3.83301 -71.001 -11.5s-43 -19.667 -61 -36s-32.833 -37.166 -44.5 -62.499s-18.834 -55.666 -21.501 -90.999h282v-46
h-283c1.33301 -38 7.5 -70.667 18.5 -98s25.5 -50 43.5 -68s38.833 -31.167 62.5 -39.5s48.5 -12.5 74.5 -12.5c21.333 0 43.166 3 65.499 9s39.833 13.667 52.5 23z" />
    <glyph glyph-name="guillemotright" unicode="&#xbb;" horiz-adv-x="578" 
d="M327 68l-39 31l159 206l-159 206l39 31l182 -237zM119 68l-39 31l158 206l-158 206l39 31l181 -237z" />
    <glyph glyph-name="afii10105" unicode="&#xbc;" horiz-adv-x="227" 
d="M143 51c0 -42 -5.33496 -78.667 -16.002 -110s-25.167 -58 -43.5 -80s-39.333 -39.667 -63 -53s-48.5 -23 -74.5 -29v53c18.667 6 36.334 14.833 53.001 26.5s31.334 26.5 44.001 44.5s22.667 39.167 30 63.5s11 52.5 11 84.5v488h59v-488zM154.998 671
c0 -11.333 -4 -21 -12 -29s-17.667 -12 -29 -12s-21 4 -29 12s-12 17.667 -12 29s4 20.833 12 28.5s17.667 11.5 29 11.5s21 -3.83301 29 -11.5s12 -17.167 12 -28.5z" />
    <glyph glyph-name="afii10105" unicode="&#x458;" horiz-adv-x="227" 
d="M143 51c0 -42 -5.33496 -78.667 -16.002 -110s-25.167 -58 -43.5 -80s-39.333 -39.667 -63 -53s-48.5 -23 -74.5 -29v53c18.667 6 36.334 14.833 53.001 26.5s31.334 26.5 44.001 44.5s22.667 39.167 30 63.5s11 52.5 11 84.5v488h59v-488zM154.998 671
c0 -11.333 -4 -21 -12 -29s-17.667 -12 -29 -12s-21 4 -29 12s-12 17.667 -12 29s4 20.833 12 28.5s17.667 11.5 29 11.5s21 -3.83301 29 -11.5s12 -17.167 12 -28.5z" />
    <glyph glyph-name="afii10054" unicode="&#xbd;" horiz-adv-x="522" 
d="M461 190c0 -31.333 -5.99609 -59.3301 -17.9961 -83.9971s-28.5 -45.667 -49.5 -63s-46.167 -30.5 -75.5 -39.5s-61.333 -13.5 -96 -13.5c-32.667 0 -63.834 3.33301 -93.501 10s-54.834 15.667 -75.501 27l23 53c16.667 -9.33301 38 -17.5 64 -24.5s53 -10.5 81 -10.5
c26 0 49.833 3.16699 71.5 9.5s40.334 15.666 56.001 27.999s28 27.333 37 45s13.5 38.167 13.5 61.5c0 20.667 -4.16699 38.667 -12.5 54s-19.5 28.833 -33.5 40.5s-29.833 22.167 -47.5 31.5s-35.834 18 -54.501 26c-24 10 -47.333 21 -70 33s-43 26 -61 42
s-32.5 34.5 -43.5 55.5s-16.5 45.833 -16.5 74.5c0 29.333 5.5 55.666 16.5 78.999s26.167 43 45.5 59s42.166 28.333 68.499 37s55.166 13 86.499 13c32 0 61.667 -3.5 89 -10.5s49 -15.833 65 -26.5l-23 -51c-14 8.66699 -32.833 16.5 -56.5 23.5s-48.167 10.5 -73.5 10.5
c-22.667 0 -43.667 -3 -63 -9s-36 -14.5 -50 -25.5s-24.833 -24.833 -32.5 -41.5s-11.5 -35.334 -11.5 -56.001s4.66699 -38.834 14 -54.501s21.5 -29.5 36.5 -41.5s31.833 -22.667 50.5 -32s37.667 -18 57 -26c22 -10 43.833 -20.667 65.5 -32s41.167 -24.833 58.5 -40.5
s31.333 -34.167 42 -55.5s16 -46.666 16 -75.999z" />
    <glyph glyph-name="afii10054" unicode="&#x405;" horiz-adv-x="522" 
d="M461 190c0 -31.333 -5.99609 -59.3301 -17.9961 -83.9971s-28.5 -45.667 -49.5 -63s-46.167 -30.5 -75.5 -39.5s-61.333 -13.5 -96 -13.5c-32.667 0 -63.834 3.33301 -93.501 10s-54.834 15.667 -75.501 27l23 53c16.667 -9.33301 38 -17.5 64 -24.5s53 -10.5 81 -10.5
c26 0 49.833 3.16699 71.5 9.5s40.334 15.666 56.001 27.999s28 27.333 37 45s13.5 38.167 13.5 61.5c0 20.667 -4.16699 38.667 -12.5 54s-19.5 28.833 -33.5 40.5s-29.833 22.167 -47.5 31.5s-35.834 18 -54.501 26c-24 10 -47.333 21 -70 33s-43 26 -61 42
s-32.5 34.5 -43.5 55.5s-16.5 45.833 -16.5 74.5c0 29.333 5.5 55.666 16.5 78.999s26.167 43 45.5 59s42.166 28.333 68.499 37s55.166 13 86.499 13c32 0 61.667 -3.5 89 -10.5s49 -15.833 65 -26.5l-23 -51c-14 8.66699 -32.833 16.5 -56.5 23.5s-48.167 10.5 -73.5 10.5
c-22.667 0 -43.667 -3 -63 -9s-36 -14.5 -50 -25.5s-24.833 -24.833 -32.5 -41.5s-11.5 -35.334 -11.5 -56.001s4.66699 -38.834 14 -54.501s21.5 -29.5 36.5 -41.5s31.833 -22.667 50.5 -32s37.667 -18 57 -26c22 -10 43.833 -20.667 65.5 -32s41.167 -24.833 58.5 -40.5
s31.333 -34.167 42 -55.5s16 -46.666 16 -75.999z" />
    <glyph glyph-name="afii10102" unicode="&#xbe;" horiz-adv-x="448" 
d="M393 138c0 -44.667 -16.9961 -80.5039 -50.9961 -107.504s-81 -40.5 -141 -40.5c-27.333 0 -55 3.33301 -83 10s-51.667 15.667 -71 27l23 46c7.33301 -4.66699 16.166 -9 26.499 -13s21.333 -7.5 33 -10.5s23.5 -5.5 35.5 -7.5s23.667 -3 35 -3c40 0 72 9 96 27
s36 42.333 36 73c0 16 -3 29.833 -9 41.5s-14.5 21.834 -25.5 30.501s-24 16.334 -39 23.001s-31.167 13.334 -48.5 20.001c-20 7.33301 -39 15.333 -57 24s-33.833 18.834 -47.5 30.501s-24.5 25.667 -32.5 42s-12 36.166 -12 59.499c0 19.333 3.83301 37.5 11.5 54.5
s18.667 31.667 33 44s32.166 22.166 53.499 29.499s45.666 11 72.999 11c28.667 0 55.167 -3.5 79.5 -10.5s45.166 -15.833 62.499 -26.5l-23 -44c-12.667 8.66699 -29.5 16.334 -50.5 23.001s-42.5 10 -64.5 10c-36.667 0 -65 -8.83301 -85 -26.5s-30 -39.167 -30 -64.5
c0 -16 2.83301 -29.667 8.5 -41s13.667 -21.166 24 -29.499s22.5 -15.666 36.5 -21.999s29.333 -12.5 46 -18.5c20.667 -8 40.5 -16.333 59.5 -25s35.833 -19 50.5 -31s26.167 -26.333 34.5 -43s12.5 -37.334 12.5 -62.001z" />
    <glyph glyph-name="afii10102" unicode="&#x455;" horiz-adv-x="448" 
d="M393 138c0 -44.667 -16.9961 -80.5039 -50.9961 -107.504s-81 -40.5 -141 -40.5c-27.333 0 -55 3.33301 -83 10s-51.667 15.667 -71 27l23 46c7.33301 -4.66699 16.166 -9 26.499 -13s21.333 -7.5 33 -10.5s23.5 -5.5 35.5 -7.5s23.667 -3 35 -3c40 0 72 9 96 27
s36 42.333 36 73c0 16 -3 29.833 -9 41.5s-14.5 21.834 -25.5 30.501s-24 16.334 -39 23.001s-31.167 13.334 -48.5 20.001c-20 7.33301 -39 15.333 -57 24s-33.833 18.834 -47.5 30.501s-24.5 25.667 -32.5 42s-12 36.166 -12 59.499c0 19.333 3.83301 37.5 11.5 54.5
s18.667 31.667 33 44s32.166 22.166 53.499 29.499s45.666 11 72.999 11c28.667 0 55.167 -3.5 79.5 -10.5s45.166 -15.833 62.499 -26.5l-23 -44c-12.667 8.66699 -29.5 16.334 -50.5 23.001s-42.5 10 -64.5 10c-36.667 0 -65 -8.83301 -85 -26.5s-30 -39.167 -30 -64.5
c0 -16 2.83301 -29.667 8.5 -41s13.667 -21.166 24 -29.499s22.5 -15.666 36.5 -21.999s29.333 -12.5 46 -18.5c20.667 -8 40.5 -16.333 59.5 -25s35.833 -19 50.5 -31s26.167 -26.333 34.5 -43s12.5 -37.334 12.5 -62.001z" />
    <glyph glyph-name="afii10104" unicode="&#xbf;" horiz-adv-x="227" 
d="M84 0v539h59v-539h-59zM241 669c0 -10.667 -3.66699 -19.834 -11 -27.501s-16.666 -11.5 -27.999 -11.5s-20.666 3.83301 -27.999 11.5s-11 16.834 -11 27.501s3.66699 19.667 11 27s16.666 11 27.999 11s20.666 -3.66699 27.999 -11s11 -16.333 11 -27zM65 669
c0 -10.667 -3.66699 -19.834 -11 -27.501s-16.666 -11.5 -27.999 -11.5s-20.666 3.83301 -27.999 11.5s-11 16.834 -11 27.501s3.66699 19.667 11 27s16.666 11 27.999 11s20.666 -3.66699 27.999 -11s11 -16.333 11 -27z" />
    <glyph glyph-name="afii10104" unicode="&#x457;" horiz-adv-x="227" 
d="M84 0v539h59v-539h-59zM241 669c0 -10.667 -3.66699 -19.834 -11 -27.501s-16.666 -11.5 -27.999 -11.5s-20.666 3.83301 -27.999 11.5s-11 16.834 -11 27.501s3.66699 19.667 11 27s16.666 11 27.999 11s20.666 -3.66699 27.999 -11s11 -16.333 11 -27zM65 669
c0 -10.667 -3.66699 -19.834 -11 -27.501s-16.666 -11.5 -27.999 -11.5s-20.666 3.83301 -27.999 11.5s-11 16.834 -11 27.501s3.66699 19.667 11 27s16.666 11 27.999 11s20.666 -3.66699 27.999 -11s11 -16.333 11 -27z" />
    <glyph glyph-name="afii10017" unicode="&#xc0;" horiz-adv-x="653" 
d="M562 0l-83 231h-305l-83 -231h-64l265 724h69l265 -724h-64zM351 592c-3.33301 9.33301 -6.5 18.833 -9.5 28.5s-5.5 18.5 -7.5 26.5c-2.66699 9.33301 -5 18.333 -7 27h-2c-2 -8.66699 -4.33301 -17.667 -7 -27c-2 -8 -4.33301 -16.833 -7 -26.5
s-5.66699 -19.167 -9 -28.5l-112 -313h273z" />
    <glyph glyph-name="afii10017" unicode="&#x410;" horiz-adv-x="653" 
d="M562 0l-83 231h-305l-83 -231h-64l265 724h69l265 -724h-64zM351 592c-3.33301 9.33301 -6.5 18.833 -9.5 28.5s-5.5 18.5 -7.5 26.5c-2.66699 9.33301 -5 18.333 -7 27h-2c-2 -8.66699 -4.33301 -17.667 -7 -27c-2 -8 -4.33301 -16.833 -7 -26.5
s-5.66699 -19.167 -9 -28.5l-112 -313h273z" />
    <glyph glyph-name="afii10018" unicode="&#xc1;" horiz-adv-x="583" 
d="M526 206c0 -32.667 -5.50293 -62.332 -16.5029 -88.999s-27.167 -49.334 -48.5 -68.001s-47.666 -33.167 -78.999 -43.5s-67.666 -15.5 -108.999 -15.5c-34 0 -67.667 3.33301 -101 10s-61.666 15.667 -84.999 27v697h366v-53h-306v-262
c11.333 3.33301 27.5 6.5 48.5 9.5s42.167 4.5 63.5 4.5c42.667 0 80.5 -5.16699 113.5 -15.5s60.833 -24.833 83.5 -43.5s40 -41.5 52 -68.5s18 -56.833 18 -89.5zM463.997 207.002c0 52.667 -17.833 93.5 -53.5 122.5s-87.167 43.5 -154.5 43.5
c-9.33301 0 -19 -0.333008 -29 -1s-20 -1.66699 -30 -3s-19.333 -2.83301 -28 -4.5s-16 -3.5 -22 -5.5v-298c13.333 -6 31.5 -10.833 54.5 -14.5s46.833 -5.5 71.5 -5.5c63.333 0 111 14.5 143 43.5s48 69.833 48 122.5z" />
    <glyph glyph-name="afii10018" unicode="&#x411;" horiz-adv-x="583" 
d="M526 206c0 -32.667 -5.50293 -62.332 -16.5029 -88.999s-27.167 -49.334 -48.5 -68.001s-47.666 -33.167 -78.999 -43.5s-67.666 -15.5 -108.999 -15.5c-34 0 -67.667 3.33301 -101 10s-61.666 15.667 -84.999 27v697h366v-53h-306v-262
c11.333 3.33301 27.5 6.5 48.5 9.5s42.167 4.5 63.5 4.5c42.667 0 80.5 -5.16699 113.5 -15.5s60.833 -24.833 83.5 -43.5s40 -41.5 52 -68.5s18 -56.833 18 -89.5zM463.997 207.002c0 52.667 -17.833 93.5 -53.5 122.5s-87.167 43.5 -154.5 43.5
c-9.33301 0 -19 -0.333008 -29 -1s-20 -1.66699 -30 -3s-19.333 -2.83301 -28 -4.5s-16 -3.5 -22 -5.5v-298c13.333 -6 31.5 -10.833 54.5 -14.5s46.833 -5.5 71.5 -5.5c63.333 0 111 14.5 143 43.5s48 69.833 48 122.5z" />
    <glyph glyph-name="afii10019" unicode="&#xc2;" horiz-adv-x="603" 
d="M546 190c0 -62.667 -23.335 -111.666 -70.002 -146.999s-112 -53 -196 -53c-16.667 0 -34 1 -52 3s-35.667 4.66699 -53 8s-33.666 7.16602 -48.999 11.499s-28.333 9.16602 -39 14.499v670c22.667 10.667 50.667 19.5 84 26.5s68.333 10.5 105 10.5
c78.667 0 138.834 -16.833 180.501 -50.5s62.5 -78.167 62.5 -133.5c0 -25.333 -4 -47.666 -12 -66.999s-18.167 -36 -30.5 -50s-26 -25.5 -41 -34.5s-29.5 -15.167 -43.5 -18.5v-2c16 -3.33301 33 -9.33301 51 -18s34.667 -20.5 50 -35.5s28 -33.5 38 -55.5
s15 -48.333 15 -79zM459.998 547.001c0 43.333 -16.333 77 -49 101s-77.667 36 -135 36c-25.333 0 -49.666 -2 -72.999 -6s-42.333 -9 -57 -15v-265h113c19.333 0 36 0.5 50 1.5s26.5 2.66699 37.5 5s21.167 5.5 30.5 9.5s18.666 9.33301 27.999 16
c16.667 11.333 30 27.5 40 48.5s15 43.833 15 68.5zM484.998 192.001c0 62 -25.667 106 -77 132c-10 4.66699 -19.667 8.66699 -29 12s-19.5 6 -30.5 8s-23.333 3.5 -37 4.5s-29.5 1.5 -47.5 1.5h-118v-289c16 -6 36.5 -11 61.5 -15s49.167 -6 72.5 -6
c65.333 0 115.833 13.333 151.5 40s53.5 64 53.5 112z" />
    <glyph glyph-name="afii10019" unicode="&#x412;" horiz-adv-x="603" 
d="M546 190c0 -62.667 -23.335 -111.666 -70.002 -146.999s-112 -53 -196 -53c-16.667 0 -34 1 -52 3s-35.667 4.66699 -53 8s-33.666 7.16602 -48.999 11.499s-28.333 9.16602 -39 14.499v670c22.667 10.667 50.667 19.5 84 26.5s68.333 10.5 105 10.5
c78.667 0 138.834 -16.833 180.501 -50.5s62.5 -78.167 62.5 -133.5c0 -25.333 -4 -47.666 -12 -66.999s-18.167 -36 -30.5 -50s-26 -25.5 -41 -34.5s-29.5 -15.167 -43.5 -18.5v-2c16 -3.33301 33 -9.33301 51 -18s34.667 -20.5 50 -35.5s28 -33.5 38 -55.5
s15 -48.333 15 -79zM459.998 547.001c0 43.333 -16.333 77 -49 101s-77.667 36 -135 36c-25.333 0 -49.666 -2 -72.999 -6s-42.333 -9 -57 -15v-265h113c19.333 0 36 0.5 50 1.5s26.5 2.66699 37.5 5s21.167 5.5 30.5 9.5s18.666 9.33301 27.999 16
c16.667 11.333 30 27.5 40 48.5s15 43.833 15 68.5zM484.998 192.001c0 62 -25.667 106 -77 132c-10 4.66699 -19.667 8.66699 -29 12s-19.5 6 -30.5 8s-23.333 3.5 -37 4.5s-29.5 1.5 -47.5 1.5h-118v-289c16 -6 36.5 -11 61.5 -15s49.167 -6 72.5 -6
c65.333 0 115.833 13.333 151.5 40s53.5 64 53.5 112z" />
    <glyph glyph-name="afii10020" unicode="&#xc3;" horiz-adv-x="480" 
d="M149 671v-671h-60v724h357v-53h-297z" />
    <glyph glyph-name="afii10020" unicode="&#x413;" horiz-adv-x="480" 
d="M149 671v-671h-60v724h357v-53h-297z" />
    <glyph glyph-name="afii10021" unicode="&#xc4;" horiz-adv-x="743" 
d="M679 -146h-47.001l-4 146h-531l-4 -146h-48l-4 184c34 29.333 62.667 64.833 86 106.5s42.5 85.5 57.5 131.5s26.833 92.167 35.5 138.5s15.334 88.833 20.001 127.5l22 182h302l77 -671l42 -15zM509.999 671h-195l-15 -134c-4.66699 -39.333 -11.167 -81.5 -19.5 -126.5
s-19.333 -89.5 -33 -133.5s-30.167 -85.833 -49.5 -125.5s-42 -73.5 -68 -101.5h450z" />
    <glyph glyph-name="afii10021" unicode="&#x414;" horiz-adv-x="743" 
d="M679 -146h-47.001l-4 146h-531l-4 -146h-48l-4 184c34 29.333 62.667 64.833 86 106.5s42.5 85.5 57.5 131.5s26.833 92.167 35.5 138.5s15.334 88.833 20.001 127.5l22 182h302l77 -671l42 -15zM509.999 671h-195l-15 -134c-4.66699 -39.333 -11.167 -81.5 -19.5 -126.5
s-19.333 -89.5 -33 -133.5s-30.167 -85.833 -49.5 -125.5s-42 -73.5 -68 -101.5h450z" />
    <glyph glyph-name="afii10022" unicode="&#xc5;" horiz-adv-x="507" 
d="M85 0v724h370v-53h-310v-270h287v-53h-287v-295h310v-53h-370z" />
    <glyph glyph-name="afii10022" unicode="&#x415;" horiz-adv-x="507" 
d="M85 0v724h370v-53h-310v-270h287v-53h-287v-295h310v-53h-370z" />
    <glyph glyph-name="afii10024" unicode="&#xc6;" horiz-adv-x="859" 
d="M765 0l-125.998 235c-18.667 34 -42.834 62.667 -72.501 86s-65.5 35 -107.5 35v-356h-59v356c-42 0 -77.833 -11.667 -107.5 -35s-53.834 -52 -72.501 -86l-126 -235h-68l135 248c20 37.333 44 67.5 72 90.5s59 39.167 93 48.5l-284 337h75l281 -344h2v344h59v-344h2
l281 344h75l-284 -337c34 -9.33301 65 -25.5 93 -48.5s52 -53.167 72 -90.5l135 -248h-68z" />
    <glyph glyph-name="afii10024" unicode="&#x416;" horiz-adv-x="859" 
d="M765 0l-125.998 235c-18.667 34 -42.834 62.667 -72.501 86s-65.5 35 -107.5 35v-356h-59v356c-42 0 -77.833 -11.667 -107.5 -35s-53.834 -52 -72.501 -86l-126 -235h-68l135 248c20 37.333 44 67.5 72 90.5s59 39.167 93 48.5l-284 337h75l281 -344h2v344h59v-344h2
l281 344h75l-284 -337c34 -9.33301 65 -25.5 93 -48.5s52 -53.167 72 -90.5l135 -248h-68z" />
    <glyph glyph-name="afii10025" unicode="&#xc7;" horiz-adv-x="562" 
d="M504 202c0 -32 -6.16602 -61.002 -18.499 -87.002s-30.166 -48.333 -53.499 -67s-51.666 -33 -84.999 -43s-71 -15 -113 -15c-34.667 0 -68.667 3.33301 -102 10s-63.333 15.667 -90 27l22 49c21.333 -9.33301 47.166 -17.166 77.499 -23.499s61.166 -9.5 92.499 -9.5
c64.667 0 115.5 14 152.5 42s55.5 67 55.5 117c0 28 -6.66699 52 -20 72s-31.5 36.5 -54.5 49.5s-50 22.667 -81 29s-64.5 9.5 -100.5 9.5h-16c-6 0 -11.667 -0.333008 -17 -1v48c34.667 0 67.5 3.83301 98.5 11.5s58.167 18.167 81.5 31.5s41.833 29.333 55.5 48
s20.5 39.334 20.5 62.001c0 40 -14.833 69.833 -44.5 89.5s-72.167 29.5 -127.5 29.5c-28 0 -56.5 -2.83301 -85.5 -8.5s-55.167 -13.5 -78.5 -23.5l-22 48c25.333 11.333 54.333 20.333 87 27s67 10 103 10c72.667 0 129 -15 169 -45s60 -71.667 60 -125
c0 -22.667 -5 -43.167 -15 -61.5s-22.667 -34.666 -38 -48.999s-32.833 -26.333 -52.5 -36s-38.834 -16.834 -57.501 -21.501v-2c20.667 -3.33301 42.5 -9.16602 65.5 -17.499s44.167 -20 63.5 -35s35.5 -33.833 48.5 -56.5s19.5 -50.334 19.5 -83.001z" />
    <glyph glyph-name="afii10025" unicode="&#x417;" horiz-adv-x="562" 
d="M504 202c0 -32 -6.16602 -61.002 -18.499 -87.002s-30.166 -48.333 -53.499 -67s-51.666 -33 -84.999 -43s-71 -15 -113 -15c-34.667 0 -68.667 3.33301 -102 10s-63.333 15.667 -90 27l22 49c21.333 -9.33301 47.166 -17.166 77.499 -23.499s61.166 -9.5 92.499 -9.5
c64.667 0 115.5 14 152.5 42s55.5 67 55.5 117c0 28 -6.66699 52 -20 72s-31.5 36.5 -54.5 49.5s-50 22.667 -81 29s-64.5 9.5 -100.5 9.5h-16c-6 0 -11.667 -0.333008 -17 -1v48c34.667 0 67.5 3.83301 98.5 11.5s58.167 18.167 81.5 31.5s41.833 29.333 55.5 48
s20.5 39.334 20.5 62.001c0 40 -14.833 69.833 -44.5 89.5s-72.167 29.5 -127.5 29.5c-28 0 -56.5 -2.83301 -85.5 -8.5s-55.167 -13.5 -78.5 -23.5l-22 48c25.333 11.333 54.333 20.333 87 27s67 10 103 10c72.667 0 129 -15 169 -45s60 -71.667 60 -125
c0 -22.667 -5 -43.167 -15 -61.5s-22.667 -34.666 -38 -48.999s-32.833 -26.333 -52.5 -36s-38.834 -16.834 -57.501 -21.501v-2c20.667 -3.33301 42.5 -9.16602 65.5 -17.499s44.167 -20 63.5 -35s35.5 -33.833 48.5 -56.5s19.5 -50.334 19.5 -83.001z" />
    <glyph glyph-name="afii10026" unicode="&#xc8;" horiz-adv-x="698" 
d="M556 0v598.001c0 10 0.333008 19.333 1 28c0 9.33301 0.333008 18.666 1 27.999h-2l-13 -25l-13.5 -25c-5 -9.33301 -10.167 -18.333 -15.5 -27l-365 -577h-64v724h57v-557c0 -10.667 -0.166992 -21 -0.5 -31s-0.5 -19.333 -0.5 -28v-28h2l13 25l13.5 24l15.5 27l360 568
h68v-724h-57z" />
    <glyph glyph-name="afii10026" unicode="&#x418;" horiz-adv-x="698" 
d="M556 0v598.001c0 10 0.333008 19.333 1 28c0 9.33301 0.333008 18.666 1 27.999h-2l-13 -25l-13.5 -25c-5 -9.33301 -10.167 -18.333 -15.5 -27l-365 -577h-64v724h57v-557c0 -10.667 -0.166992 -21 -0.5 -31s-0.5 -19.333 -0.5 -28v-28h2l13 25l13.5 24l15.5 27l360 568
h68v-724h-57z" />
    <glyph glyph-name="afii10027" unicode="&#xc9;" horiz-adv-x="698" 
d="M556 0v598.001c0 10 0.333008 19.333 1 28c0 9.33301 0.333008 18.666 1 27.999h-2l-13 -25l-13.5 -25c-5 -9.33301 -10.167 -18.333 -15.5 -27l-365 -577h-64v724h57v-557c0 -10.667 -0.166992 -21 -0.5 -31s-0.5 -19.333 -0.5 -28v-28h2l13 25l13.5 24l15.5 27l360 568
h68v-724h-57zM475 913.001c-2.66699 -38.667 -15.333 -69.5 -38 -92.5s-53 -34.5 -91 -34.5s-68.5 11.5 -91.5 34.5s-35.833 53.833 -38.5 92.5l41 6c5.33301 -29.333 15 -51.333 29 -66s34 -22 60 -22s45.833 7.33301 59.5 22s23.167 36.667 28.5 66z" />
    <glyph glyph-name="afii10027" unicode="&#x419;" horiz-adv-x="698" 
d="M556 0v598.001c0 10 0.333008 19.333 1 28c0 9.33301 0.333008 18.666 1 27.999h-2l-13 -25l-13.5 -25c-5 -9.33301 -10.167 -18.333 -15.5 -27l-365 -577h-64v724h57v-557c0 -10.667 -0.166992 -21 -0.5 -31s-0.5 -19.333 -0.5 -28v-28h2l13 25l13.5 24l15.5 27l360 568
h68v-724h-57zM475 913.001c-2.66699 -38.667 -15.333 -69.5 -38 -92.5s-53 -34.5 -91 -34.5s-68.5 11.5 -91.5 34.5s-35.833 53.833 -38.5 92.5l41 6c5.33301 -29.333 15 -51.333 29 -66s34 -22 60 -22s45.833 7.33301 59.5 22s23.167 36.667 28.5 66z" />
    <glyph glyph-name="afii10028" unicode="&#xca;" horiz-adv-x="581" 
d="M485 0l-127.001 225.001c-21.333 37.333 -49.666 68.166 -84.999 92.499s-77 36.5 -125 36.5v-354h-61v724h61v-342h2l314 342h78l-317 -337c84 -20 148.333 -69.333 193 -148l138 -239h-71z" />
    <glyph glyph-name="afii10028" unicode="&#x41a;" horiz-adv-x="581" 
d="M485 0l-127.001 225.001c-21.333 37.333 -49.666 68.166 -84.999 92.499s-77 36.5 -125 36.5v-354h-61v724h61v-342h2l314 342h78l-317 -337c84 -20 148.333 -69.333 193 -148l138 -239h-71z" />
    <glyph glyph-name="afii10029" unicode="&#xcb;" horiz-adv-x="699" 
d="M570 0l-74.999 670.996h-195l-17 -155c-6 -54.667 -12.833 -107.5 -20.5 -158.5s-19.5 -99 -35.5 -144s-37.833 -86.833 -65.5 -125.5s-64.5 -72.667 -110.5 -102l-25 53c38.667 26.667 69.667 56.834 93 90.501s41.666 70.834 54.999 111.501s23.333 84.334 30 131.001
s13 96.334 19 149.001l22 203h306l82 -724h-63z" />
    <glyph glyph-name="afii10029" unicode="&#x41b;" horiz-adv-x="699" 
d="M570 0l-74.999 670.996h-195l-17 -155c-6 -54.667 -12.833 -107.5 -20.5 -158.5s-19.5 -99 -35.5 -144s-37.833 -86.833 -65.5 -125.5s-64.5 -72.667 -110.5 -102l-25 53c38.667 26.667 69.667 56.834 93 90.501s41.666 70.834 54.999 111.501s23.333 84.334 30 131.001
s13 96.334 19 149.001l22 203h306l82 -724h-63z" />
    <glyph glyph-name="afii10030" unicode="&#xcc;" horiz-adv-x="867" 
d="M749 0l-76.999 580.001c-1.33301 9.33301 -2.5 19.166 -3.5 29.499s-1.83301 19.5 -2.5 27.5l-2 27h-2c-2 -8.66699 -4.33301 -17.667 -7 -27l-6.5 -27c-2.33301 -10 -5.16602 -19.667 -8.49902 -29l-180 -581h-53l-180 581c-6.66699 20 -12 38.667 -16 56
c-2.66699 9.33301 -4.66699 18.333 -6 27h-2l-2 -28c-0.666992 -8 -1.5 -17 -2.5 -27s-2.16699 -19.667 -3.5 -29l-76 -580h-59l99 724h77l176 -563c3.33301 -10 6.16602 -20 8.49902 -30l6.5 -27c2.66699 -9.33301 4.66699 -18.666 6 -27.999h2
c1.33301 9.33301 3.33301 18.666 6 27.999l6.5 27c2.33301 10 5.16602 20 8.49902 30l175 563h77l99 -724h-58z" />
    <glyph glyph-name="afii10030" unicode="&#x41c;" horiz-adv-x="867" 
d="M749 0l-76.999 580.001c-1.33301 9.33301 -2.5 19.166 -3.5 29.499s-1.83301 19.5 -2.5 27.5l-2 27h-2c-2 -8.66699 -4.33301 -17.667 -7 -27l-6.5 -27c-2.33301 -10 -5.16602 -19.667 -8.49902 -29l-180 -581h-53l-180 581c-6.66699 20 -12 38.667 -16 56
c-2.66699 9.33301 -4.66699 18.333 -6 27h-2l-2 -28c-0.666992 -8 -1.5 -17 -2.5 -27s-2.16699 -19.667 -3.5 -29l-76 -580h-59l99 724h77l176 -563c3.33301 -10 6.16602 -20 8.49902 -30l6.5 -27c2.66699 -9.33301 4.66699 -18.666 6 -27.999h2
c1.33301 9.33301 3.33301 18.666 6 27.999l6.5 27c2.33301 10 5.16602 20 8.49902 30l175 563h77l99 -724h-58z" />
    <glyph glyph-name="afii10031" unicode="&#xcd;" horiz-adv-x="639" 
d="M493 0v348h-347v-348h-61v724h61v-323h347v323h61v-724h-61z" />
    <glyph glyph-name="afii10031" unicode="&#x41d;" horiz-adv-x="639" 
d="M493 0v348h-347v-348h-61v724h61v-323h347v323h61v-724h-61z" />
    <glyph glyph-name="afii10032" unicode="&#xce;" horiz-adv-x="676" 
d="M614 362c0 -51.333 -5.83301 -99.5 -17.5 -144.5s-29 -84.333 -52 -118s-51.833 -60.334 -86.5 -80.001s-74.667 -29.5 -120 -29.5s-85.333 9.83301 -120 29.5s-63.5 46.334 -86.5 80.001s-40.333 73 -52 118s-17.5 93.167 -17.5 144.5c0 50.667 5.83301 98.667 17.5 144
s29 84.833 52 118.5s51.833 60.334 86.5 80.001s74.667 29.5 120 29.5s85.333 -9.83301 120 -29.5s63.5 -46.334 86.5 -80.001s40.333 -73.167 52 -118.5s17.5 -93.333 17.5 -144zM553 362c0 44 -4.66699 85.167 -14 123.5s-23 72 -41 101s-40.333 51.833 -67 68.5
s-57.667 25 -93 25s-66.333 -8.33301 -93 -25s-49 -39.5 -67 -68.5s-31.667 -62.667 -41 -101s-14 -79.5 -14 -123.5s4.66699 -85.167 14 -123.5s23 -72 41 -101s40.333 -51.833 67 -68.5s57.667 -25 93 -25s66.333 8.33301 93 25s49 39.5 67 68.5s31.667 62.667 41 101
s14 79.5 14 123.5z" />
    <glyph glyph-name="afii10032" unicode="&#x41e;" horiz-adv-x="676" 
d="M614 362c0 -51.333 -5.83301 -99.5 -17.5 -144.5s-29 -84.333 -52 -118s-51.833 -60.334 -86.5 -80.001s-74.667 -29.5 -120 -29.5s-85.333 9.83301 -120 29.5s-63.5 46.334 -86.5 80.001s-40.333 73 -52 118s-17.5 93.167 -17.5 144.5c0 50.667 5.83301 98.667 17.5 144
s29 84.833 52 118.5s51.833 60.334 86.5 80.001s74.667 29.5 120 29.5s85.333 -9.83301 120 -29.5s63.5 -46.334 86.5 -80.001s40.333 -73.167 52 -118.5s17.5 -93.333 17.5 -144zM553 362c0 44 -4.66699 85.167 -14 123.5s-23 72 -41 101s-40.333 51.833 -67 68.5
s-57.667 25 -93 25s-66.333 -8.33301 -93 -25s-49 -39.5 -67 -68.5s-31.667 -62.667 -41 -101s-14 -79.5 -14 -123.5s4.66699 -85.167 14 -123.5s23 -72 41 -101s40.333 -51.833 67 -68.5s57.667 -25 93 -25s66.333 8.33301 93 25s49 39.5 67 68.5s31.667 62.667 41 101
s14 79.5 14 123.5z" />
    <glyph glyph-name="afii10033" unicode="&#xcf;" horiz-adv-x="639" 
d="M493 0v671h-347v-671h-61v724h469v-724h-61z" />
    <glyph glyph-name="afii10033" unicode="&#x41f;" horiz-adv-x="639" 
d="M493 0v671h-347v-671h-61v724h469v-724h-61z" />
    <glyph glyph-name="afii10034" unicode="&#xd0;" horiz-adv-x="560" 
d="M515 519c0 -31.333 -5.99902 -60 -17.999 -86s-29.833 -48.5 -53.5 -67.5s-52.667 -33.833 -87 -44.5s-73.5 -16 -117.5 -16c-16.667 0 -33.5 0.666992 -50.5 2s-31.167 3 -42.5 5v-312h-61v697c23.333 11.333 50.666 20.333 81.999 27s64.333 10 99 10
c80 0 141.5 -19.167 184.5 -57.5s64.5 -90.833 64.5 -157.5zM454.001 519c0 53.333 -16.1689 94 -48.502 122s-78.833 42 -139.5 42c-24 0 -46.667 -1.83301 -68 -5.5s-38.666 -8.5 -51.999 -14.5v-300c11.333 -2 25.333 -3.66699 42 -5s33.334 -2 50.001 -2
c70 0 123.5 14.833 160.5 44.5s55.5 69.167 55.5 118.5z" />
    <glyph glyph-name="afii10034" unicode="&#x420;" horiz-adv-x="560" 
d="M515 519c0 -31.333 -5.99902 -60 -17.999 -86s-29.833 -48.5 -53.5 -67.5s-52.667 -33.833 -87 -44.5s-73.5 -16 -117.5 -16c-16.667 0 -33.5 0.666992 -50.5 2s-31.167 3 -42.5 5v-312h-61v697c23.333 11.333 50.666 20.333 81.999 27s64.333 10 99 10
c80 0 141.5 -19.167 184.5 -57.5s64.5 -90.833 64.5 -157.5zM454.001 519c0 53.333 -16.1689 94 -48.502 122s-78.833 42 -139.5 42c-24 0 -46.667 -1.83301 -68 -5.5s-38.666 -8.5 -51.999 -14.5v-300c11.333 -2 25.333 -3.66699 42 -5s33.334 -2 50.001 -2
c70 0 123.5 14.833 160.5 44.5s55.5 69.167 55.5 118.5z" />
    <glyph glyph-name="afii10035" unicode="&#xd1;" horiz-adv-x="548" 
d="M496 27c-16 -11.333 -37.333 -20.3359 -64 -27.0029s-56.334 -10 -89.001 -10c-38 0 -74 7.5 -108 22.5s-63.833 37.833 -89.5 68.5s-46 69.334 -61 116.001s-22.5 101.667 -22.5 165s7.5 118.333 22.5 165s35.333 85.334 61 116.001s55.5 53.5 89.5 68.5
s70 22.5 108 22.5c32.667 0 62.334 -3.33301 89.001 -10s48 -15.667 64 -27l-21 -50c-12.667 8.66699 -30.167 16.334 -52.5 23.001s-47.5 10 -75.5 10c-30 0 -58.5 -6.33301 -85.5 -19s-50.5 -32 -70.5 -58s-36 -59 -48 -99s-18 -87.333 -18 -142
c0 -55.333 6 -102.833 18 -142.5s28 -72.5 48 -98.5s43.5 -45.167 70.5 -57.5s55.5 -18.5 85.5 -18.5c28 0 53.167 3.16699 75.5 9.5s39.833 13.833 52.5 22.5z" />
    <glyph glyph-name="afii10035" unicode="&#x421;" horiz-adv-x="548" 
d="M496 27c-16 -11.333 -37.333 -20.3359 -64 -27.0029s-56.334 -10 -89.001 -10c-38 0 -74 7.5 -108 22.5s-63.833 37.833 -89.5 68.5s-46 69.334 -61 116.001s-22.5 101.667 -22.5 165s7.5 118.333 22.5 165s35.333 85.334 61 116.001s55.5 53.5 89.5 68.5
s70 22.5 108 22.5c32.667 0 62.334 -3.33301 89.001 -10s48 -15.667 64 -27l-21 -50c-12.667 8.66699 -30.167 16.334 -52.5 23.001s-47.5 10 -75.5 10c-30 0 -58.5 -6.33301 -85.5 -19s-50.5 -32 -70.5 -58s-36 -59 -48 -99s-18 -87.333 -18 -142
c0 -55.333 6 -102.833 18 -142.5s28 -72.5 48 -98.5s43.5 -45.167 70.5 -57.5s55.5 -18.5 85.5 -18.5c28 0 53.167 3.16699 75.5 9.5s39.833 13.833 52.5 22.5z" />
    <glyph glyph-name="afii10036" unicode="&#xd2;" horiz-adv-x="512" 
d="M287 671v-671h-61v671h-193v53h446v-53h-192z" />
    <glyph glyph-name="afii10036" unicode="&#x422;" horiz-adv-x="512" 
d="M287 671v-671h-61v671h-193v53h446v-53h-192z" />
    <glyph glyph-name="afii10037" unicode="&#xd3;" horiz-adv-x="594" 
d="M547 724c-14.667 -89.333 -39.499 -175.5 -74.499 -258.5s-74.167 -163.5 -117.5 -241.5l-125 -224h-69l118 207c-26 40 -51.167 81 -75.5 123s-46.666 84.5 -66.999 127.5s-38.333 86.667 -54 131s-27.834 89.5 -36.501 135.5h64c16 -80.667 41.833 -160 77.5 -238
s76.167 -153.333 121.5 -226h2c38.667 72.667 73.667 147.5 105 224.5s53.666 156.833 66.999 239.5h64z" />
    <glyph glyph-name="afii10037" unicode="&#x423;" horiz-adv-x="594" 
d="M547 724c-14.667 -89.333 -39.499 -175.5 -74.499 -258.5s-74.167 -163.5 -117.5 -241.5l-125 -224h-69l118 207c-26 40 -51.167 81 -75.5 123s-46.666 84.5 -66.999 127.5s-38.333 86.667 -54 131s-27.834 89.5 -36.501 135.5h64c16 -80.667 41.833 -160 77.5 -238
s76.167 -153.333 121.5 -226h2c38.667 72.667 73.667 147.5 105 224.5s53.666 156.833 66.999 239.5h64z" />
    <glyph glyph-name="afii10038" unicode="&#xd4;" horiz-adv-x="813" 
d="M755 362c0 -43.333 -7.33301 -84 -22 -122s-35.834 -71.167 -63.501 -99.5s-61.167 -50.666 -100.5 -66.999s-84 -24.833 -134 -25.5v-69h-57v69c-50 0.666992 -94.667 9.16699 -134 25.5s-72.833 38.666 -100.5 66.999s-48.834 61.5 -63.501 99.5s-22 78.667 -22 122
s7.33301 84 22 122s35.834 71.167 63.501 99.5s61.167 50.833 100.5 67.5s84 25.334 134 26.001v68h57v-68c50 -0.666992 94.667 -9.33398 134 -26.001s72.833 -39.167 100.5 -67.5s48.834 -61.5 63.501 -99.5s22 -78.667 22 -122zM694 363
c0 36.667 -5.83301 71.167 -17.5 103.5s-28.667 60.333 -51 84s-49.5 42.5 -81.5 56.5s-68.333 21 -109 21v-531c40.667 0 77 7 109 21s59.167 33 81.5 57s39.333 52 51 84s17.5 66.667 17.5 104zM378 628c-40.667 0 -77 -7 -109 -21s-59.167 -32.833 -81.5 -56.5
s-39.333 -51.667 -51 -84s-17.5 -66.833 -17.5 -103.5c0 -37.333 5.83301 -72 17.5 -104s28.667 -60 51 -84s49.5 -43 81.5 -57s68.333 -21 109 -21v531z" />
    <glyph glyph-name="afii10038" unicode="&#x424;" horiz-adv-x="813" 
d="M755 362c0 -43.333 -7.33301 -84 -22 -122s-35.834 -71.167 -63.501 -99.5s-61.167 -50.666 -100.5 -66.999s-84 -24.833 -134 -25.5v-69h-57v69c-50 0.666992 -94.667 9.16699 -134 25.5s-72.833 38.666 -100.5 66.999s-48.834 61.5 -63.501 99.5s-22 78.667 -22 122
s7.33301 84 22 122s35.834 71.167 63.501 99.5s61.167 50.833 100.5 67.5s84 25.334 134 26.001v68h57v-68c50 -0.666992 94.667 -9.33398 134 -26.001s72.833 -39.167 100.5 -67.5s48.834 -61.5 63.501 -99.5s22 -78.667 22 -122zM694 363
c0 36.667 -5.83301 71.167 -17.5 103.5s-28.667 60.333 -51 84s-49.5 42.5 -81.5 56.5s-68.333 21 -109 21v-531c40.667 0 77 7 109 21s59.167 33 81.5 57s39.333 52 51 84s17.5 66.667 17.5 104zM378 628c-40.667 0 -77 -7 -109 -21s-59.167 -32.833 -81.5 -56.5
s-39.333 -51.667 -51 -84s-17.5 -66.833 -17.5 -103.5c0 -37.333 5.83301 -72 17.5 -104s28.667 -60 51 -84s49.5 -43 81.5 -57s68.333 -21 109 -21v531z" />
    <glyph glyph-name="afii10039" unicode="&#xd5;" horiz-adv-x="579" 
d="M479 0l-189 325h-2l-189 -325h-67l221 374l-207 350h67l175 -300h2l175 300h67l-207 -350l222 -374h-68z" />
    <glyph glyph-name="afii10039" unicode="&#x425;" horiz-adv-x="579" 
d="M479 0l-189 325h-2l-189 -325h-67l221 374l-207 350h67l175 -300h2l175 300h67l-207 -350l222 -374h-68z" />
    <glyph glyph-name="afii10040" unicode="&#xd6;" horiz-adv-x="648" 
d="M585 -146h-48l-4 146h-448v724h61v-671h341v671h61v-670l41 -16z" />
    <glyph glyph-name="afii10040" unicode="&#x426;" horiz-adv-x="648" 
d="M585 -146h-48l-4 146h-448v724h61v-671h341v671h61v-670l41 -16z" />
    <glyph glyph-name="afii10041" unicode="&#xd7;" horiz-adv-x="619" 
d="M472 0l0.000976562 312.001c-9.33301 -5.33301 -20.666 -10.166 -33.999 -14.499s-27.333 -8 -42 -11s-29.334 -5.5 -44.001 -7.5s-28 -3 -40 -3c-35.333 0 -67.333 5.33301 -96 16s-53 25.667 -73 45s-35.333 43 -46 71s-16 59.667 -16 95v221h61v-219
c0 -56 15.5 -99 46.5 -129s74.167 -45 129.5 -45c11.333 0 24.166 0.833008 38.499 2.5s28.666 4.16699 42.999 7.5s27.833 7.16602 40.5 11.499s23.334 9.16602 32.001 14.499v357h62v-724h-62z" />
    <glyph glyph-name="afii10041" unicode="&#x427;" horiz-adv-x="619" 
d="M472 0l0.000976562 312.001c-9.33301 -5.33301 -20.666 -10.166 -33.999 -14.499s-27.333 -8 -42 -11s-29.334 -5.5 -44.001 -7.5s-28 -3 -40 -3c-35.333 0 -67.333 5.33301 -96 16s-53 25.667 -73 45s-35.333 43 -46 71s-16 59.667 -16 95v221h61v-219
c0 -56 15.5 -99 46.5 -129s74.167 -45 129.5 -45c11.333 0 24.166 0.833008 38.499 2.5s28.666 4.16699 42.999 7.5s27.833 7.16602 40.5 11.499s23.334 9.16602 32.001 14.499v357h62v-724h-62z" />
    <glyph glyph-name="afii10042" unicode="&#xd8;" horiz-adv-x="935" 
d="M85 0v724h60v-671h292v671h60v-671h292v671h61v-724h-765z" />
    <glyph glyph-name="afii10042" unicode="&#x428;" horiz-adv-x="935" 
d="M85 0v724h60v-671h292v671h60v-671h292v671h61v-724h-765z" />
    <glyph glyph-name="afii10043" unicode="&#xd9;" horiz-adv-x="950" 
d="M886 -146h-47l-4 146h-750v724h60v-671h292v671h60v-671h292v671h61v-671l40 -15z" />
    <glyph glyph-name="afii10043" unicode="&#x429;" horiz-adv-x="950" 
d="M886 -146h-47l-4 146h-750v724h60v-671h292v671h60v-671h292v671h61v-671l40 -15z" />
    <glyph glyph-name="afii10044" unicode="&#xda;" horiz-adv-x="686" 
d="M630 208c0 -33.333 -5.50098 -63.333 -16.501 -90s-27.167 -49.5 -48.5 -68.5s-47.333 -33.667 -78 -44s-66 -15.5 -106 -15.5c-34.667 0 -67.667 3.33301 -99 10s-58.666 15.667 -81.999 27v644h-167v53h228v-312c11.333 3.33301 26.833 6.5 46.5 9.5
s39.167 4.5 58.5 4.5c42 0 79.333 -5.33301 112 -16s60.167 -25.667 82.5 -45s39.5 -42.333 51.5 -69s18 -56 18 -88zM568.999 208c0 52 -17.832 92.833 -53.499 122.5s-85.834 44.5 -150.501 44.5c-8 0 -17 -0.333008 -27 -1s-19.667 -1.66699 -29 -3
s-18.166 -2.83301 -26.499 -4.5s-15.5 -3.5 -21.5 -5.5v-300c13.333 -6 30.666 -10.833 51.999 -14.5s44 -5.5 68 -5.5c60.667 0 107.167 14.5 139.5 43.5s48.5 70.167 48.5 123.5z" />
    <glyph glyph-name="afii10044" unicode="&#x42a;" horiz-adv-x="686" 
d="M630 208c0 -33.333 -5.50098 -63.333 -16.501 -90s-27.167 -49.5 -48.5 -68.5s-47.333 -33.667 -78 -44s-66 -15.5 -106 -15.5c-34.667 0 -67.667 3.33301 -99 10s-58.666 15.667 -81.999 27v644h-167v53h228v-312c11.333 3.33301 26.833 6.5 46.5 9.5
s39.167 4.5 58.5 4.5c42 0 79.333 -5.33301 112 -16s60.167 -25.667 82.5 -45s39.5 -42.333 51.5 -69s18 -56 18 -88zM568.999 208c0 52 -17.832 92.833 -53.499 122.5s-85.834 44.5 -150.501 44.5c-8 0 -17 -0.333008 -27 -1s-19.667 -1.66699 -29 -3
s-18.166 -2.83301 -26.499 -4.5s-15.5 -3.5 -21.5 -5.5v-300c13.333 -6 30.666 -10.833 51.999 -14.5s44 -5.5 68 -5.5c60.667 0 107.167 14.5 139.5 43.5s48.5 70.167 48.5 123.5z" />
    <glyph glyph-name="afii10045" unicode="&#xdb;" horiz-adv-x="764" 
d="M616 0v724h61v-724h-61zM515 208c0 -66 -21.5 -118.833 -64.5 -158.5s-104.5 -59.5 -184.5 -59.5c-35.333 0 -68.5 3.33301 -99.5 10s-58.167 15.667 -81.5 27v697h61v-312c11.333 3.33301 26.833 6.5 46.5 9.5s39.167 4.5 58.5 4.5c42 0 79.333 -5.33301 112 -16
s60.167 -25.667 82.5 -45s39.5 -42.333 51.5 -69s18 -56 18 -88zM454 208c0 52 -18 92.833 -54 122.5s-86.333 44.5 -151 44.5c-8 0 -16.833 -0.333008 -26.5 -1s-19.167 -1.66699 -28.5 -3s-18.166 -2.83301 -26.499 -4.5s-15.5 -3.5 -21.5 -5.5v-300
c13.333 -6 30.666 -10.833 51.999 -14.5s44 -5.5 68 -5.5c60.667 0 107.167 14.5 139.5 43.5s48.5 70.167 48.5 123.5z" />
    <glyph glyph-name="afii10045" unicode="&#x42b;" horiz-adv-x="764" 
d="M616 0v724h61v-724h-61zM515 208c0 -66 -21.5 -118.833 -64.5 -158.5s-104.5 -59.5 -184.5 -59.5c-35.333 0 -68.5 3.33301 -99.5 10s-58.167 15.667 -81.5 27v697h61v-312c11.333 3.33301 26.833 6.5 46.5 9.5s39.167 4.5 58.5 4.5c42 0 79.333 -5.33301 112 -16
s60.167 -25.667 82.5 -45s39.5 -42.333 51.5 -69s18 -56 18 -88zM454 208c0 52 -18 92.833 -54 122.5s-86.333 44.5 -151 44.5c-8 0 -16.833 -0.333008 -26.5 -1s-19.167 -1.66699 -28.5 -3s-18.166 -2.83301 -26.499 -4.5s-15.5 -3.5 -21.5 -5.5v-300
c13.333 -6 30.666 -10.833 51.999 -14.5s44 -5.5 68 -5.5c60.667 0 107.167 14.5 139.5 43.5s48.5 70.167 48.5 123.5z" />
    <glyph glyph-name="afii10046" unicode="&#xdc;" horiz-adv-x="570" 
d="M515 208c0 -66 -21.5 -118.833 -64.5 -158.5s-104.5 -59.5 -184.5 -59.5c-35.333 0 -68.5 3.33301 -99.5 10s-58.167 15.667 -81.5 27v697h61v-312c11.333 3.33301 26.833 6.5 46.5 9.5s39.167 4.5 58.5 4.5c42 0 79.333 -5.33301 112 -16s60.167 -25.667 82.5 -45
s39.5 -42.333 51.5 -69s18 -56 18 -88zM454 208c0 52 -18 92.833 -54 122.5s-86.333 44.5 -151 44.5c-8 0 -16.833 -0.333008 -26.5 -1s-19.167 -1.66699 -28.5 -3s-18.166 -2.83301 -26.499 -4.5s-15.5 -3.5 -21.5 -5.5v-300c13.333 -6 30.666 -10.833 51.999 -14.5
s44 -5.5 68 -5.5c60.667 0 107.167 14.5 139.5 43.5s48.5 70.167 48.5 123.5z" />
    <glyph glyph-name="afii10046" unicode="&#x42c;" horiz-adv-x="570" 
d="M515 208c0 -66 -21.5 -118.833 -64.5 -158.5s-104.5 -59.5 -184.5 -59.5c-35.333 0 -68.5 3.33301 -99.5 10s-58.167 15.667 -81.5 27v697h61v-312c11.333 3.33301 26.833 6.5 46.5 9.5s39.167 4.5 58.5 4.5c42 0 79.333 -5.33301 112 -16s60.167 -25.667 82.5 -45
s39.5 -42.333 51.5 -69s18 -56 18 -88zM454 208c0 52 -18 92.833 -54 122.5s-86.333 44.5 -151 44.5c-8 0 -16.833 -0.333008 -26.5 -1s-19.167 -1.66699 -28.5 -3s-18.166 -2.83301 -26.499 -4.5s-15.5 -3.5 -21.5 -5.5v-300c13.333 -6 30.666 -10.833 51.999 -14.5
s44 -5.5 68 -5.5c60.667 0 107.167 14.5 139.5 43.5s48.5 70.167 48.5 123.5z" />
    <glyph glyph-name="afii10047" unicode="&#xdd;" horiz-adv-x="600" 
d="M538 362c0 -63.333 -8.49902 -118.333 -25.499 -165s-40 -85.334 -69 -116.001s-62.833 -53.5 -101.5 -68.5s-79.334 -22.5 -122.001 -22.5c-36.667 0 -69.834 3.33301 -99.501 10s-53.834 15.667 -72.501 27l23 48c14.667 -9.33301 35 -17 61 -23s54.667 -9 86 -9
c34 0 66.5 5.83301 97.5 17.5s58.333 29.834 82 54.501s42.667 56.334 57 95.001s22.166 84.667 23.499 138h-361v53h360c-3.33301 48.667 -12.5 90.667 -27.5 126s-34.167 64.5 -57.5 87.5s-50 39.833 -80 50.5s-61.333 16 -94 16c-31.333 0 -59.833 -3 -85.5 -9
s-46.167 -13.667 -61.5 -23l-23 48c18.667 11.333 42.834 20.333 72.501 27s62.834 10 99.501 10c42.667 0 83.334 -7.5 122.001 -22.5s72.5 -37.833 101.5 -68.5s52 -69.334 69 -116.001s25.5 -101.667 25.5 -165z" />
    <glyph glyph-name="afii10047" unicode="&#x42d;" horiz-adv-x="600" 
d="M538 362c0 -63.333 -8.49902 -118.333 -25.499 -165s-40 -85.334 -69 -116.001s-62.833 -53.5 -101.5 -68.5s-79.334 -22.5 -122.001 -22.5c-36.667 0 -69.834 3.33301 -99.501 10s-53.834 15.667 -72.501 27l23 48c14.667 -9.33301 35 -17 61 -23s54.667 -9 86 -9
c34 0 66.5 5.83301 97.5 17.5s58.333 29.834 82 54.501s42.667 56.334 57 95.001s22.166 84.667 23.499 138h-361v53h360c-3.33301 48.667 -12.5 90.667 -27.5 126s-34.167 64.5 -57.5 87.5s-50 39.833 -80 50.5s-61.333 16 -94 16c-31.333 0 -59.833 -3 -85.5 -9
s-46.167 -13.667 -61.5 -23l-23 48c18.667 11.333 42.834 20.333 72.501 27s62.834 10 99.501 10c42.667 0 83.334 -7.5 122.001 -22.5s72.5 -37.833 101.5 -68.5s52 -69.334 69 -116.001s25.5 -101.667 25.5 -165z" />
    <glyph glyph-name="afii10048" unicode="&#xde;" horiz-adv-x="891" 
d="M827 362c0 -49.333 -4.49707 -96.498 -13.4971 -141.498s-23.333 -84.5 -43 -118.5s-45 -61.167 -76 -81.5s-68.5 -30.5 -112.5 -30.5c-42.667 0 -79.334 9.66699 -110.001 29s-55.834 45.5 -75.501 78.5s-34.334 71 -44.001 114s-14.834 88.5 -15.501 136.5h-191v-348
h-61v724h61v-323h192c2 45.333 8.16699 88.166 18.5 128.499s25.333 75.666 45 105.999s44.334 54.333 74.001 72s65.167 26.5 106.5 26.5c44 0 81.5 -10.167 112.5 -30.5s56.333 -47.5 76 -81.5s34 -73.5 43 -118.5s13.5 -92.167 13.5 -141.5zM767.003 362.002
c0 42.667 -3.33301 83.334 -10 122.001s-17.5 72.667 -32.5 102s-34.167 52.833 -57.5 70.5s-51.666 26.5 -84.999 26.5s-61.666 -8.83301 -84.999 -26.5s-42.5 -41.167 -57.5 -70.5s-26 -63.333 -33 -102s-10.5 -79.334 -10.5 -122.001s3.5 -83.334 10.5 -122.001
s18 -72.834 33 -102.501s34.167 -53.167 57.5 -70.5s51.666 -26 84.999 -26s61.666 8.66699 84.999 26s42.5 40.833 57.5 70.5s25.833 63.834 32.5 102.501s10 79.334 10 122.001z" />
    <glyph glyph-name="afii10048" unicode="&#x42e;" horiz-adv-x="891" 
d="M827 362c0 -49.333 -4.49707 -96.498 -13.4971 -141.498s-23.333 -84.5 -43 -118.5s-45 -61.167 -76 -81.5s-68.5 -30.5 -112.5 -30.5c-42.667 0 -79.334 9.66699 -110.001 29s-55.834 45.5 -75.501 78.5s-34.334 71 -44.001 114s-14.834 88.5 -15.501 136.5h-191v-348
h-61v724h61v-323h192c2 45.333 8.16699 88.166 18.5 128.499s25.333 75.666 45 105.999s44.334 54.333 74.001 72s65.167 26.5 106.5 26.5c44 0 81.5 -10.167 112.5 -30.5s56.333 -47.5 76 -81.5s34 -73.5 43 -118.5s13.5 -92.167 13.5 -141.5zM767.003 362.002
c0 42.667 -3.33301 83.334 -10 122.001s-17.5 72.667 -32.5 102s-34.167 52.833 -57.5 70.5s-51.666 26.5 -84.999 26.5s-61.666 -8.83301 -84.999 -26.5s-42.5 -41.167 -57.5 -70.5s-26 -63.333 -33 -102s-10.5 -79.334 -10.5 -122.001s3.5 -83.334 10.5 -122.001
s18 -72.834 33 -102.501s34.167 -53.167 57.5 -70.5s51.666 -26 84.999 -26s61.666 8.66699 84.999 26s42.5 40.833 57.5 70.5s25.833 63.834 32.5 102.501s10 79.334 10 122.001z" />
    <glyph glyph-name="afii10049" unicode="&#xdf;" horiz-adv-x="610" 
d="M463 0l-0.000976562 329.003h-98c-33.333 0 -60.333 -7.33301 -81 -22s-38.334 -36.334 -53.001 -65.001l-123 -242h-67l129 250c11.333 22 23.833 41.167 37.5 57.5s29.5 28.5 47.5 36.5v2c-26 4 -50 10.5 -72 19.5s-41 21.167 -57 36.5s-28.333 34 -37 56
s-13 48 -13 78c0 29.333 5.33301 56.166 16 80.499s26.834 45.166 48.501 62.499s48.334 30.833 80.001 40.5s68.5 14.5 110.5 14.5c36 0 71.167 -3.5 105.5 -10.5s63.5 -16.167 87.5 -27.5v-696h-61zM462.999 663.003c-14.667 6 -33.833 10.999 -57.5 14.999
s-48.5 6 -74.5 6c-66 0 -115 -13.5 -147 -40.5s-48 -63.5 -48 -109.5c0 -29.333 4.83301 -53.833 14.5 -73.5s23.667 -35.667 42 -48s40.333 -21.166 66 -26.499s54.5 -8 86.5 -8h118v285z" />
    <glyph glyph-name="afii10049" unicode="&#x42f;" horiz-adv-x="610" 
d="M463 0l-0.000976562 329.003h-98c-33.333 0 -60.333 -7.33301 -81 -22s-38.334 -36.334 -53.001 -65.001l-123 -242h-67l129 250c11.333 22 23.833 41.167 37.5 57.5s29.5 28.5 47.5 36.5v2c-26 4 -50 10.5 -72 19.5s-41 21.167 -57 36.5s-28.333 34 -37 56
s-13 48 -13 78c0 29.333 5.33301 56.166 16 80.499s26.834 45.166 48.501 62.499s48.334 30.833 80.001 40.5s68.5 14.5 110.5 14.5c36 0 71.167 -3.5 105.5 -10.5s63.5 -16.167 87.5 -27.5v-696h-61zM462.999 663.003c-14.667 6 -33.833 10.999 -57.5 14.999
s-48.5 6 -74.5 6c-66 0 -115 -13.5 -147 -40.5s-48 -63.5 -48 -109.5c0 -29.333 4.83301 -53.833 14.5 -73.5s23.667 -35.667 42 -48s40.333 -21.166 66 -26.499s54.5 -8 86.5 -8h118v285z" />
    <glyph glyph-name="afii10065" unicode="&#xe0;" horiz-adv-x="523" 
d="M444 27c-9.33301 -5.33301 -20.6689 -10.166 -34.002 -14.499s-28 -8.16602 -44 -11.499s-32.667 -6 -50 -8s-34.333 -3 -51 -3c-70.667 0 -123.834 14.5 -159.501 43.5s-53.5 68.167 -53.5 117.5c0 39.333 9.83301 70.666 29.5 93.999s45.334 41.5 77.001 54.5
s67.5 22 107.5 27s80.333 8.5 121 10.5v47c0 22.667 -3.66699 41.667 -11 57s-17.166 27.5 -29.499 36.5s-27.166 15.333 -44.499 19s-36 5.5 -56 5.5c-25.333 0 -51.333 -3.33301 -78 -10s-48.667 -14.667 -66 -24l-18 44c10 4.66699 21.333 9.16699 34 13.5
s26.167 8.33301 40.5 12s29.333 6.5 45 8.5s31.167 3 46.5 3c28 0 54 -3 78 -9s44.5 -15.667 61.5 -29s30.333 -30.833 40 -52.5s14.5 -47.834 14.5 -78.501v-353zM386.997 292c-32 -2 -64.5 -4.5 -97.5 -7.5s-62.833 -9 -89.5 -18s-48.5 -22.5 -65.5 -40.5
s-25.5 -42.667 -25.5 -74c0 -34.667 12.667 -62.5 38 -83.5s64.333 -31.5 117 -31.5c23.333 0 46.833 2 70.5 6s41.167 8.66699 52.5 14v235z" />
    <glyph glyph-name="afii10065" unicode="&#x430;" horiz-adv-x="523" 
d="M444 27c-9.33301 -5.33301 -20.6689 -10.166 -34.002 -14.499s-28 -8.16602 -44 -11.499s-32.667 -6 -50 -8s-34.333 -3 -51 -3c-70.667 0 -123.834 14.5 -159.501 43.5s-53.5 68.167 -53.5 117.5c0 39.333 9.83301 70.666 29.5 93.999s45.334 41.5 77.001 54.5
s67.5 22 107.5 27s80.333 8.5 121 10.5v47c0 22.667 -3.66699 41.667 -11 57s-17.166 27.5 -29.499 36.5s-27.166 15.333 -44.499 19s-36 5.5 -56 5.5c-25.333 0 -51.333 -3.33301 -78 -10s-48.667 -14.667 -66 -24l-18 44c10 4.66699 21.333 9.16699 34 13.5
s26.167 8.33301 40.5 12s29.333 6.5 45 8.5s31.167 3 46.5 3c28 0 54 -3 78 -9s44.5 -15.667 61.5 -29s30.333 -30.833 40 -52.5s14.5 -47.834 14.5 -78.501v-353zM386.997 292c-32 -2 -64.5 -4.5 -97.5 -7.5s-62.833 -9 -89.5 -18s-48.5 -22.5 -65.5 -40.5
s-25.5 -42.667 -25.5 -74c0 -34.667 12.667 -62.5 38 -83.5s64.333 -31.5 117 -31.5c23.333 0 46.833 2 70.5 6s41.167 8.66699 52.5 14v235z" />
    <glyph glyph-name="afii10066" unicode="&#xe1;" horiz-adv-x="564" 
d="M507 272c0 -39.333 -4.66895 -76.1689 -14.002 -110.502s-23.333 -64.166 -42 -89.499s-41.5 -45.333 -68.5 -60s-58.167 -22 -93.5 -22c-38 0 -71 8.33301 -99 25s-51.167 40 -69.5 70s-32.166 65.833 -41.499 107.5s-14 87.5 -14 137.5c0 69.333 7 130.833 21 184.5
s36.667 99.667 68 138s72 69.333 122 93s111 40.167 183 49.5v-52c-90 -13.333 -160.167 -38.166 -210.5 -74.499s-85.166 -87.833 -104.499 -154.5c18.667 9.33301 38.834 17 60.501 23s46.5 9 74.5 9c36.667 0 69.167 -7 97.5 -21s52.166 -33.333 71.499 -58
s34 -53.667 44 -87s15 -69.333 15 -108zM447.998 271.997c0 32 -3.83398 61.833 -11.501 89.5s-18.834 51.667 -33.501 72s-32.834 36.333 -54.501 48s-46.5 17.5 -74.5 17.5c-26 0 -50.667 -2.83301 -74 -8.5s-45.666 -13.834 -66.999 -24.501
c-7.33301 -42.667 -11 -88.667 -11 -138c0 -42.667 3.5 -81.667 10.5 -117s17.5 -65.666 31.5 -90.999s31.5 -45 52.5 -59s45.167 -21 72.5 -21c26 0 48.833 6 68.5 18s36.334 28.5 50.001 49.5s23.834 45.5 30.501 73.5s10 58.333 10 91z" />
    <glyph glyph-name="afii10066" unicode="&#x431;" horiz-adv-x="564" 
d="M507 272c0 -39.333 -4.66895 -76.1689 -14.002 -110.502s-23.333 -64.166 -42 -89.499s-41.5 -45.333 -68.5 -60s-58.167 -22 -93.5 -22c-38 0 -71 8.33301 -99 25s-51.167 40 -69.5 70s-32.166 65.833 -41.499 107.5s-14 87.5 -14 137.5c0 69.333 7 130.833 21 184.5
s36.667 99.667 68 138s72 69.333 122 93s111 40.167 183 49.5v-52c-90 -13.333 -160.167 -38.166 -210.5 -74.499s-85.166 -87.833 -104.499 -154.5c18.667 9.33301 38.834 17 60.501 23s46.5 9 74.5 9c36.667 0 69.167 -7 97.5 -21s52.166 -33.333 71.499 -58
s34 -53.667 44 -87s15 -69.333 15 -108zM447.998 271.997c0 32 -3.83398 61.833 -11.501 89.5s-18.834 51.667 -33.501 72s-32.834 36.333 -54.501 48s-46.5 17.5 -74.5 17.5c-26 0 -50.667 -2.83301 -74 -8.5s-45.666 -13.834 -66.999 -24.501
c-7.33301 -42.667 -11 -88.667 -11 -138c0 -42.667 3.5 -81.667 10.5 -117s17.5 -65.666 31.5 -90.999s31.5 -45 52.5 -59s45.167 -21 72.5 -21c26 0 48.833 6 68.5 18s36.334 28.5 50.001 49.5s23.834 45.5 30.501 73.5s10 58.333 10 91z" />
    <glyph glyph-name="afii10067" unicode="&#xe2;" horiz-adv-x="523" 
d="M465 141c0 -47.333 -18.168 -84.3311 -54.501 -110.998s-89.833 -40 -160.5 -40c-30 0 -59.833 3.16699 -89.5 9.5s-56.167 15.5 -79.5 27.5v485c22.667 12 48.834 21.167 78.501 27.5s58.5 9.5 86.5 9.5c62.667 0 111.667 -12.833 147 -38.5s53 -59.834 53 -102.501
c0 -18 -3.16699 -34.333 -9.5 -49s-14.5 -27.5 -24.5 -38.5s-21 -19.833 -33 -26.5s-23.667 -11.334 -35 -14.001v-2c12.667 -2.66699 26 -7.16699 40 -13.5s27 -15 39 -26s22 -24.5 30 -40.5s12 -35 12 -57zM388.999 406.002c0 30 -12.333 54.167 -37 72.5
s-60 27.5 -106 27.5c-20 0 -40.333 -2 -61 -6s-36.667 -9 -48 -15v-188h102c28.667 0 50.5 1.5 65.5 4.5s29.5 9.16699 43.5 18.5c12 8.66699 21.833 20.667 29.5 36s11.5 32 11.5 50zM407.999 143.002c0 42.667 -19.666 74.002 -58.999 94.002
c-7.33301 3.33301 -14.166 6.16602 -20.499 8.49902s-13.5 4.16602 -21.5 5.49902s-17.167 2.33301 -27.5 3s-22.5 1 -36.5 1h-106v-200c13.333 -6.66699 30.666 -12 51.999 -16s41.666 -6 60.999 -6c52.667 0 92.167 9.66699 118.5 29s39.5 46.333 39.5 81z" />
    <glyph glyph-name="afii10067" unicode="&#x432;" horiz-adv-x="523" 
d="M465 141c0 -47.333 -18.168 -84.3311 -54.501 -110.998s-89.833 -40 -160.5 -40c-30 0 -59.833 3.16699 -89.5 9.5s-56.167 15.5 -79.5 27.5v485c22.667 12 48.834 21.167 78.501 27.5s58.5 9.5 86.5 9.5c62.667 0 111.667 -12.833 147 -38.5s53 -59.834 53 -102.501
c0 -18 -3.16699 -34.333 -9.5 -49s-14.5 -27.5 -24.5 -38.5s-21 -19.833 -33 -26.5s-23.667 -11.334 -35 -14.001v-2c12.667 -2.66699 26 -7.16699 40 -13.5s27 -15 39 -26s22 -24.5 30 -40.5s12 -35 12 -57zM388.999 406.002c0 30 -12.333 54.167 -37 72.5
s-60 27.5 -106 27.5c-20 0 -40.333 -2 -61 -6s-36.667 -9 -48 -15v-188h102c28.667 0 50.5 1.5 65.5 4.5s29.5 9.16699 43.5 18.5c12 8.66699 21.833 20.667 29.5 36s11.5 32 11.5 50zM407.999 143.002c0 42.667 -19.666 74.002 -58.999 94.002
c-7.33301 3.33301 -14.166 6.16602 -20.499 8.49902s-13.5 4.16602 -21.5 5.49902s-17.167 2.33301 -27.5 3s-22.5 1 -36.5 1h-106v-200c13.333 -6.66699 30.666 -12 51.999 -16s41.666 -6 60.999 -6c52.667 0 92.167 9.66699 118.5 29s39.5 46.333 39.5 81z" />
    <glyph glyph-name="afii10068" unicode="&#xe3;" horiz-adv-x="409" 
d="M141 490v-490h-58v539h296v-49h-238z" />
    <glyph glyph-name="afii10068" unicode="&#x433;" horiz-adv-x="409" 
d="M141 490v-490h-58v539h296v-49h-238z" />
    <glyph glyph-name="afii10069" unicode="&#xe4;" horiz-adv-x="631" 
d="M572 -146h-46.001l-4 146h-428l-5 -146h-45l-7 181c30.667 21.333 55.834 47 75.501 77s35.5 61.667 47.5 95s21.167 67 27.5 101s11.5 65.667 15.5 95l20 136h257l56 -489l40 -15zM430.999 491l-159 -0.000976562l-15 -97c-4 -28 -9 -58 -15 -90s-14 -63.667 -24 -95
s-22.667 -61.166 -38 -89.499s-35 -52.5 -59 -72.5h359z" />
    <glyph glyph-name="afii10069" unicode="&#x434;" horiz-adv-x="631" 
d="M572 -146h-46.001l-4 146h-428l-5 -146h-45l-7 181c30.667 21.333 55.834 47 75.501 77s35.5 61.667 47.5 95s21.167 67 27.5 101s11.5 65.667 15.5 95l20 136h257l56 -489l40 -15zM430.999 491l-159 -0.000976562l-15 -97c-4 -28 -9 -58 -15 -90s-14 -63.667 -24 -95
s-22.667 -61.166 -38 -89.499s-35 -52.5 -59 -72.5h359z" />
    <glyph glyph-name="afii10070" unicode="&#xe5;" horiz-adv-x="552" 
d="M494 326l0.000976562 -15.998c0 -4.66699 -0.333008 -10 -1 -16l-378 -56c4 -66.667 23.333 -116.5 58 -149.5s80.667 -49.5 138 -49.5c27.333 0 54.166 3.16699 80.499 9.5s48.166 14.5 65.499 24.5l20 -46c-18 -10.667 -42 -19.5 -72 -26.5s-62 -10.5 -96 -10.5
c-77.333 0 -138.5 23.667 -183.5 71s-67.5 117 -67.5 209c0 41.333 5.33301 79.166 16 113.499s25.834 63.666 45.501 87.999s43.5 43.333 71.5 57s59.667 20.5 95 20.5c62.667 0 113 -19.333 151 -58s57 -93.667 57 -165zM437.001 330.002
c-0.666992 58.667 -14.668 101.999 -42.001 129.999s-63.666 42 -108.999 42c-26.667 0 -50.5 -5.16699 -71.5 -15.5s-39 -25.166 -54 -44.499s-26.667 -42.5 -35 -69.5s-12.833 -56.833 -13.5 -89.5z" />
    <glyph glyph-name="afii10070" unicode="&#x435;" horiz-adv-x="552" 
d="M494 326l0.000976562 -15.998c0 -4.66699 -0.333008 -10 -1 -16l-378 -56c4 -66.667 23.333 -116.5 58 -149.5s80.667 -49.5 138 -49.5c27.333 0 54.166 3.16699 80.499 9.5s48.166 14.5 65.499 24.5l20 -46c-18 -10.667 -42 -19.5 -72 -26.5s-62 -10.5 -96 -10.5
c-77.333 0 -138.5 23.667 -183.5 71s-67.5 117 -67.5 209c0 41.333 5.33301 79.166 16 113.499s25.834 63.666 45.501 87.999s43.5 43.333 71.5 57s59.667 20.5 95 20.5c62.667 0 113 -19.333 151 -58s57 -93.667 57 -165zM437.001 330.002
c-0.666992 58.667 -14.668 101.999 -42.001 129.999s-63.666 42 -108.999 42c-26.667 0 -50.5 -5.16699 -71.5 -15.5s-39 -25.166 -54 -44.499s-26.667 -42.5 -35 -69.5s-12.833 -56.833 -13.5 -89.5z" />
    <glyph glyph-name="afii10072" unicode="&#xe6;" horiz-adv-x="719" 
d="M631 0l-93 166c-7.33301 13.333 -16 26.166 -26 38.499s-21.333 23.166 -34 32.499s-26.5 16.833 -41.5 22.5s-31.5 8.5 -49.5 8.5v-268h-55v268c-18 0 -34.5 -2.83301 -49.5 -8.5s-28.833 -13.167 -41.5 -22.5s-24 -20.166 -34 -32.499s-18.667 -25.166 -26 -38.499
l-93 -166h-64l101 177c17.333 30 36.833 54.667 58.5 74s47.167 33.333 76.5 42l-231 246h72l229 -253h2v253h55v-253h2l229 253h72l-231 -246c29.333 -8 54.833 -21.833 76.5 -41.5s41.167 -44.5 58.5 -74.5l101 -177h-64z" />
    <glyph glyph-name="afii10072" unicode="&#x436;" horiz-adv-x="719" 
d="M631 0l-93 166c-7.33301 13.333 -16 26.166 -26 38.499s-21.333 23.166 -34 32.499s-26.5 16.833 -41.5 22.5s-31.5 8.5 -49.5 8.5v-268h-55v268c-18 0 -34.5 -2.83301 -49.5 -8.5s-28.833 -13.167 -41.5 -22.5s-24 -20.166 -34 -32.499s-18.667 -25.166 -26 -38.499
l-93 -166h-64l101 177c17.333 30 36.833 54.667 58.5 74s47.167 33.333 76.5 42l-231 246h72l229 -253h2v253h55v-253h2l229 253h72l-231 -246c29.333 -8 54.833 -21.833 76.5 -41.5s41.167 -44.5 58.5 -74.5l101 -177h-64z" />
    <glyph glyph-name="afii10073" unicode="&#xe7;" horiz-adv-x="489" 
d="M434 146c0 -26 -5.66504 -48.668 -16.998 -68.001s-26.833 -35.5 -46.5 -48.5s-42.667 -22.833 -69 -29.5s-54.5 -10 -84.5 -10c-34 0 -66.833 3.33301 -98.5 10s-59.167 15.667 -82.5 27l22 43c18 -9.33301 41 -17 69 -23s57 -9 87 -9
c21.333 0 41.666 2.16699 60.999 6.5s36.333 11 51 20s26.334 20.5 35.001 34.5s13 30.333 13 49c0 15.333 -3.33301 29.666 -10 42.999s-16.834 25 -30.501 35s-31.167 17.833 -52.5 23.5s-46.333 8.5 -75 8.5h-76v43h72c50 0 87.667 9 113 27s38 42.667 38 74
c0 17.333 -3.66699 32.333 -11 45s-17.333 23 -30 31s-27.334 14 -44.001 18s-34 6 -52 6c-25.333 0 -51.5 -3.16699 -78.5 -9.5s-49.5 -14.166 -67.5 -23.499l-21 43c22 11.333 48.167 20.333 78.5 27s61.5 10 93.5 10c26.667 0 51.667 -3 75 -9s43.5 -15 60.5 -27
s30.5 -27 40.5 -45s15 -39 15 -63c0 -31.333 -9.66699 -57.666 -29 -78.999s-45.333 -35 -78 -41v-2c16 -3.33301 31.833 -8.5 47.5 -15.5s29.5 -16.333 41.5 -28s21.667 -25.167 29 -40.5s11 -33 11 -53z" />
    <glyph glyph-name="afii10073" unicode="&#x437;" horiz-adv-x="489" 
d="M434 146c0 -26 -5.66504 -48.668 -16.998 -68.001s-26.833 -35.5 -46.5 -48.5s-42.667 -22.833 -69 -29.5s-54.5 -10 -84.5 -10c-34 0 -66.833 3.33301 -98.5 10s-59.167 15.667 -82.5 27l22 43c18 -9.33301 41 -17 69 -23s57 -9 87 -9
c21.333 0 41.666 2.16699 60.999 6.5s36.333 11 51 20s26.334 20.5 35.001 34.5s13 30.333 13 49c0 15.333 -3.33301 29.666 -10 42.999s-16.834 25 -30.501 35s-31.167 17.833 -52.5 23.5s-46.333 8.5 -75 8.5h-76v43h72c50 0 87.667 9 113 27s38 42.667 38 74
c0 17.333 -3.66699 32.333 -11 45s-17.333 23 -30 31s-27.334 14 -44.001 18s-34 6 -52 6c-25.333 0 -51.5 -3.16699 -78.5 -9.5s-49.5 -14.166 -67.5 -23.499l-21 43c22 11.333 48.167 20.333 78.5 27s61.5 10 93.5 10c26.667 0 51.667 -3 75 -9s43.5 -15 60.5 -27
s30.5 -27 40.5 -45s15 -39 15 -63c0 -31.333 -9.66699 -57.666 -29 -78.999s-45.333 -35 -78 -41v-2c16 -3.33301 31.833 -8.5 47.5 -15.5s29.5 -16.333 41.5 -28s21.667 -25.167 29 -40.5s11 -33 11 -53z" />
    <glyph glyph-name="afii10074" unicode="&#xe8;" horiz-adv-x="577" 
d="M444 0l-0.000976562 433.001c0 8 0.333008 15.333 1 22c0 7.33301 0.333008 14.666 1 21.999h-2l-10 -20l-10.5 -19.5c-3.66699 -7 -7.5 -13.833 -11.5 -20.5l-272 -417h-61v539h54v-401c0 -8 -0.166992 -16 -0.5 -24s-0.5 -15.333 -0.5 -22
c-0.666992 -7.33301 -1 -15 -1 -23h2l10 20l10.5 19.5c3.66699 7 7.83398 13.833 12.501 20.5l267 410h65v-539h-54z" />
    <glyph glyph-name="afii10074" unicode="&#x438;" horiz-adv-x="577" 
d="M444 0l-0.000976562 433.001c0 8 0.333008 15.333 1 22c0 7.33301 0.333008 14.666 1 21.999h-2l-10 -20l-10.5 -19.5c-3.66699 -7 -7.5 -13.833 -11.5 -20.5l-272 -417h-61v539h54v-401c0 -8 -0.166992 -16 -0.5 -24s-0.5 -15.333 -0.5 -22
c-0.666992 -7.33301 -1 -15 -1 -23h2l10 20l10.5 19.5c3.66699 7 7.83398 13.833 12.501 20.5l267 410h65v-539h-54z" />
    <glyph glyph-name="afii10075" unicode="&#xe9;" horiz-adv-x="577" 
d="M444 0l-0.000976562 433.001c0 8 0.333008 15.333 1 22c0 7.33301 0.333008 14.666 1 21.999h-2l-10 -20l-10.5 -19.5c-3.66699 -7 -7.5 -13.833 -11.5 -20.5l-272 -417h-61v539h54v-401c0 -8 -0.166992 -16 -0.5 -24s-0.5 -15.333 -0.5 -22
c-0.666992 -7.33301 -1 -15 -1 -23h2l10 20l10.5 19.5c3.66699 7 7.83398 13.833 12.501 20.5l267 410h65v-539h-54zM414.999 728.001c-2.66699 -38.667 -15.333 -69.5 -38 -92.5s-53 -34.5 -91 -34.5s-68.5 11.5 -91.5 34.5s-35.833 53.833 -38.5 92.5l41 6
c5.33301 -29.333 15 -51.333 29 -66s34 -22 60 -22s45.833 7.33301 59.5 22s23.167 36.667 28.5 66z" />
    <glyph glyph-name="afii10075" unicode="&#x439;" horiz-adv-x="577" 
d="M444 0l-0.000976562 433.001c0 8 0.333008 15.333 1 22c0 7.33301 0.333008 14.666 1 21.999h-2l-10 -20l-10.5 -19.5c-3.66699 -7 -7.5 -13.833 -11.5 -20.5l-272 -417h-61v539h54v-401c0 -8 -0.166992 -16 -0.5 -24s-0.5 -15.333 -0.5 -22
c-0.666992 -7.33301 -1 -15 -1 -23h2l10 20l10.5 19.5c3.66699 7 7.83398 13.833 12.501 20.5l267 410h65v-539h-54zM414.999 728.001c-2.66699 -38.667 -15.333 -69.5 -38 -92.5s-53 -34.5 -91 -34.5s-68.5 11.5 -91.5 34.5s-35.833 53.833 -38.5 92.5l41 6
c5.33301 -29.333 15 -51.333 29 -66s34 -22 60 -22s45.833 7.33301 59.5 22s23.167 36.667 28.5 66z" />
    <glyph glyph-name="afii10076" unicode="&#xea;" horiz-adv-x="494" 
d="M405 0l-106.001 167.001c-16.667 26 -38.5 48.833 -65.5 68.5s-58.5 29.5 -94.5 29.5v-265h-58v539h58v-250h2l251 250h75l-257 -246c34 -9.33301 62.333 -23.833 85 -43.5s43.334 -43.834 62.001 -72.501l115 -177h-67z" />
    <glyph glyph-name="afii10076" unicode="&#x43a;" horiz-adv-x="494" 
d="M405 0l-106.001 167.001c-16.667 26 -38.5 48.833 -65.5 68.5s-58.5 29.5 -94.5 29.5v-265h-58v539h58v-250h2l251 250h75l-257 -246c34 -9.33301 62.333 -23.833 85 -43.5s43.334 -43.834 62.001 -72.501l115 -177h-67z" />
    <glyph glyph-name="afii10077" unicode="&#xeb;" horiz-adv-x="596" 
d="M478 0l-54.9971 489.998h-157l-16 -109c-5.33301 -36.667 -11.5 -74.667 -18.5 -114s-17.667 -77.166 -32 -113.499s-33.833 -69.166 -58.5 -98.499s-57.334 -52.333 -98.001 -69l-22 49c32 14 58.167 33.667 78.5 59s36.666 54 48.999 86s21.666 66 27.999 102
s11.833 71.333 16.5 106l21 151h262l61 -539h-59z" />
    <glyph glyph-name="afii10077" unicode="&#x43b;" horiz-adv-x="596" 
d="M478 0l-54.9971 489.998h-157l-16 -109c-5.33301 -36.667 -11.5 -74.667 -18.5 -114s-17.667 -77.166 -32 -113.499s-33.833 -69.166 -58.5 -98.499s-57.334 -52.333 -98.001 -69l-22 49c32 14 58.167 33.667 78.5 59s36.666 54 48.999 86s21.666 66 27.999 102
s11.833 71.333 16.5 106l21 151h262l61 -539h-59z" />
    <glyph glyph-name="afii10078" unicode="&#xec;" horiz-adv-x="730" 
d="M619 0l-55.001 419c-1.33301 8 -2.33301 16 -3 24l-2 23c-0.666992 8 -1 16 -1 24h-2c-1.33301 -7.33301 -3 -15 -5 -23c-1.33301 -7.33301 -3.33301 -15.166 -6 -23.499s-5.33398 -16.166 -8.00098 -23.499l-147 -420h-50l-147 420
c-3.33301 7.33301 -6.16602 15.166 -8.49902 23.499s-4.16602 16.166 -5.49902 23.499c-2 8 -3.66699 15.667 -5 23h-2l-2 -24c-0.666992 -7.33301 -1.16699 -15 -1.5 -23s-1.16602 -16 -2.49902 -24l-55 -419h-56l76 539h73l142 -409
c2.66699 -7.33301 5.16699 -14.833 7.5 -22.5s4.16602 -14.834 5.49902 -21.501c2 -7.33301 3.66699 -14.666 5 -21.999h2c1.33301 7.33301 3 14.666 5 21.999c1.33301 6.66699 3 13.834 5 21.501s4.33301 15.167 7 22.5l143 409h73l76 -539h-56z" />
    <glyph glyph-name="afii10078" unicode="&#x43c;" horiz-adv-x="730" 
d="M619 0l-55.001 419c-1.33301 8 -2.33301 16 -3 24l-2 23c-0.666992 8 -1 16 -1 24h-2c-1.33301 -7.33301 -3 -15 -5 -23c-1.33301 -7.33301 -3.33301 -15.166 -6 -23.499s-5.33398 -16.166 -8.00098 -23.499l-147 -420h-50l-147 420
c-3.33301 7.33301 -6.16602 15.166 -8.49902 23.499s-4.16602 16.166 -5.49902 23.499c-2 8 -3.66699 15.667 -5 23h-2l-2 -24c-0.666992 -7.33301 -1.16699 -15 -1.5 -23s-1.16602 -16 -2.49902 -24l-55 -419h-56l76 539h73l142 -409
c2.66699 -7.33301 5.16699 -14.833 7.5 -22.5s4.16602 -14.834 5.49902 -21.501c2 -7.33301 3.66699 -14.666 5 -21.999h2c1.33301 7.33301 3 14.666 5 21.999c1.33301 6.66699 3 13.834 5 21.501s4.33301 15.167 7 22.5l143 409h73l76 -539h-56z" />
    <glyph glyph-name="afii10079" unicode="&#xed;" horiz-adv-x="541" 
d="M403 0v253h-265v-253h-59v539h59v-240h265v240h59v-539h-59z" />
    <glyph glyph-name="afii10079" unicode="&#x43d;" horiz-adv-x="541" 
d="M403 0v253h-265v-253h-59v539h59v-240h265v240h59v-539h-59z" />
    <glyph glyph-name="afii10080" unicode="&#xee;" horiz-adv-x="560" 
d="M502 270c0 -40 -4.66699 -77 -14 -111s-23.333 -63.5 -42 -88.5s-41.834 -44.667 -69.501 -59s-59.834 -21.5 -96.501 -21.5s-68.834 7.16699 -96.501 21.5s-50.834 34 -69.501 59s-32.667 54.5 -42 88.5s-14 71 -14 111s4.66699 77 14 111s23.333 63.5 42 88.5
s41.834 44.5 69.501 58.5s59.834 21 96.501 21s68.834 -7 96.501 -21s50.834 -33.5 69.501 -58.5s32.667 -54.5 42 -88.5s14 -71 14 -111zM443 270c0 32.667 -3.33301 63.167 -10 91.5s-16.667 52.666 -30 72.999s-30.166 36.333 -50.499 48s-44.5 17.5 -72.5 17.5
s-52.167 -5.83301 -72.5 -17.5s-37.166 -27.667 -50.499 -48s-23.333 -44.666 -30 -72.999s-10 -58.833 -10 -91.5c0 -33.333 3.33301 -64 10 -92s16.667 -52.167 30 -72.5s30.166 -36.333 50.499 -48s44.5 -17.5 72.5 -17.5s52.167 5.83301 72.5 17.5
s37.166 27.667 50.499 48s23.333 44.5 30 72.5s10 58.667 10 92z" />
    <glyph glyph-name="afii10080" unicode="&#x43e;" horiz-adv-x="560" 
d="M502 270c0 -40 -4.66699 -77 -14 -111s-23.333 -63.5 -42 -88.5s-41.834 -44.667 -69.501 -59s-59.834 -21.5 -96.501 -21.5s-68.834 7.16699 -96.501 21.5s-50.834 34 -69.501 59s-32.667 54.5 -42 88.5s-14 71 -14 111s4.66699 77 14 111s23.333 63.5 42 88.5
s41.834 44.5 69.501 58.5s59.834 21 96.501 21s68.834 -7 96.501 -21s50.834 -33.5 69.501 -58.5s32.667 -54.5 42 -88.5s14 -71 14 -111zM443 270c0 32.667 -3.33301 63.167 -10 91.5s-16.667 52.666 -30 72.999s-30.166 36.333 -50.499 48s-44.5 17.5 -72.5 17.5
s-52.167 -5.83301 -72.5 -17.5s-37.166 -27.667 -50.499 -48s-23.333 -44.666 -30 -72.999s-10 -58.833 -10 -91.5c0 -33.333 3.33301 -64 10 -92s16.667 -52.167 30 -72.5s30.166 -36.333 50.499 -48s44.5 -17.5 72.5 -17.5s52.167 5.83301 72.5 17.5
s37.166 27.667 50.499 48s23.333 44.5 30 72.5s10 58.667 10 92z" />
    <glyph glyph-name="afii10081" unicode="&#xef;" horiz-adv-x="546" 
d="M408 0v490h-270v-490h-59v539h388v-539h-59z" />
    <glyph glyph-name="afii10081" unicode="&#x43f;" horiz-adv-x="546" 
d="M408 0v490h-270v-490h-59v539h388v-539h-59z" />
    <glyph glyph-name="afii10082" unicode="&#xf0;" horiz-adv-x="549" 
d="M492 277c0 -41.333 -5.49902 -79.333 -16.499 -114s-27.167 -64.5 -48.5 -89.5s-47.333 -44.667 -78 -59s-66 -21.5 -106 -21.5c-21.333 0 -41.5 1.66699 -60.5 5s-33.833 7 -44.5 11v-224h-59v727c16.667 9.33301 40 17.833 70 25.5s60.667 11.5 92 11.5
c40 0 75.5 -6.5 106.5 -19.5s57.167 -31.5 78.5 -55.5s37.666 -52.667 48.999 -86s17 -70.333 17 -111zM433.001 277c0 33.333 -4.16504 63.666 -12.498 90.999s-20.666 50.833 -36.999 70.5s-36.333 34.834 -60 45.501s-50.834 16 -81.501 16
c-20.667 0 -40.834 -2 -60.501 -6s-34.167 -8.66699 -43.5 -14v-422c9.33301 -3.33301 24 -6.83301 44 -10.5s39.333 -5.5 58 -5.5c31.333 0 59 6 83 18s44.167 28.5 60.5 49.5s28.666 45.833 36.999 74.5s12.5 59.667 12.5 93z" />
    <glyph glyph-name="afii10082" unicode="&#x440;" horiz-adv-x="549" 
d="M492 277c0 -41.333 -5.49902 -79.333 -16.499 -114s-27.167 -64.5 -48.5 -89.5s-47.333 -44.667 -78 -59s-66 -21.5 -106 -21.5c-21.333 0 -41.5 1.66699 -60.5 5s-33.833 7 -44.5 11v-224h-59v727c16.667 9.33301 40 17.833 70 25.5s60.667 11.5 92 11.5
c40 0 75.5 -6.5 106.5 -19.5s57.167 -31.5 78.5 -55.5s37.666 -52.667 48.999 -86s17 -70.333 17 -111zM433.001 277c0 33.333 -4.16504 63.666 -12.498 90.999s-20.666 50.833 -36.999 70.5s-36.333 34.834 -60 45.501s-50.834 16 -81.501 16
c-20.667 0 -40.834 -2 -60.501 -6s-34.167 -8.66699 -43.5 -14v-422c9.33301 -3.33301 24 -6.83301 44 -10.5s39.333 -5.5 58 -5.5c31.333 0 59 6 83 18s44.167 28.5 60.5 49.5s28.666 45.833 36.999 74.5s12.5 59.667 12.5 93z" />
    <glyph glyph-name="afii10083" unicode="&#xf1;" horiz-adv-x="461" 
d="M413 27c-16.667 -11.333 -35.8301 -20.3301 -57.4971 -26.9971s-45.167 -10 -70.5 -10c-27.333 0 -54.5 5.16699 -81.5 15.5s-51.333 26.666 -73 48.999s-39.167 51.333 -52.5 87s-20 78.5 -20 128.5s6.66699 92.667 20 128s30.833 64.166 52.5 86.499
s46 38.666 73 48.999s54.167 15.5 81.5 15.5c25.333 0 49.166 -3.5 71.499 -10.5s41.166 -15.833 56.499 -26.5l-21 -44c-13.333 9.33301 -29 16.833 -47 22.5s-36.667 8.5 -56 8.5c-20.667 0 -41.167 -4 -61.5 -12s-38.666 -21 -54.999 -39s-29.5 -41.667 -39.5 -71
s-15 -65 -15 -107s5.16699 -77.667 15.5 -107s23.666 -53 39.999 -71s34.666 -31 54.999 -39s40.5 -12 60.5 -12c19.333 0 38 2.83301 56 8.5s33.667 13.167 47 22.5z" />
    <glyph glyph-name="afii10083" unicode="&#x441;" horiz-adv-x="461" 
d="M413 27c-16.667 -11.333 -35.8301 -20.3301 -57.4971 -26.9971s-45.167 -10 -70.5 -10c-27.333 0 -54.5 5.16699 -81.5 15.5s-51.333 26.666 -73 48.999s-39.167 51.333 -52.5 87s-20 78.5 -20 128.5s6.66699 92.667 20 128s30.833 64.166 52.5 86.499
s46 38.666 73 48.999s54.167 15.5 81.5 15.5c25.333 0 49.166 -3.5 71.499 -10.5s41.166 -15.833 56.499 -26.5l-21 -44c-13.333 9.33301 -29 16.833 -47 22.5s-36.667 8.5 -56 8.5c-20.667 0 -41.167 -4 -61.5 -12s-38.666 -21 -54.999 -39s-29.5 -41.667 -39.5 -71
s-15 -65 -15 -107s5.16699 -77.667 15.5 -107s23.666 -53 39.999 -71s34.666 -31 54.999 -39s40.5 -12 60.5 -12c19.333 0 38 2.83301 56 8.5s33.667 13.167 47 22.5z" />
    <glyph glyph-name="afii10084" unicode="&#xf2;" horiz-adv-x="444" 
d="M251 489v-489h-58v489h-162v50h382v-50h-162z" />
    <glyph glyph-name="afii10084" unicode="&#x442;" horiz-adv-x="444" 
d="M251 489v-489h-58v489h-162v50h382v-50h-162z" />
    <glyph glyph-name="afii10085" unicode="&#xf3;" horiz-adv-x="537" 
d="M492 539c-13.333 -93.333 -35.667 -183.166 -67 -269.499s-67.333 -170.166 -108 -251.499l-116 -233h-63l110 215c-45.333 85.333 -86.5 172.666 -123.5 261.999s-63.5 181.666 -79.5 276.999h61c14 -83.333 36.167 -165 66.5 -245s64.833 -159.333 103.5 -238h2
c36 76.667 67.167 154.5 93.5 233.5s45.833 162.167 58.5 249.5h62z" />
    <glyph glyph-name="afii10085" unicode="&#x443;" horiz-adv-x="537" 
d="M492 539c-13.333 -93.333 -35.667 -183.166 -67 -269.499s-67.333 -170.166 -108 -251.499l-116 -233h-63l110 215c-45.333 85.333 -86.5 172.666 -123.5 261.999s-63.5 181.666 -79.5 276.999h61c14 -83.333 36.167 -165 66.5 -245s64.833 -159.333 103.5 -238h2
c36 76.667 67.167 154.5 93.5 233.5s45.833 162.167 58.5 249.5h62z" />
    <glyph glyph-name="afii10086" unicode="&#xf4;" horiz-adv-x="759" 
d="M700 270c0 -34 -3.5 -67.667 -10.5 -101s-18.333 -63.166 -34 -89.499s-36.334 -47.833 -62.001 -64.5s-57.167 -25 -94.5 -25c-16.667 0 -33 2.66699 -49 8s-30 12.333 -42 21v-234h-56v234c-12 -8.66699 -26.167 -15.667 -42.5 -21s-32.833 -8 -49.5 -8
c-37.333 0 -68.833 8.33301 -94.5 25s-46.334 38.167 -62.001 64.5s-27 56.166 -34 89.499s-10.5 67 -10.5 101s3.5 67.5 10.5 100.5s18.333 62.833 34 89.5s36.334 48.167 62.001 64.5s57.167 24.5 94.5 24.5c16.667 0 33.167 -2.5 49.5 -7.5s30.5 -11.833 42.5 -20.5v264
h56v-264c12 8.66699 26 15.5 42 20.5s32.333 7.5 49 7.5c37.333 0 68.833 -8.16699 94.5 -24.5s46.334 -37.833 62.001 -64.5s27 -56.5 34 -89.5s10.5 -66.5 10.5 -100.5zM643 270c0 26 -2.16699 52.8311 -6.5 80.498s-12.166 52.667 -23.499 75s-26.5 40.833 -45.5 55.5
s-43.5 22 -73.5 22c-15.333 0 -30.666 -2.5 -45.999 -7.5s-28.666 -11.167 -39.999 -18.5v-415c11.333 -7.33301 24.666 -13.5 39.999 -18.5s30.666 -7.5 45.999 -7.5c30 0 54.5 7.33301 73.5 22s34.167 33.334 45.5 56.001s19.166 47.834 23.499 75.501s6.5 54.5 6.5 80.5z
M352 476.998c-11.333 7.33301 -24.833 13.502 -40.5 18.502s-31.167 7.5 -46.5 7.5c-30 0 -54.5 -7.33301 -73.5 -22s-34.167 -33.167 -45.5 -55.5s-19.166 -47.333 -23.499 -75s-6.5 -54.5 -6.5 -80.5s2.16699 -52.833 6.5 -80.5s12.166 -52.834 23.499 -75.501
s26.5 -41.334 45.5 -56.001s43.5 -22 73.5 -22c15.333 0 30.833 2.5 46.5 7.5s29.167 11.167 40.5 18.5v415z" />
    <glyph glyph-name="afii10086" unicode="&#x444;" horiz-adv-x="759" 
d="M700 270c0 -34 -3.5 -67.667 -10.5 -101s-18.333 -63.166 -34 -89.499s-36.334 -47.833 -62.001 -64.5s-57.167 -25 -94.5 -25c-16.667 0 -33 2.66699 -49 8s-30 12.333 -42 21v-234h-56v234c-12 -8.66699 -26.167 -15.667 -42.5 -21s-32.833 -8 -49.5 -8
c-37.333 0 -68.833 8.33301 -94.5 25s-46.334 38.167 -62.001 64.5s-27 56.166 -34 89.499s-10.5 67 -10.5 101s3.5 67.5 10.5 100.5s18.333 62.833 34 89.5s36.334 48.167 62.001 64.5s57.167 24.5 94.5 24.5c16.667 0 33.167 -2.5 49.5 -7.5s30.5 -11.833 42.5 -20.5v264
h56v-264c12 8.66699 26 15.5 42 20.5s32.333 7.5 49 7.5c37.333 0 68.833 -8.16699 94.5 -24.5s46.334 -37.833 62.001 -64.5s27 -56.5 34 -89.5s10.5 -66.5 10.5 -100.5zM643 270c0 26 -2.16699 52.8311 -6.5 80.498s-12.166 52.667 -23.499 75s-26.5 40.833 -45.5 55.5
s-43.5 22 -73.5 22c-15.333 0 -30.666 -2.5 -45.999 -7.5s-28.666 -11.167 -39.999 -18.5v-415c11.333 -7.33301 24.666 -13.5 39.999 -18.5s30.666 -7.5 45.999 -7.5c30 0 54.5 7.33301 73.5 22s34.167 33.334 45.5 56.001s19.166 47.834 23.499 75.501s6.5 54.5 6.5 80.5z
M352 476.998c-11.333 7.33301 -24.833 13.502 -40.5 18.502s-31.167 7.5 -46.5 7.5c-30 0 -54.5 -7.33301 -73.5 -22s-34.167 -33.167 -45.5 -55.5s-19.166 -47.333 -23.499 -75s-6.5 -54.5 -6.5 -80.5s2.16699 -52.833 6.5 -80.5s12.166 -52.834 23.499 -75.501
s26.5 -41.334 45.5 -56.001s43.5 -22 73.5 -22c15.333 0 30.833 2.5 46.5 7.5s29.167 11.167 40.5 18.5v415z" />
    <glyph glyph-name="afii10087" unicode="&#xf5;" horiz-adv-x="503" 
d="M406 0l-154 237h-2l-153 -237h-67l186 280l-172 259h67l139 -217h2l140 217h67l-172 -259l186 -280h-67z" />
    <glyph glyph-name="afii10087" unicode="&#x445;" horiz-adv-x="503" 
d="M406 0l-154 237h-2l-153 -237h-67l186 280l-172 259h67l139 -217h2l140 217h67l-172 -259l186 -280h-67z" />
    <glyph glyph-name="afii10088" unicode="&#xf6;" horiz-adv-x="555" 
d="M495 -146h-45l-4 146h-367v539h59v-490h264v490h59v-489l38 -15z" />
    <glyph glyph-name="afii10088" unicode="&#x446;" horiz-adv-x="555" 
d="M495 -146h-45l-4 146h-367v539h59v-490h264v490h59v-489l38 -15z" />
    <glyph glyph-name="afii10089" unicode="&#xf7;" horiz-adv-x="540" 
d="M402 0l0.000976562 230.998c-18.667 -10 -39.334 -18.5 -62.001 -25.5s-46 -10.5 -70 -10.5c-64 0 -112.667 15.833 -146 47.5s-50 77.834 -50 138.501v158h58v-155c0 -92.667 48.333 -139 145 -139c22 0 44 3.33301 66 10s41.667 15.334 59 26.001v258h59v-539h-59z" />
    <glyph glyph-name="afii10089" unicode="&#x447;" horiz-adv-x="540" 
d="M402 0l0.000976562 230.998c-18.667 -10 -39.334 -18.5 -62.001 -25.5s-46 -10.5 -70 -10.5c-64 0 -112.667 15.833 -146 47.5s-50 77.834 -50 138.501v158h58v-155c0 -92.667 48.333 -139 145 -139c22 0 44 3.33301 66 10s41.667 15.334 59 26.001v258h59v-539h-59z" />
    <glyph glyph-name="afii10090" unicode="&#xf8;" horiz-adv-x="819" 
d="M79 0v539h59v-491h242v491h59v-491h242v491h59v-539h-661z" />
    <glyph glyph-name="afii10090" unicode="&#x448;" horiz-adv-x="819" 
d="M79 0v539h59v-491h242v491h59v-491h242v491h59v-539h-661z" />
    <glyph glyph-name="afii10091" unicode="&#xf9;" horiz-adv-x="833" 
d="M774 -146h-45l-5 146h-645v539h59v-491h242v491h59v-491h242v491h59v-489l38 -15z" />
    <glyph glyph-name="afii10091" unicode="&#x449;" horiz-adv-x="833" 
d="M774 -146h-45l-5 146h-645v539h59v-491h242v491h59v-491h242v491h59v-489l38 -15z" />
    <glyph glyph-name="afii10092" unicode="&#xfa;" horiz-adv-x="583" 
d="M527 159c0 -52 -17.333 -93.168 -52 -123.501s-84.334 -45.5 -149.001 -45.5c-28.667 0 -57.167 3.33301 -85.5 10s-53.166 15.667 -74.499 27v463h-136v49h195v-223c11.333 3.33301 26.333 6.5 45 9.5s35.667 4.5 51 4.5c69.333 0 121 -15.667 155 -47
s51 -72.666 51 -123.999zM469 158.999c0 38.667 -12.002 69.332 -36.002 91.999s-62.333 34 -115 34c-14 0 -30.167 -1.33301 -48.5 -4s-33.166 -5.66699 -44.499 -9v-216c11.333 -5.33301 26.333 -10.166 45 -14.499s37.334 -6.5 56.001 -6.5c47.333 0 83 10.667 107 32
s36 52 36 92z" />
    <glyph glyph-name="afii10092" unicode="&#x44a;" horiz-adv-x="583" 
d="M527 159c0 -52 -17.333 -93.168 -52 -123.501s-84.334 -45.5 -149.001 -45.5c-28.667 0 -57.167 3.33301 -85.5 10s-53.166 15.667 -74.499 27v463h-136v49h195v-223c11.333 3.33301 26.333 6.5 45 9.5s35.667 4.5 51 4.5c69.333 0 121 -15.667 155 -47
s51 -72.666 51 -123.999zM469 158.999c0 38.667 -12.002 69.332 -36.002 91.999s-62.333 34 -115 34c-14 0 -30.167 -1.33301 -48.5 -4s-33.166 -5.66699 -44.499 -9v-216c11.333 -5.33301 26.333 -10.166 45 -14.499s37.334 -6.5 56.001 -6.5c47.333 0 83 10.667 107 32
s36 52 36 92z" />
    <glyph glyph-name="afii10093" unicode="&#xfb;" horiz-adv-x="672" 
d="M534 0v539h59v-539h-59zM440 159c0 -52 -17.333 -93.168 -52 -123.501s-84.334 -45.5 -149.001 -45.5c-28.667 0 -57.167 3.33301 -85.5 10s-53.166 15.667 -74.499 27v512h58v-223c6 2 13 3.83301 21 5.5s16.333 3.16699 25 4.5s17.5 2.33301 26.5 3s17.167 1 24.5 1
c69.333 0 121 -15.667 155 -47s51 -72.666 51 -123.999zM382 158.999c0 38.667 -12 69.332 -36 91.999s-62.333 34 -115 34c-14 0 -30.333 -1.33301 -49 -4s-33.667 -5.66699 -45 -9v-216c11.333 -5.33301 26.5 -10.166 45.5 -14.499s37.833 -6.5 56.5 -6.5
c47.333 0 83 10.667 107 32s36 52 36 92z" />
    <glyph glyph-name="afii10093" unicode="&#x44b;" horiz-adv-x="672" 
d="M534 0v539h59v-539h-59zM440 159c0 -52 -17.333 -93.168 -52 -123.501s-84.334 -45.5 -149.001 -45.5c-28.667 0 -57.167 3.33301 -85.5 10s-53.166 15.667 -74.499 27v512h58v-223c6 2 13 3.83301 21 5.5s16.333 3.16699 25 4.5s17.5 2.33301 26.5 3s17.167 1 24.5 1
c69.333 0 121 -15.667 155 -47s51 -72.666 51 -123.999zM382 158.999c0 38.667 -12 69.332 -36 91.999s-62.333 34 -115 34c-14 0 -30.333 -1.33301 -49 -4s-33.667 -5.66699 -45 -9v-216c11.333 -5.33301 26.5 -10.166 45.5 -14.499s37.833 -6.5 56.5 -6.5
c47.333 0 83 10.667 107 32s36 52 36 92z" />
    <glyph glyph-name="afii10094" unicode="&#xfc;" horiz-adv-x="495" 
d="M440 159c0 -52 -17.333 -93.168 -52 -123.501s-84.334 -45.5 -149.001 -45.5c-28.667 0 -57.167 3.33301 -85.5 10s-53.166 15.667 -74.499 27v512h58v-223c6 2 13 3.83301 21 5.5s16.333 3.16699 25 4.5s17.5 2.33301 26.5 3s17.167 1 24.5 1
c69.333 0 121 -15.667 155 -47s51 -72.666 51 -123.999zM382 158.999c0 38.667 -12 69.332 -36 91.999s-62.333 34 -115 34c-14 0 -30.333 -1.33301 -49 -4s-33.667 -5.66699 -45 -9v-216c11.333 -5.33301 26.5 -10.166 45.5 -14.499s37.833 -6.5 56.5 -6.5
c47.333 0 83 10.667 107 32s36 52 36 92z" />
    <glyph glyph-name="afii10094" unicode="&#x44c;" horiz-adv-x="495" 
d="M440 159c0 -52 -17.333 -93.168 -52 -123.501s-84.334 -45.5 -149.001 -45.5c-28.667 0 -57.167 3.33301 -85.5 10s-53.166 15.667 -74.499 27v512h58v-223c6 2 13 3.83301 21 5.5s16.333 3.16699 25 4.5s17.5 2.33301 26.5 3s17.167 1 24.5 1
c69.333 0 121 -15.667 155 -47s51 -72.666 51 -123.999zM382 158.999c0 38.667 -12 69.332 -36 91.999s-62.333 34 -115 34c-14 0 -30.333 -1.33301 -49 -4s-33.667 -5.66699 -45 -9v-216c11.333 -5.33301 26.5 -10.166 45.5 -14.499s37.833 -6.5 56.5 -6.5
c47.333 0 83 10.667 107 32s36 52 36 92z" />
    <glyph glyph-name="afii10095" unicode="&#xfd;" horiz-adv-x="501" 
d="M443 270c0 -48 -6.83301 -89.498 -20.5 -124.498s-32 -64 -55 -87s-50.167 -40.167 -81.5 -51.5s-64.333 -17 -99 -17c-26 0 -51.667 3.16699 -77 9.5s-46.666 15.5 -63.999 27.5l21 42c12.667 -9.33301 30.167 -17 52.5 -23s44.166 -9 65.499 -9
c26 0 50.833 4.16699 74.5 12.5s44.5 21.5 62.5 39.5s32.5 40.667 43.5 68s17.167 60 18.5 98h-283v46h282c-2.66699 35.333 -9.83398 65.666 -21.501 90.999s-26.5 46.166 -44.5 62.499s-38.333 28.333 -61 36s-46.334 11.5 -71.001 11.5c-21.333 0 -43.166 -3 -65.499 -9
s-39.833 -13.667 -52.5 -23l-21 42c16.667 12 37.834 21.167 63.501 27.5s51.5 9.5 77.5 9.5c34.667 0 67.667 -5.5 99 -16.5s58.5 -28 81.5 -51s41.333 -52 55 -87s20.5 -76.5 20.5 -124.5z" />
    <glyph glyph-name="afii10095" unicode="&#x44d;" horiz-adv-x="501" 
d="M443 270c0 -48 -6.83301 -89.498 -20.5 -124.498s-32 -64 -55 -87s-50.167 -40.167 -81.5 -51.5s-64.333 -17 -99 -17c-26 0 -51.667 3.16699 -77 9.5s-46.666 15.5 -63.999 27.5l21 42c12.667 -9.33301 30.167 -17 52.5 -23s44.166 -9 65.499 -9
c26 0 50.833 4.16699 74.5 12.5s44.5 21.5 62.5 39.5s32.5 40.667 43.5 68s17.167 60 18.5 98h-283v46h282c-2.66699 35.333 -9.83398 65.666 -21.501 90.999s-26.5 46.166 -44.5 62.499s-38.333 28.333 -61 36s-46.334 11.5 -71.001 11.5c-21.333 0 -43.166 -3 -65.499 -9
s-39.833 -13.667 -52.5 -23l-21 42c16.667 12 37.834 21.167 63.501 27.5s51.5 9.5 77.5 9.5c34.667 0 67.667 -5.5 99 -16.5s58.5 -28 81.5 -51s41.333 -52 55 -87s20.5 -76.5 20.5 -124.5z" />
    <glyph glyph-name="afii10096" unicode="&#xfe;" horiz-adv-x="747" 
d="M686 270c0 -40 -4.33496 -76.999 -13.002 -110.999s-21.834 -63.5 -39.501 -88.5s-39.334 -44.667 -65.001 -59s-55.5 -21.5 -89.5 -21.5c-32.667 0 -61.5 6.66699 -86.5 20s-46.167 31.666 -63.5 54.999s-30.666 51 -39.999 83s-14.666 67 -15.999 105h-136v-253h-58
v539h58v-237h137c2 36 8 69 18 99s23.5 56 40.5 78s37.833 39.167 62.5 51.5s52.667 18.5 84 18.5c34 0 63.833 -7 89.5 -21s47.334 -33.5 65.001 -58.5s30.834 -54.5 39.501 -88.5s13 -71 13 -111zM627.998 270.001c0 32.667 -3 63.167 -9 91.5s-15.333 52.666 -28 72.999
s-28.334 36.333 -47.001 48s-40.334 17.5 -65.001 17.5c-25.333 0 -47.333 -5.83301 -66 -17.5s-34.334 -27.667 -47.001 -48s-22 -44.666 -28 -72.999s-9 -58.833 -9 -91.5c0 -33.333 3 -64 9 -92s15.333 -52.333 28 -73s28.334 -36.834 47.001 -48.501
s40.667 -17.5 66 -17.5c24.667 0 46.334 5.83301 65.001 17.5s34.334 27.834 47.001 48.501s22 45 28 73s9 58.667 9 92z" />
    <glyph glyph-name="afii10096" unicode="&#x44e;" horiz-adv-x="747" 
d="M686 270c0 -40 -4.33496 -76.999 -13.002 -110.999s-21.834 -63.5 -39.501 -88.5s-39.334 -44.667 -65.001 -59s-55.5 -21.5 -89.5 -21.5c-32.667 0 -61.5 6.66699 -86.5 20s-46.167 31.666 -63.5 54.999s-30.666 51 -39.999 83s-14.666 67 -15.999 105h-136v-253h-58
v539h58v-237h137c2 36 8 69 18 99s23.5 56 40.5 78s37.833 39.167 62.5 51.5s52.667 18.5 84 18.5c34 0 63.833 -7 89.5 -21s47.334 -33.5 65.001 -58.5s30.834 -54.5 39.501 -88.5s13 -71 13 -111zM627.998 270.001c0 32.667 -3 63.167 -9 91.5s-15.333 52.666 -28 72.999
s-28.334 36.333 -47.001 48s-40.334 17.5 -65.001 17.5c-25.333 0 -47.333 -5.83301 -66 -17.5s-34.334 -27.667 -47.001 -48s-22 -44.666 -28 -72.999s-9 -58.833 -9 -91.5c0 -33.333 3 -64 9 -92s15.333 -52.333 28 -73s28.334 -36.834 47.001 -48.501
s40.667 -17.5 66 -17.5c24.667 0 46.334 5.83301 65.001 17.5s34.334 27.834 47.001 48.501s22 45 28 73s9 58.667 9 92z" />
    <glyph glyph-name="afii10097" unicode="&#xff;" horiz-adv-x="525" 
d="M387 0v234.998h-98c-24 0 -44.167 -6 -60.5 -18s-29.833 -28.667 -40.5 -50l-82 -167h-63l87 173c8.66699 16.667 19.167 31.834 31.5 45.501s25.5 23.834 39.5 30.501v2c-38 6 -69.5 21.333 -94.5 46s-37.5 57 -37.5 97c0 46 17.833 83.333 53.5 112s86.5 43 152.5 43
c34 0 65.833 -3.33301 95.5 -10s54.167 -15.667 73.5 -27v-512h-57zM387 484.998c-25.333 13.333 -63 20 -113 20c-48.667 0 -85.5 -10 -110.5 -30s-37.5 -47.333 -37.5 -82c0 -35.333 12.167 -63.333 36.5 -84s62.833 -31 115.5 -31h109v207z" />
    <glyph glyph-name="afii10097" unicode="&#x44f;" horiz-adv-x="525" 
d="M387 0v234.998h-98c-24 0 -44.167 -6 -60.5 -18s-29.833 -28.667 -40.5 -50l-82 -167h-63l87 173c8.66699 16.667 19.167 31.834 31.5 45.501s25.5 23.834 39.5 30.501v2c-38 6 -69.5 21.333 -94.5 46s-37.5 57 -37.5 97c0 46 17.833 83.333 53.5 112s86.5 43 152.5 43
c34 0 65.833 -3.33301 95.5 -10s54.167 -15.667 73.5 -27v-512h-57zM387 484.998c-25.333 13.333 -63 20 -113 20c-48.667 0 -85.5 -10 -110.5 -30s-37.5 -47.333 -37.5 -82c0 -35.333 12.167 -63.333 36.5 -84s62.833 -31 115.5 -31h109v207z" />
    <glyph glyph-name="afii10059" unicode="&#x152;" horiz-adv-x="943" 
d="M887 208c0 -66 -21.5 -118.833 -64.5 -158.5s-104.5 -59.5 -184.5 -59.5c-35.333 0 -68.333 3.33301 -99 10s-57.667 15.667 -81 27v321h-312v-348h-61v724h61v-323h312v323h60v-312c11.333 3.33301 26.833 6.5 46.5 9.5s39.167 4.5 58.5 4.5
c42 0 79.333 -5.33301 112 -16s60.167 -25.667 82.5 -45s39.5 -42.333 51.5 -69s18 -56 18 -88zM826 208c0 52 -17.832 92.833 -53.499 122.5s-85.834 44.5 -150.501 44.5c-8 0 -17 -0.333008 -27 -1s-19.667 -1.66699 -29 -3s-18.166 -2.83301 -26.499 -4.5
s-15.5 -3.5 -21.5 -5.5v-300c13.333 -6 30.666 -10.833 51.999 -14.5s44 -5.5 68 -5.5c60.667 0 107.167 14.5 139.5 43.5s48.5 70.167 48.5 123.5z" />
    <glyph glyph-name="afii10059" unicode="&#x40a;" horiz-adv-x="943" 
d="M887 208c0 -66 -21.5 -118.833 -64.5 -158.5s-104.5 -59.5 -184.5 -59.5c-35.333 0 -68.333 3.33301 -99 10s-57.667 15.667 -81 27v321h-312v-348h-61v724h61v-323h312v323h60v-312c11.333 3.33301 26.833 6.5 46.5 9.5s39.167 4.5 58.5 4.5
c42 0 79.333 -5.33301 112 -16s60.167 -25.667 82.5 -45s39.5 -42.333 51.5 -69s18 -56 18 -88zM826 208c0 52 -17.832 92.833 -53.499 122.5s-85.834 44.5 -150.501 44.5c-8 0 -17 -0.333008 -27 -1s-19.667 -1.66699 -29 -3s-18.166 -2.83301 -26.499 -4.5
s-15.5 -3.5 -21.5 -5.5v-300c13.333 -6 30.666 -10.833 51.999 -14.5s44 -5.5 68 -5.5c60.667 0 107.167 14.5 139.5 43.5s48.5 70.167 48.5 123.5z" />
    <glyph glyph-name="afii10107" unicode="&#x153;" horiz-adv-x="807" 
d="M752 159c0 -52 -17.5 -93.168 -52.5 -123.501s-84.833 -45.5 -149.5 -45.5c-28.667 0 -57.167 3.33301 -85.5 10s-53.166 15.667 -74.499 27v226h-253v-253h-58v539h58v-237h253v237h59v-223c11.333 3.33301 26.333 6.5 45 9.5s35.667 4.5 51 4.5
c69.333 0 121.166 -15.667 155.499 -47s51.5 -72.666 51.5 -123.999zM693 158.999c0 38.667 -12.002 69.332 -36.002 91.999s-62.333 34 -115 34c-14 0 -30.167 -1.33301 -48.5 -4s-33.166 -5.66699 -44.499 -9v-216c11.333 -5.33301 26.333 -10.166 45 -14.499
s37.334 -6.5 56.001 -6.5c47.333 0 83 10.667 107 32s36 52 36 92z" />
    <glyph glyph-name="afii10107" unicode="&#x45a;" horiz-adv-x="807" 
d="M752 159c0 -52 -17.5 -93.168 -52.5 -123.501s-84.833 -45.5 -149.5 -45.5c-28.667 0 -57.167 3.33301 -85.5 10s-53.166 15.667 -74.499 27v226h-253v-253h-58v539h58v-237h253v237h59v-223c11.333 3.33301 26.333 6.5 45 9.5s35.667 4.5 51 4.5
c69.333 0 121.166 -15.667 155.499 -47s51.5 -72.666 51.5 -123.999zM693 158.999c0 38.667 -12.002 69.332 -36.002 91.999s-62.333 34 -115 34c-14 0 -30.167 -1.33301 -48.5 -4s-33.166 -5.66699 -44.499 -9v-216c11.333 -5.33301 26.333 -10.166 45 -14.499
s37.334 -6.5 56.001 -6.5c47.333 0 83 10.667 107 32s36 52 36 92z" />
    <glyph glyph-name="afii10058" unicode="&#x160;" horiz-adv-x="974" 
d="M918 208c0 -66 -21.501 -118.834 -64.501 -158.501s-104.5 -59.5 -184.5 -59.5c-35.333 0 -68.5 3.33301 -99.5 10s-58.167 15.667 -81.5 27v644h-199l-16 -155c-6 -54.667 -12.667 -107.334 -20 -158.001s-18.666 -98.667 -33.999 -144s-36.333 -87.166 -63 -125.499
s-62 -72.166 -106 -101.499l-26 51c36.667 26 66 56 88 90s39.5 71.333 52.5 112s22.667 84.5 29 131.5s12.5 96.833 18.5 149.5l22 203h315v-312c11.333 3.33301 26.833 6.5 46.5 9.5s39.167 4.5 58.5 4.5c42 0 79.333 -5.33301 112 -16s60.167 -25.667 82.5 -45
s39.5 -42.333 51.5 -69s18 -56 18 -88zM856.999 207.999c0 52 -17.832 92.833 -53.499 122.5s-85.834 44.5 -150.501 44.5c-8 0 -17 -0.333008 -27 -1s-19.667 -1.66699 -29 -3s-18.166 -2.83301 -26.499 -4.5s-15.5 -3.5 -21.5 -5.5v-300
c13.333 -6 30.666 -10.833 51.999 -14.5s44 -5.5 68 -5.5c60.667 0 107.167 14.5 139.5 43.5s48.5 70.167 48.5 123.5z" />
    <glyph glyph-name="afii10058" unicode="&#x409;" horiz-adv-x="974" 
d="M918 208c0 -66 -21.501 -118.834 -64.501 -158.501s-104.5 -59.5 -184.5 -59.5c-35.333 0 -68.5 3.33301 -99.5 10s-58.167 15.667 -81.5 27v644h-199l-16 -155c-6 -54.667 -12.667 -107.334 -20 -158.001s-18.666 -98.667 -33.999 -144s-36.333 -87.166 -63 -125.499
s-62 -72.166 -106 -101.499l-26 51c36.667 26 66 56 88 90s39.5 71.333 52.5 112s22.667 84.5 29 131.5s12.5 96.833 18.5 149.5l22 203h315v-312c11.333 3.33301 26.833 6.5 46.5 9.5s39.167 4.5 58.5 4.5c42 0 79.333 -5.33301 112 -16s60.167 -25.667 82.5 -45
s39.5 -42.333 51.5 -69s18 -56 18 -88zM856.999 207.999c0 52 -17.832 92.833 -53.499 122.5s-85.834 44.5 -150.501 44.5c-8 0 -17 -0.333008 -27 -1s-19.667 -1.66699 -29 -3s-18.166 -2.83301 -26.499 -4.5s-15.5 -3.5 -21.5 -5.5v-300
c13.333 -6 30.666 -10.833 51.999 -14.5s44 -5.5 68 -5.5c60.667 0 107.167 14.5 139.5 43.5s48.5 70.167 48.5 123.5z" />
    <glyph glyph-name="afii10106" unicode="&#x161;" horiz-adv-x="830" 
d="M775 159c0 -54 -18.332 -95.668 -54.999 -125.001s-85.667 -44 -147 -44c-28.667 0 -57.167 3.33301 -85.5 10s-53.166 15.667 -74.499 27v463h-155l-15 -109c-5.33301 -36.667 -11.333 -74.667 -18 -114s-17 -77 -31 -113s-32.833 -68.667 -56.5 -98
s-54.834 -52.333 -93.501 -69l-23 48c30.667 14 55.5 33.667 74.5 59s34.5 54 46.5 86s21.167 66 27.5 102s11.833 71.333 16.5 106l21 151h265v-223c11.333 3.33301 26.333 6.5 45 9.5s35.667 4.5 51 4.5c69.333 0 121.166 -15.667 155.499 -47s51.5 -72.666 51.5 -123.999
zM716.001 158.999c0 38.667 -12.002 69.332 -36.002 91.999s-62.333 34 -115 34c-14 0 -30.167 -1.33301 -48.5 -4s-33.166 -5.66699 -44.499 -9v-216c11.333 -5.33301 26.333 -10.166 45 -14.499s37.334 -6.5 56.001 -6.5c47.333 0 83 10.667 107 32s36 52 36 92z" />
    <glyph glyph-name="afii10106" unicode="&#x459;" horiz-adv-x="830" 
d="M775 159c0 -54 -18.332 -95.668 -54.999 -125.001s-85.667 -44 -147 -44c-28.667 0 -57.167 3.33301 -85.5 10s-53.166 15.667 -74.499 27v463h-155l-15 -109c-5.33301 -36.667 -11.333 -74.667 -18 -114s-17 -77 -31 -113s-32.833 -68.667 -56.5 -98
s-54.834 -52.333 -93.501 -69l-23 48c30.667 14 55.5 33.667 74.5 59s34.5 54 46.5 86s21.167 66 27.5 102s11.833 71.333 16.5 106l21 151h265v-223c11.333 3.33301 26.333 6.5 45 9.5s35.667 4.5 51 4.5c69.333 0 121.166 -15.667 155.499 -47s51.5 -72.666 51.5 -123.999
zM716.001 158.999c0 38.667 -12.002 69.332 -36.002 91.999s-62.333 34 -115 34c-14 0 -30.167 -1.33301 -48.5 -4s-33.166 -5.66699 -44.499 -9v-216c11.333 -5.33301 26.333 -10.166 45 -14.499s37.334 -6.5 56.001 -6.5c47.333 0 83 10.667 107 32s36 52 36 92z" />
    <glyph glyph-name="afii10193" unicode="&#x178;" horiz-adv-x="546" 
d="M300 0l-5 -146h-44l-5 146h-167v539h59v-490h270v490h59v-539h-167z" />
    <glyph glyph-name="afii10193" unicode="&#x45f;" horiz-adv-x="546" 
d="M300 0l-5 -146h-44l-5 146h-167v539h59v-490h270v490h59v-539h-167z" />
    <glyph glyph-name="afii10100" unicode="&#x192;" horiz-adv-x="409" 
d="M141 490v-490h-58v539h296v-49h-238zM236 603h-47.999l75 131c5.33301 6.66699 11.666 11.5 18.999 14.5s14.333 4.5 21 4.5c15.333 0 25 -6.33301 29 -19z" />
    <glyph glyph-name="afii10100" unicode="&#x453;" horiz-adv-x="409" 
d="M141 490v-490h-58v539h296v-49h-238zM236 603h-47.999l75 131c5.33301 6.66699 11.666 11.5 18.999 14.5s14.333 4.5 21 4.5c15.333 0 25 -6.33301 29 -19z" />
    <glyph glyph-name="afii57929" unicode="&#x2bc;" horiz-adv-x="102" 
d="M46 543h-43.001l83 226c4.66699 6 9.83398 10.833 15.501 14.5s12.834 5.5 21.501 5.5s15.167 -2 19.5 -6s7.16602 -8.66699 8.49902 -14z" />
    <glyph glyph-name="Euro" unicode="&#x2c6;" horiz-adv-x="713" 
d="M663 27c-18 -11.333 -41.8359 -20.3359 -71.5029 -27.0029s-62.834 -10 -99.501 -10c-36 0 -70.667 5.5 -104 16.5s-63.666 27.5 -90.999 49.5s-50.666 49.833 -69.999 83.5s-33.333 73.5 -42 119.5h-116v40h111c-1.33301 10 -2.33301 20.167 -3 30.5
s-1 21.166 -1 32.499c0 12.667 0.333008 24.667 1 36s1.66699 22.666 3 33.999h-111v40h118c8.66699 44.667 22.834 83.334 42.501 116.001s43 59.834 70 81.501s56.833 37.834 89.5 48.501s67 16 103 16s69 -3.33301 99 -10s54 -15.667 72 -27l-23 -47
c-14.667 9.33301 -34.834 17 -60.501 23s-54.167 9 -85.5 9c-28 0 -55.167 -4.16699 -81.5 -12.5s-50.5 -21 -72.5 -38s-41.167 -38.667 -57.5 -65s-28.5 -57.833 -36.5 -94.5h304v-40h-311c-1.33301 -11.333 -2.5 -22.666 -3.5 -33.999s-1.5 -23.333 -1.5 -36
c0 -11.333 0.333008 -22.166 1 -32.499s1.66699 -20.5 3 -30.5h312v-40h-305c8 -38 20 -70.667 36 -98s35 -49.833 57 -67.5s46.333 -30.667 73 -39s54.334 -12.5 83.001 -12.5c31.333 0 59.833 3 85.5 9s45.834 13.667 60.501 23z" />
    <glyph glyph-name="caron" unicode="&#x2c7;" horiz-adv-x="294" 
d="M177 619c-10.667 -10.667 -20.667 -16 -30 -16c-10 0 -20.333 5.33301 -31 16l-99 100l28 24l102 -91l102 91l28 -24z" />
    <glyph glyph-name="breve" unicode="&#x2d8;" horiz-adv-x="294" 
d="M276 728c-2.66699 -38.667 -15.333 -69.5 -38 -92.5s-53 -34.5 -91 -34.5s-68.5 11.5 -91.5 34.5s-35.833 53.833 -38.5 92.5l41 6c5.33301 -29.333 15 -51.333 29 -66s34 -22 60 -22s45.833 7.33301 59.5 22s23.167 36.667 28.5 66z" />
    <glyph glyph-name="dotaccent" unicode="&#x2d9;" horiz-adv-x="294" 
d="M188 671c0 -11.333 -4 -21 -12 -29s-17.667 -12 -29 -12s-21 4 -29 12s-12 17.667 -12 29s4 20.833 12 28.5s17.667 11.5 29 11.5s21 -3.83301 29 -11.5s12 -17.167 12 -28.5z" />
    <glyph glyph-name="ring" unicode="&#x2da;" horiz-adv-x="294" 
d="M236 684c0 -24 -8.66699 -44.333 -26 -61s-38.333 -25 -63 -25s-45.667 8.33301 -63 25s-26 37 -26 61s8.66699 44.333 26 61s38.333 25 63 25s45.667 -8.33301 63 -25s26 -37 26 -61zM201 684c0 15.333 -5.16699 28.166 -15.5 38.499s-23.166 15.5 -38.499 15.5
s-28.166 -5.16699 -38.499 -15.5s-15.5 -23.166 -15.5 -38.499s5.16699 -28 15.5 -38s23.166 -15 38.499 -15s28.166 5 38.499 15s15.5 22.667 15.5 38z" />
    <glyph glyph-name="ogonek" unicode="&#x2db;" horiz-adv-x="294" 
d="M267 -173c-11.333 -5.33301 -24.501 -9.83301 -39.501 -13.5s-29.833 -5.5 -44.5 -5.5c-29.333 0 -53.166 7.66699 -71.499 23s-27.5 36 -27.5 62c0 23.333 9.83301 45.333 29.5 66s45.5 39.334 77.5 56.001h57c-42 -19.333 -71.5 -39.333 -88.5 -60
s-25.5 -39.667 -25.5 -57c0 -14.667 5 -26.334 15 -35.001s23 -13 39 -13c22 0 43.333 4.66699 64 14z" />
    <glyph glyph-name="hungarumlaut" unicode="&#x2dd;" horiz-adv-x="294" 
d="M202 603h-43l78 131c10 12.667 22 19 36 19s22.667 -6.33301 26 -19zM65 603h-43l78 131c10 12.667 22 19 36 19s22.667 -6.33301 26 -19z" />
    <glyph glyph-name="uni0306" unicode="&#x306;" horiz-adv-x="0" 
d="M0 728c-2.66699 -38.667 -15.333 -69.5 -38 -92.5s-53 -34.5 -91 -34.5s-68.5 11.5 -91.5 34.5s-35.833 53.833 -38.5 92.5l41 6c5.33301 -29.333 15 -51.333 29 -66s34 -22 60 -22s45.833 7.33301 59.5 22s23.167 36.667 28.5 66z" />
    <glyph glyph-name="uni030F" unicode="&#x30f;" horiz-adv-x="0" 
d="M-64 603l-96.999 131c3.33301 12.667 11.666 19 24.999 19c14 0 26 -6.33301 36 -19l78 -131h-42zM-200.999 603l-96.999 131c3.33301 12.667 11.666 19 24.999 19c14 0 26 -6.33301 36 -19l78 -131h-42z" />
    <glyph glyph-name="uni0311" unicode="&#x311;" horiz-adv-x="0" 
d="M-58 601c-5.33301 29.333 -14.834 51.5 -28.501 66.5s-33.5 22.5 -59.5 22.5s-46 -7.5 -60 -22.5s-23.667 -37.167 -29 -66.5l-41 7c2.66699 38.667 15.5 69.334 38.5 92.001s53.5 34 91.5 34s68.333 -11.333 91 -34s35.334 -53.334 38.001 -92.001z" />
    <glyph glyph-name="tonos" unicode="&#x384;" horiz-adv-x="283" 
d="M146 603h-42.999l48 132c3.33301 6 8.16602 10.667 14.499 14s12.833 5 19.5 5c14.667 0 25 -6.33301 31 -19z" />
    <glyph glyph-name="afii10051" unicode="&#x402;" horiz-adv-x="694" 
d="M632 188c0 -84.667 -18.832 -160.334 -56.499 -227.001s-92.167 -117 -163.5 -151l-27 48c62 30 108.5 73.833 139.5 131.5s46.5 123.834 46.5 198.501c0 34 -3.5 65.333 -10.5 94s-18 53.5 -33 74.5s-34.167 37.5 -57.5 49.5s-51.333 18 -84 18
c-22 0 -45.667 -3.16699 -71 -9.5s-47.333 -15.166 -66 -26.499v-388h-61v671h-152v53h471v-53h-258v-230c20 11.333 42.833 20 68.5 26s51.167 9 76.5 9c41.333 0 77 -7.33301 107 -22s54.667 -34.834 74 -60.501s33.666 -56 42.999 -91s14 -73.167 14 -114.5z" />
    <glyph glyph-name="afii10051" unicode="&#x20ac;" horiz-adv-x="694" 
d="M632 188c0 -84.667 -18.832 -160.334 -56.499 -227.001s-92.167 -117 -163.5 -151l-27 48c62 30 108.5 73.833 139.5 131.5s46.5 123.834 46.5 198.501c0 34 -3.5 65.333 -10.5 94s-18 53.5 -33 74.5s-34.167 37.5 -57.5 49.5s-51.333 18 -84 18
c-22 0 -45.667 -3.16699 -71 -9.5s-47.333 -15.166 -66 -26.499v-388h-61v671h-152v53h471v-53h-258v-230c20 11.333 42.833 20 68.5 26s51.167 9 76.5 9c41.333 0 77 -7.33301 107 -22s54.667 -34.834 74 -60.501s33.666 -56 42.999 -91s14 -73.167 14 -114.5z" />
    <glyph glyph-name="endash" unicode="&#x2013;" horiz-adv-x="404" 
d="M-4 300v50h412v-50h-412z" />
    <glyph glyph-name="emdash" unicode="&#x2014;" horiz-adv-x="808" 
d="M86 300v50h636v-50h-636z" />
    <glyph glyph-name="quoteleft" unicode="&#x2018;" horiz-adv-x="261" 
d="M123 554c-4.66699 -6.66699 -10.168 -12 -16.501 -16s-14.166 -6 -23.499 -6s-16.333 2.33301 -21 7s-7.66699 9.66699 -9 15l109 231h45z" />
    <glyph glyph-name="quoteright" unicode="&#x2019;" horiz-adv-x="261" 
d="M99 536h-46l85 232c4.66699 6.66699 10 12 16 16s13.667 6 23 6s16.333 -2.33301 21 -7s7.66699 -9.66699 9 -15z" />
    <glyph glyph-name="quotesinglbase" unicode="&#x201a;" horiz-adv-x="261" 
d="M99 -169h-46l85 231c4.66699 6.66699 10 12 16 16s13.667 6 23 6s16.333 -2.33301 21 -7s7.66699 -9.66699 9 -15z" />
    <glyph glyph-name="quotedblleft" unicode="&#x201c;" horiz-adv-x="430" 
d="M292 554c-4.66699 -6.66699 -10 -12 -16 -16s-13.667 -6 -23 -6s-16.333 2.33301 -21 7s-7.66699 9.66699 -9 15l108 231h46zM123 554c-4.66699 -6.66699 -10.168 -12 -16.501 -16s-14.166 -6 -23.499 -6s-16.333 2.33301 -21 7s-7.66699 9.66699 -9 15l109 231h45z" />
    <glyph glyph-name="quotedblright" unicode="&#x201d;" horiz-adv-x="430" 
d="M268 536h-44.999l84 232c4.66699 6.66699 10.167 12 16.5 16s14.166 6 23.499 6s16.333 -2.33301 21 -7s7.66699 -9.66699 9 -15zM99.001 536h-46l85 232c4.66699 6.66699 10 12 16 16s13.667 6 23 6s16.333 -2.33301 21 -7s7.66699 -9.66699 9 -15z" />
    <glyph glyph-name="quotedblbase" unicode="&#x201e;" horiz-adv-x="430" 
d="M268 -169h-44.999l84 231c4.66699 6.66699 10.167 12 16.5 16s14.166 6 23.499 6s16.333 -2.33301 21 -7s7.66699 -9.66699 9 -15zM99.001 -169h-46l85 231c4.66699 6.66699 10 12 16 16s13.667 6 23 6s16.333 -2.33301 21 -7s7.66699 -9.66699 9 -15z" />
    <glyph glyph-name="dagger" unicode="&#x2020;" horiz-adv-x="617" 
d="M338 485v-700h-59v700h-210v54h210v246h59v-246h210v-54h-210z" />
    <glyph glyph-name="daggerdbl" unicode="&#x2021;" horiz-adv-x="617" 
d="M338 165v-380h-59v380h-210v54h210v266h-210v54h210v246h59v-246h210v-54h-210v-266h210v-54h-210z" />
    <glyph glyph-name="bullet" unicode="&#x2022;" horiz-adv-x="324" 
d="M239 325c0 -21.333 -7.5 -39.5 -22.5 -54.5s-33.167 -22.5 -54.5 -22.5s-39.5 7.5 -54.5 22.5s-22.5 33.167 -22.5 54.5s7.5 39.5 22.5 54.5s33.167 22.5 54.5 22.5s39.5 -7.5 54.5 -22.5s22.5 -33.167 22.5 -54.5z" />
    <glyph glyph-name="ellipsis" unicode="&#x2026;" horiz-adv-x="732" 
d="M655 39c0 -12.667 -4.33301 -23.334 -13 -32.001s-19.334 -13 -32.001 -13s-23.334 4.33301 -32.001 13s-13 19.334 -13 32.001s4.33301 23.334 13 32.001s19.334 13 32.001 13s23.334 -4.33301 32.001 -13s13 -19.334 13 -32.001zM411 39
c0 -12.667 -4.33301 -23.334 -13 -32.001s-19.334 -13 -32.001 -13s-23.334 4.33301 -32.001 13s-13 19.334 -13 32.001s4.33301 23.334 13 32.001s19.334 13 32.001 13s23.334 -4.33301 32.001 -13s13 -19.334 13 -32.001zM167 39c0 -12.667 -4.33301 -23.334 -13 -32.001
s-19.334 -13 -32.001 -13s-23.334 4.33301 -32.001 13s-13 19.334 -13 32.001s4.33301 23.334 13 32.001s19.334 13 32.001 13s23.334 -4.33301 32.001 -13s13 -19.334 13 -32.001z" />
    <glyph glyph-name="perthousand" unicode="&#x2030;" horiz-adv-x="1289" 
d="M1214 190c0 -30 -3.33301 -57.167 -10 -81.5s-16.167 -45.333 -28.5 -63s-27.666 -31.334 -45.999 -41.001s-39.166 -14.5 -62.499 -14.5s-44.166 4.83301 -62.499 14.5s-33.833 23.334 -46.5 41.001s-22.334 38.667 -29.001 63s-10 51.5 -10 81.5
s3.33301 57.167 10 81.5s16.334 45.333 29.001 63s28.167 31.334 46.5 41.001s39.166 14.5 62.499 14.5s44.166 -4.83301 62.499 -14.5s33.666 -23.334 45.999 -41.001s21.833 -38.667 28.5 -63s10 -51.5 10 -81.5zM834 190c0 -30 -3.33301 -57.167 -10 -81.5
s-16.167 -45.333 -28.5 -63s-27.666 -31.334 -45.999 -41.001s-39.166 -14.5 -62.499 -14.5s-44.166 4.83301 -62.499 14.5s-33.833 23.334 -46.5 41.001s-22.334 38.667 -29.001 63s-10 51.5 -10 81.5s3.33301 57.167 10 81.5s16.334 45.333 29.001 63
s28.167 31.334 46.5 41.001s39.166 14.5 62.499 14.5s44.166 -4.83301 62.499 -14.5s33.666 -23.334 45.999 -41.001s21.833 -38.667 28.5 -63s10 -51.5 10 -81.5zM342 -8l-45 15l268 725l45 -15zM369 534c0 -30 -3.33301 -57.167 -10 -81.5s-16.167 -45.333 -28.5 -63
s-27.666 -31.334 -45.999 -41.001s-39.166 -14.5 -62.499 -14.5s-44.166 4.83301 -62.499 14.5s-33.833 23.334 -46.5 41.001s-22.334 38.667 -29.001 63s-10 51.5 -10 81.5s3.33301 57.167 10 81.5s16.334 45.333 29.001 63s28.167 31.334 46.5 41.001
s39.166 14.5 62.499 14.5s44.166 -4.83301 62.499 -14.5s33.666 -23.334 45.999 -41.001s21.833 -38.667 28.5 -63s10 -51.5 10 -81.5zM1163 190c0 47.333 -8.33301 85.166 -25 113.499s-40.334 42.5 -71.001 42.5s-54.5 -14.167 -71.5 -42.5s-25.5 -66.166 -25.5 -113.499
s8.5 -85 25.5 -113s40.833 -42 71.5 -42s54.334 14 71.001 42s25 65.667 25 113zM783 190c0 47.333 -8.33301 85.166 -25 113.499s-40.334 42.5 -71.001 42.5s-54.5 -14.167 -71.5 -42.5s-25.5 -66.166 -25.5 -113.499s8.5 -85 25.5 -113s40.833 -42 71.5 -42
s54.334 14 71.001 42s25 65.667 25 113zM318 534c0 47.333 -8.33301 85.166 -25 113.499s-40.334 42.5 -71.001 42.5s-54.334 -14.167 -71.001 -42.5s-25 -66.166 -25 -113.499s8.33301 -85 25 -113s40.334 -42 71.001 -42s54.334 14 71.001 42s25 65.667 25 113z" />
    <glyph glyph-name="guilsinglleft" unicode="&#x2039;" horiz-adv-x="369" 
d="M251 68l-182 237l182 237l39 -31l-159 -206l159 -206z" />
    <glyph glyph-name="guilsinglright" unicode="&#x203a;" horiz-adv-x="369" 
d="M119 68l-39 31l158 206l-158 206l39 31l181 -237z" />
    <glyph glyph-name="trademark" unicode="&#x2122;" horiz-adv-x="954" 
d="M840 294l-46.001 336.001c-1.33301 5.33301 -2 11 -2 17s-0.333008 11.667 -1 17c-0.666992 6 -1 11.333 -1 16h-2c-1.33301 -4.66699 -2.66602 -10 -3.99902 -16c-1.33301 -5.33301 -2.83301 -11 -4.5 -17s-3.16699 -11.667 -4.5 -17l-110 -336h-50l-110 336
c-2 5.33301 -3.66699 11 -5 17s-2.66602 11.667 -3.99902 17c-1.33301 6 -2.66602 11.333 -3.99902 16h-2c0 -4.66699 -0.333008 -10 -1 -16c-0.666992 -5.33301 -1.16699 -11 -1.5 -17s-0.833008 -11.667 -1.5 -17l-46 -336h-47l61 430h66l106 -326
c1.33301 -6 2.83301 -11.833 4.5 -17.5s3.16699 -11.167 4.5 -16.5c1.33301 -6 2.66602 -11.333 3.99902 -16h2c1.33301 4.66699 2.66602 10 3.99902 16c2 11.333 5 22.666 9 33.999l106 326h66l61 -430h-47zM231.999 682.001v-388h-49v388h-126v42h302v-42h-127z" />
    <glyph glyph-name="Delta" unicode="&#x2206;" horiz-adv-x="653" 
d="M27 0l265 724h69l265 -724h-599zM351 592c-3.33301 9.33301 -6.5 18.833 -9.5 28.5s-5.5 18.5 -7.5 26.5c-2.66699 9.33301 -5 18.333 -7 27h-2c-1.33301 -8.66699 -3.33301 -17.667 -6 -27c-2 -8 -4.5 -16.833 -7.5 -26.5s-6.16699 -19.167 -9.5 -28.5l-195 -542h439z
" />
    <glyph glyph-name="minus" unicode="&#x2212;" 
d="M76 300v50h421v-50h-421z" />
    <glyph glyph-name="uni2219" unicode="&#x2219;" horiz-adv-x="244" 
d="M167 325c0 -12.667 -4.33301 -23.334 -13 -32.001s-19.334 -13 -32.001 -13s-23.334 4.33301 -32.001 13s-13 19.334 -13 32.001s4.33301 23.334 13 32.001s19.334 13 32.001 13s23.334 -4.33301 32.001 -13s13 -19.334 13 -32.001z" />
    <glyph glyph-name="radical" unicode="&#x221a;" horiz-adv-x="774" 
d="M383 -215l-65.0029 -0.000976562l-189 515h-100v50h143l152 -422c3.33301 -9.33301 6.33301 -18.833 9 -28.5s5.33398 -18.167 8.00098 -25.5c2.66699 -9.33301 5.33398 -18 8.00098 -26h2c0.666992 8.66699 2.33398 17.334 5.00098 26.001
c1.33301 7.33301 3.33301 15.833 6 25.5s5.66699 19.167 9 28.5l272 857h65z" />
    <glyph glyph-name="infinity" unicode="&#x221e;" horiz-adv-x="951" 
d="M888 325c0 -32.667 -4.83301 -62.834 -14.5 -90.501s-23.334 -51.5 -41.001 -71.5s-38.667 -35.667 -63 -47s-51.166 -17 -80.499 -17c-30 0 -56 4.83301 -78 14.5s-41.333 22.5 -58 38.5s-31.167 34.333 -43.5 55s-23.833 42.334 -34.5 65.001
c-11.333 -22.667 -23 -44.334 -35 -65.001s-26.167 -39 -42.5 -55s-35.5 -28.833 -57.5 -38.5s-48 -14.5 -78 -14.5c-29.333 0 -56.333 5.66699 -81 17s-45.667 27 -63 47s-30.833 43.833 -40.5 71.5s-14.5 57.834 -14.5 90.501s4.83301 62.834 14.5 90.501
s23.167 51.5 40.5 71.5s38.333 35.667 63 47s51.667 17 81 17c30 0 56 -4.83301 78 -14.5s41.167 -22.5 57.5 -38.5s30.5 -34.333 42.5 -55s23.667 -42.334 35 -65.001c10.667 22.667 22.167 44.334 34.5 65.001s26.833 39 43.5 55s36 28.833 58 38.5s48 14.5 78 14.5
c29.333 0 56.166 -5.66699 80.499 -17s45.333 -27 63 -47s31.334 -43.833 41.001 -71.5s14.5 -57.834 14.5 -90.501zM833 325c0 26.667 -3.66699 50.834 -11 72.501s-17.5 40.167 -30.5 55.5s-28.333 27.166 -46 35.499s-37.167 12.5 -58.5 12.5c-26 0 -48.167 -5 -66.5 -15
s-34.5 -23.167 -48.5 -39.5s-26.333 -35 -37 -56l-32 -65.5l32 -65.5c10.667 -21 23 -39.667 37 -56s30.167 -29.5 48.5 -39.5s40.5 -15 66.5 -15c21.333 0 40.833 4.16699 58.5 12.5s33 20.166 46 35.499s23.167 33.833 30.5 55.5s11 45.834 11 72.501zM448 325l-32 65.5
c-10.667 21 -23 39.667 -37 56s-30.167 29.5 -48.5 39.5s-40.5 15 -66.5 15c-21.333 0 -40.833 -4.16699 -58.5 -12.5s-33 -20.166 -46 -35.499s-23.167 -33.833 -30.5 -55.5s-11 -45.834 -11 -72.501s3.66699 -50.834 11 -72.501s17.5 -40.167 30.5 -55.5
s28.333 -27.166 46 -35.499s37.167 -12.5 58.5 -12.5c26 0 48.167 5 66.5 15s34.5 23.167 48.5 39.5s26.333 35 37 56z" />
    <glyph glyph-name="uni2224" unicode="&#x2224;" horiz-adv-x="244" 
d="M167 325c0 -12.667 -4.33301 -23.334 -13 -32.001s-19.334 -13 -32.001 -13s-23.334 4.33301 -32.001 13s-13 19.334 -13 32.001s4.33301 23.334 13 32.001s19.334 13 32.001 13s23.334 -4.33301 32.001 -13s13 -19.334 13 -32.001z" />
    <glyph glyph-name="logicaland" unicode="&#x2227;" horiz-adv-x="244" 
d="M167 325c0 -12.667 -4.33301 -23.334 -13 -32.001s-19.334 -13 -32.001 -13s-23.334 4.33301 -32.001 13s-13 19.334 -13 32.001s4.33301 23.334 13 32.001s19.334 13 32.001 13s23.334 -4.33301 32.001 -13s13 -19.334 13 -32.001z" />
    <glyph glyph-name="approxequal" unicode="&#x2248;" 
d="M503 446c-10.667 -25.333 -26.334 -45.5 -47.001 -60.5s-45 -22.5 -73 -22.5c-19.333 0 -37 3.5 -53 10.5s-31.333 14.833 -46 23.5s-29.334 16.5 -44.001 23.5s-30.334 10.5 -47.001 10.5c-22 0 -40.667 -6 -56 -18s-27.333 -27.333 -36 -46l-31 32
c10.667 25.333 26.334 45.5 47.001 60.5s45 22.5 73 22.5c19.333 0 37 -3.5 53 -10.5s31.333 -14.833 46 -23.5s29.334 -16.5 44.001 -23.5s30.334 -10.5 47.001 -10.5c22 0 40.667 6 56 18s27.333 27.333 36 46zM503 251c-10.667 -25.333 -26.334 -45.5 -47.001 -60.5
s-45 -22.5 -73 -22.5c-19.333 0 -37 3.5 -53 10.5s-31.333 14.833 -46 23.5s-29.334 16.5 -44.001 23.5s-30.334 10.5 -47.001 10.5c-22 0 -40.667 -6 -56 -18s-27.333 -27.333 -36 -46l-31 32c10.667 25.333 26.334 45.5 47.001 60.5s45 22.5 73 22.5
c19.333 0 37 -3.5 53 -10.5s31.333 -14.833 46 -23.5s29.334 -16.5 44.001 -23.5s30.334 -10.5 47.001 -10.5c22 0 40.667 6 56 18s27.333 27.333 36 46z" />
    <glyph glyph-name="notequal" unicode="&#x2260;" 
d="M248 202l-65 -125l-36 19l56 106h-127v51h152l74 144h-226v51h252l60 115l36 -18l-51 -97h124v-51h-149l-75 -144h224v-51h-249z" />
    <glyph glyph-name="lessequal" unicode="&#x2264;" 
d="M76 339v42l421 177v-54l-359 -144l359 -144v-54zM76 0v49h421v-49h-421z" />
    <glyph glyph-name="greaterequal" unicode="&#x2265;" 
d="M76 162v54l360 144l-360 144v54l421 -177v-42zM76 0v49h421v-49h-421z" />
    <glyph glyph-name="dotmath" unicode="&#x22c5;" horiz-adv-x="244" 
d="M167 325c0 -12.667 -4.33301 -23.334 -13 -32.001s-19.334 -13 -32.001 -13s-23.334 4.33301 -32.001 13s-13 19.334 -13 32.001s4.33301 23.334 13 32.001s19.334 13 32.001 13s23.334 -4.33301 32.001 -13s13 -19.334 13 -32.001z" />
    <glyph glyph-name=".null" horiz-adv-x="0" 
 />
    <glyph glyph-name="nonmarkingreturn" horiz-adv-x="282" 
 />
    <glyph glyph-name="sterling" horiz-adv-x="650" 
d="M75 0c17.333 17.333 35.0039 36.1719 53.0039 56.5049s34.167 42.166 48.5 65.499s26.166 47.833 35.499 73.5s14 52.5 14 80.5c0 20 -1.33301 37.167 -4 51.5s-6 27.5 -10 39.5h-113v48h98c-6 16 -11.5 33.167 -16.5 51.5s-7.5 41.5 -7.5 69.5
c0 30 5.5 57.167 16.5 81.5s26.667 45.166 47 62.499s44.666 30.666 72.999 39.999s60.166 14 95.499 14c32 0 61.667 -3.66699 89 -11s50 -16 68 -26l-22 -47c-13.333 8 -32 15.167 -56 21.5s-49 9.5 -75 9.5c-54 0 -96.833 -13.333 -128.5 -40
s-47.5 -62.334 -47.5 -107.001c0 -27.333 2.5 -49.833 7.5 -67.5s10.5 -34.834 16.5 -51.501h215v-48h-201c3.33301 -12 6.16602 -25.333 8.49902 -40s3.5 -31.667 3.5 -51c0 -23.333 -3.16699 -46 -9.5 -68s-14.5 -42.5 -24.5 -61.5s-21 -36.5 -33 -52.5
s-23.333 -29.667 -34 -41h383v-53h-490z" />
    <glyph glyph-name="twosuperior" horiz-adv-x="368" 
d="M17 500l188.999 207.999c14 15.333 26.167 30.833 36.5 46.5s15.5 32.834 15.5 51.501c0 25.333 -8.16699 45.833 -24.5 61.5s-41.166 23.5 -74.499 23.5c-15.333 0 -32.5 -2 -51.5 -6s-35.833 -9.33301 -50.5 -16l-15 38c18 7.33301 37.333 13.333 58 18s40.667 7 60 7
c48 0 84.333 -11.667 109 -35s37 -53.333 37 -90c0 -25.333 -6.83301 -48.333 -20.5 -69s-28.167 -39 -43.5 -55l-133 -141h208v-42h-300z" />
    <glyph glyph-name="threesuperior" horiz-adv-x="368" 
d="M314 619c0 -38.667 -14.333 -69.499 -43 -92.499s-67.667 -34.5 -117 -34.5c-43.333 0 -83.333 8.33301 -120 25l16 38c14 -6 30.333 -11.167 49 -15.5s37 -6.5 55 -6.5c36 0 63.833 7.33301 83.5 22s29.5 36 29.5 64s-12.333 49.667 -37 65s-58.334 23 -101.001 23h-17
v37c42.667 2.66699 76 11.334 100 26.001s36 33 36 55s-7.83301 38.5 -23.5 49.5s-38.167 16.5 -67.5 16.5c-16 0 -32.167 -1.83301 -48.5 -5.5s-32.166 -8.83398 -47.499 -15.501l-18 37c17.333 7.33301 36 13.333 56 18s40.333 7 61 7c42.667 0 76 -9.33301 100 -28
s36 -44.667 36 -78c0 -23.333 -8.5 -42.833 -25.5 -58.5s-36.167 -27.167 -57.5 -34.5v-2c11.333 -3.33301 23 -7.83301 35 -13.5s22.833 -13 32.5 -22s17.667 -19.833 24 -32.5s9.5 -27.334 9.5 -44.001z" />
    <glyph glyph-name="acute" horiz-adv-x="294" 
d="M150 603h-47.999l75 131c5.33301 6.66699 11.666 11.5 18.999 14.5s14.333 4.5 21 4.5c15.333 0 25 -6.33301 29 -19z" />
    <glyph glyph-name="cedilla" horiz-adv-x="294" 
d="M254 -124c0 -25.333 -13.168 -44.5 -39.501 -57.5s-63.5 -19.5 -111.5 -19.5c-11.333 0 -22.833 0.333008 -34.5 1s-24.167 1.66699 -37.5 3l19 35c18 -2 35.667 -3 53 -3c28.667 0 52.334 3.33301 71.001 10s28 17 28 31c0 21.333 -21 32 -63 32c-16 0 -34 -1 -54 -3
l18 34c18 2 34 3 48 3c38.667 0 65.5 -6.5 80.5 -19.5s22.5 -28.5 22.5 -46.5z" />
    <glyph glyph-name="onesuperior" horiz-adv-x="368" 
d="M206 500l0.00195312 362.999c-14.667 -9.33301 -34.334 -18.166 -59.001 -26.499s-48.334 -14.833 -71.001 -19.5l-10 40c12.667 2 26.167 5.16699 40.5 9.5s28.333 9.33301 42 15s26.5 12 38.5 19s22 14.833 30 23.5h37v-424h-48z" />
    <glyph glyph-name="onequarter" horiz-adv-x="828" 
d="M721 111v-111h-44v111h-204v37l198 276h50v-276h52v-37h-52zM234 -11l-40 22l384 724l39 -22zM163 300v362.999c-14.667 -9.33301 -34.167 -18.166 -58.5 -26.499s-47.833 -14.833 -70.5 -19.5l-11 40c12.667 2 26.167 5.16699 40.5 9.5s28.333 9.33301 42 15
s26.667 12 39 19s22.5 14.833 30.5 23.5h36v-424h-48zM678 380.999l-7 -14c-4 -8 -9.33301 -17 -16 -27l-136 -192h159v202c0 6 0.333008 11.333 1 16c0 5.33301 0.333008 10.333 1 15h-2z" />
    <glyph glyph-name="onehalf" horiz-adv-x="828" 
d="M478 0l190.001 207.999c14 15.333 26.167 30.833 36.5 46.5s15.5 32.834 15.5 51.501c0 25.333 -8.33301 45.833 -25 61.5s-41.667 23.5 -75 23.5c-15.333 0 -32.333 -2 -51 -6s-35.334 -9.33301 -50.001 -16l-16 38c18 7.33301 37.5 13.333 58.5 18s41.167 7 60.5 7
c48 0 84.333 -11.667 109 -35s37 -53.333 37 -90c0 -25.333 -6.83301 -48.333 -20.5 -69s-28.167 -39 -43.5 -55l-133 -141h207v-42h-300zM208.001 -11.001l-39 22l384 724l39 -22zM163.001 299.999v362.999c-14.667 -9.33301 -34.167 -18.166 -58.5 -26.499
s-47.833 -14.833 -70.5 -19.5l-11 40c12.667 2 26.167 5.16699 40.5 9.5s28.333 9.33301 42 15s26.667 12 39 19s22.5 14.833 30.5 23.5h36v-424h-48z" />
    <glyph glyph-name="threequarters" horiz-adv-x="828" 
d="M721 111v-111h-44v111h-204v37l198 276h50v-276h52v-37h-52zM311 419c0 -38.667 -14.333 -69.499 -43 -92.499s-67.667 -34.5 -117 -34.5c-43.333 0 -83.333 8.33301 -120 25l16 38c14 -6 30.333 -11.167 49 -15.5s37 -6.5 55 -6.5c36 0 63.833 7.33301 83.5 22
s29.5 36 29.5 64s-12.333 49.667 -37 65s-58.334 23 -101.001 23h-17v37c42.667 2.66699 76 11.334 100 26.001s36 33 36 55s-7.83301 38.5 -23.5 49.5s-38.167 16.5 -67.5 16.5c-16 0 -32.167 -1.83301 -48.5 -5.5s-32.166 -8.83398 -47.499 -15.501l-18 37
c17.333 7.33301 36 13.333 56 18s40.333 7 61 7c42.667 0 76 -9.33301 100 -28s36 -44.667 36 -78c0 -23.333 -8.5 -42.833 -25.5 -58.5s-36.167 -27.167 -57.5 -34.5v-2c11.333 -3.33301 23 -7.83301 35 -13.5s22.833 -13 32.5 -22s17.667 -19.833 24 -32.5
s9.5 -27.334 9.5 -44.001zM264 -10.999l-40 22l384 724l39 -22zM678 381.001l-7 -14c-4 -8 -9.33301 -17 -16 -27l-136 -192h159v202c0 6 0.333008 11.333 1 16c0 5.33301 0.333008 10.333 1 15h-2z" />
    <glyph glyph-name="multiply" 
d="M471 104l-184 184l-185 -184l-36 38l183 183l-183 183l36 38l185 -184l184 184l37 -38l-184 -183l184 -183z" />
    <glyph glyph-name="divide" 
d="M328 483c0 -11.333 -4 -21.166 -12 -29.499s-17.667 -12.5 -29 -12.5s-21.166 4.16699 -29.499 12.5s-12.5 18.166 -12.5 29.499s4.16699 21 12.5 29s18.166 12 29.499 12s21 -4 29 -12s12 -17.667 12 -29zM76 301v48h421v-48h-421zM328 167c0 -11.333 -4 -21 -12 -29
s-17.667 -12 -29 -12s-21.166 4 -29.499 12s-12.5 17.667 -12.5 29s4.16699 21.166 12.5 29.499s18.166 12.5 29.499 12.5s21 -4.16699 29 -12.5s12 -18.166 12 -29.499z" />
    <glyph glyph-name="florin" horiz-adv-x="548" 
d="M494 669c-5.33301 2.66699 -12.499 5 -21.499 7s-18.167 3 -27.5 3c-34.667 0 -60.5 -10 -77.5 -30s-28.167 -50.333 -33.5 -91l-19 -139h140v-50h-146l-55 -424c-7.33301 -54.667 -24.5 -96.167 -51.5 -124.5s-65.833 -42.5 -116.5 -42.5
c-13.333 0 -26.333 1.33301 -39 4s-23.667 6 -33 10l19 50c5.33301 -2.66699 12.5 -5 21.5 -7s18.167 -3 27.5 -3c34.667 0 60.667 10 78 30s28.666 50.333 33.999 91l54 416h-118v50h125l18 145c7.33301 54.667 24.5 96.167 51.5 124.5s65.833 42.5 116.5 42.5
c13.333 0 26.333 -1.33301 39 -4s23.667 -6 33 -10z" />
    <glyph glyph-name="circumflex" horiz-adv-x="294" 
d="M249 601l-102 91l-102 -91l-28 25l99 100c10 10 20.333 15 31 15c10 0 20 -5 30 -15l100 -100z" />
    <glyph glyph-name="tilde" horiz-adv-x="294" 
d="M277 695c-3.33301 -20.667 -11.332 -38.667 -23.999 -54s-30 -23 -52 -23c-13.333 0 -24.333 2.66699 -33 8s-16.834 11.166 -24.501 17.499l-22 17.5c-7 5.33301 -14.833 8 -23.5 8c-13.333 0 -23.833 -5 -31.5 -15s-12.834 -22.333 -15.501 -37l-35 21
c3.33301 20.667 11.5 38.667 24.5 54s30.5 23 52.5 23c12.667 0 23.5 -2.66699 32.5 -8s17.167 -11.166 24.5 -17.499l21 -17.5c6.66699 -5.33301 14.667 -8 24 -8c13.333 0 23.833 5 31.5 15s12.834 22.333 15.501 37z" />
    <glyph glyph-name="breve.uc" horiz-adv-x="279" 
d="M269 913c-2.66699 -38.667 -15.333 -69.5 -38 -92.5s-53 -34.5 -91 -34.5s-68.5 11.5 -91.5 34.5s-35.833 53.833 -38.5 92.5l41 6c5.33301 -29.333 15 -51.333 29 -66s34 -22 60 -22s45.833 7.33301 59.5 22s23.167 36.667 28.5 66z" />
    <glyph glyph-name="hungarumlaut.lc" horiz-adv-x="300" 
d="M181 603h-43l78 131c10 12.667 22 19 36 19s22.667 -6.33301 26 -19zM44 603h-43l78 131c10 12.667 22 19 36 19s22.667 -6.33301 26 -19z" />
    <glyph glyph-name="acute.uc" horiz-adv-x="444" 
d="M293 788h-47.999l75 131c5.33301 6.66699 11.666 11.5 18.999 14.5s14.333 4.5 21 4.5c15.333 0 25 -6.33301 29 -19z" />
    <glyph glyph-name="tonos.uc" horiz-adv-x="264" 
d="M41 559h-41v155c8 11.333 18.333 17 31 17c14 0 24.333 -5.66699 31 -17z" />
    <glyph glyph-name="circumflex.uc" horiz-adv-x="452" 
d="M380 786l-102 91l-102 -91l-28 25l99 100c10 10 20.333 15 31 15c10 0 20 -5 30 -15l100 -100z" />
    <glyph glyph-name="grave.uc" horiz-adv-x="380" 
d="M262 788l-95.999 131c4 12.667 13.667 19 29 19c6.66699 0 13.667 -1.5 21 -4.5s13.666 -7.83301 18.999 -14.5l75 -131h-48z" />
    <glyph glyph-name="caron.uc" horiz-adv-x="452" 
d="M253 804c-10.667 -10.667 -20.667 -16 -30 -16c-10 0 -20.333 5.33301 -31 16l-99 100l28 24l102 -91l102 91l28 -24z" />
    <glyph glyph-name="diedot.uc" horiz-adv-x="393" 
d="M287 854c0 -10.667 -3.66699 -19.834 -11 -27.501s-16.666 -11.5 -27.999 -11.5s-20.666 3.83301 -27.999 11.5s-11 16.834 -11 27.501s3.66699 19.667 11 27s16.666 11 27.999 11s20.666 -3.66699 27.999 -11s11 -16.333 11 -27z" />
    <glyph glyph-name="dotaccent.lc" horiz-adv-x="341" 
d="M181 671c0 -11.333 -4 -21 -12 -29s-17.667 -12 -29 -12s-21 4 -29 12s-12 17.667 -12 29s4 20.833 12 28.5s17.667 11.5 29 11.5s21 -3.83301 29 -11.5s12 -17.167 12 -28.5z" />
    <glyph glyph-name="acute.lc" horiz-adv-x="539" 
d="M293 603h-47.999l75 131c5.33301 6.66699 11.666 11.5 18.999 14.5s14.333 4.5 21 4.5c15.333 0 25 -6.33301 29 -19z" />
    <glyph glyph-name="dotaccent.uc" horiz-adv-x="284" 
d="M181 856c0 -11.333 -4 -21 -12 -29s-17.667 -12 -29 -12s-21 4 -29 12s-12 17.667 -12 29s4 20.833 12 28.5s17.667 11.5 29 11.5s21 -3.83301 29 -11.5s12 -17.167 12 -28.5z" />
    <glyph glyph-name="ascendercaron" horiz-adv-x="293" 
d="M244 560h-40v154c7.33301 10.667 17.333 16 30 16c13.333 0 23.333 -5.33301 30 -16z" />
    <glyph glyph-name="ring.uc" horiz-adv-x="406" 
d="M334 869c0 -24 -8.66699 -44.333 -26 -61s-38.333 -25 -63 -25s-45.667 8.33301 -63 25s-26 37 -26 61s8.66699 44.333 26 61s38.333 25 63 25s45.667 -8.33301 63 -25s26 -37 26 -61zM299 869c0 15.333 -5.16699 28.166 -15.5 38.499s-23.166 15.5 -38.499 15.5
s-28.166 -5.16699 -38.499 -15.5s-15.5 -23.166 -15.5 -38.499s5.16699 -28 15.5 -38s23.166 -15 38.499 -15s28.166 5 38.499 15s15.5 22.667 15.5 38z" />
    <glyph glyph-name="circumflex.lc" horiz-adv-x="540" 
d="M380 601l-102 91l-102 -91l-28 25l99 100c10 10 20.333 15 31 15c10 0 20 -5 30 -15l100 -100z" />
    <glyph glyph-name="tilde.uc" horiz-adv-x="456" 
d="M407 880c-3.33301 -20.667 -11.332 -38.667 -23.999 -54s-30 -23 -52 -23c-13.333 0 -24.333 2.66699 -33 8s-16.834 11.166 -24.501 17.499l-22 17.5c-7 5.33301 -14.833 8 -23.5 8c-13.333 0 -23.833 -5 -31.5 -15s-12.834 -22.333 -15.501 -37l-35 21
c3.33301 20.667 11.5 38.667 24.5 54s30.5 23 52.5 23c12.667 0 23.5 -2.66699 32.5 -8s17.167 -11.166 24.5 -17.499l21 -17.5c6.66699 -5.33301 14.667 -8 24 -8c13.333 0 23.833 5 31.5 15s12.834 22.333 15.501 37z" />
    <glyph glyph-name="diedot.lc" horiz-adv-x="366" 
d="M231 669c0 -10.667 -3.66699 -19.834 -11 -27.501s-16.666 -11.5 -27.999 -11.5s-20.666 3.83301 -27.999 11.5s-11 16.834 -11 27.501s3.66699 19.667 11 27s16.666 11 27.999 11s20.666 -3.66699 27.999 -11s11 -16.333 11 -27z" />
    <glyph glyph-name="hungarumlaut.uc" horiz-adv-x="301" 
d="M181 788h-43l78 131c10 12.667 22 19 36 19s22.667 -6.33301 26 -19zM44 788h-43l78 131c10 12.667 22 19 36 19s22.667 -6.33301 26 -19z" />
    <glyph glyph-name="dieresis.lc" horiz-adv-x="577" 
d="M405 669c0 -10.667 -3.66699 -19.834 -11 -27.501s-16.666 -11.5 -27.999 -11.5s-20.666 3.83301 -27.999 11.5s-11 16.834 -11 27.501s3.66699 19.667 11 27s16.666 11 27.999 11s20.666 -3.66699 27.999 -11s11 -16.333 11 -27zM229 669
c0 -10.667 -3.66699 -19.834 -11 -27.501s-16.666 -11.5 -27.999 -11.5s-20.666 3.83301 -27.999 11.5s-11 16.834 -11 27.501s3.66699 19.667 11 27s16.666 11 27.999 11s20.666 -3.66699 27.999 -11s11 -16.333 11 -27z" />
    <glyph glyph-name="tilde.lc" horiz-adv-x="542" 
d="M407 695c-3.33301 -20.667 -11.332 -38.667 -23.999 -54s-30 -23 -52 -23c-13.333 0 -24.333 2.66699 -33 8s-16.834 11.166 -24.501 17.499l-22 17.5c-7 5.33301 -14.833 8 -23.5 8c-13.333 0 -23.833 -5 -31.5 -15s-12.834 -22.333 -15.501 -37l-35 21
c3.33301 20.667 11.5 38.667 24.5 54s30.5 23 52.5 23c12.667 0 23.5 -2.66699 32.5 -8s17.167 -11.166 24.5 -17.499l21 -17.5c6.66699 -5.33301 14.667 -8 24 -8c13.333 0 23.833 5 31.5 15s12.834 22.333 15.501 37z" />
    <glyph glyph-name="ring.lc" horiz-adv-x="461" 
d="M334 684c0 -24 -8.66699 -44.333 -26 -61s-38.333 -25 -63 -25s-45.667 8.33301 -63 25s-26 37 -26 61s8.66699 44.333 26 61s38.333 25 63 25s45.667 -8.33301 63 -25s26 -37 26 -61zM299 684c0 15.333 -5.16699 28.166 -15.5 38.499s-23.166 15.5 -38.499 15.5
s-28.166 -5.16699 -38.499 -15.5s-15.5 -23.166 -15.5 -38.499s5.16699 -28 15.5 -38s23.166 -15 38.499 -15s28.166 5 38.499 15s15.5 22.667 15.5 38z" />
    <glyph glyph-name="dieresis.uc" horiz-adv-x="489" 
d="M405 854c0 -10.667 -3.66699 -19.834 -11 -27.501s-16.666 -11.5 -27.999 -11.5s-20.666 3.83301 -27.999 11.5s-11 16.834 -11 27.501s3.66699 19.667 11 27s16.666 11 27.999 11s20.666 -3.66699 27.999 -11s11 -16.333 11 -27zM229 854
c0 -10.667 -3.66699 -19.834 -11 -27.501s-16.666 -11.5 -27.999 -11.5s-20.666 3.83301 -27.999 11.5s-11 16.834 -11 27.501s3.66699 19.667 11 27s16.666 11 27.999 11s20.666 -3.66699 27.999 -11s11 -16.333 11 -27z" />
    <glyph glyph-name="grave.lc" horiz-adv-x="460" 
d="M262 603l-95.999 131c4 12.667 13.667 19 29 19c6.66699 0 13.667 -1.5 21 -4.5s13.666 -7.83301 18.999 -14.5l75 -131h-48z" />
    <glyph glyph-name="macron.lc" horiz-adv-x="300" 
d="M24 637v45h232v-45h-232z" />
    <glyph glyph-name="tonos.lc" horiz-adv-x="283" 
d="M146 603h-42.999l48 132c3.33301 6 8.16602 10.667 14.499 14s12.833 5 19.5 5c14.667 0 25 -6.33301 31 -19z" />
    <glyph glyph-name="macron.uc" horiz-adv-x="282" 
d="M24 822v45h232v-45h-232z" />
    <glyph glyph-name="caron.lc" horiz-adv-x="482" 
d="M253 619c-10.667 -10.667 -20.667 -16 -30 -16c-10 0 -20.333 5.33301 -31 16l-99 100l28 24l102 -91l102 91l28 -24z" />
    <glyph glyph-name="breve.lc" horiz-adv-x="300" 
d="M269 728c-2.66699 -38.667 -15.333 -69.5 -38 -92.5s-53 -34.5 -91 -34.5s-68.5 11.5 -91.5 34.5s-35.833 53.833 -38.5 92.5l41 6c5.33301 -29.333 15 -51.333 29 -66s34 -22 60 -22s45.833 7.33301 59.5 22s23.167 36.667 28.5 66z" />
    <glyph glyph-name="commaaccent" horiz-adv-x="293" 
d="M104 -215l-47 -0.000976562l51 137c10.667 12 23.334 18 38.001 18c8 0 14.667 -1.66699 20 -5s8.66602 -7.66602 9.99902 -12.999z" />
    <glyph glyph-name="commaturn" horiz-adv-x="293" 
d="M186 618c-10.667 -12 -23.668 -17.999 -39.001 -17.999c-8 0 -14.667 1.66699 -20 5s-8.66602 7.66602 -9.99902 12.999l73 137h47z" />
    <glyph glyph-name="undercommaaccent" horiz-adv-x="293" 
d="M104 -215l-47 -0.000976562l51 137c10.667 12 23.334 18 38.001 18c8 0 14.667 -1.66699 20 -5s8.66602 -7.66602 9.99902 -12.999z" />
    </font>
</defs>
</svg>
